<?xml version="1.0" standalone="no"?>
<!DOCTYPE svg PUBLIC "-//W3C//DTD SVG 1.1//EN" "http://www.w3.org/Graphics/SVG/1.1/DTD/svg11.dtd" >
<svg xmlns="http://www.w3.org/2000/svg" xmlns:xlink="http://www.w3.org/1999/xlink" version="1.1">
<metadata></metadata>
<defs>
<font id="neuzeitsbook" horiz-adv-x="1138" >
<font-face units-per-em="2048" ascent="1638" descent="-410" />
<missing-glyph horiz-adv-x="569" />
<glyph horiz-adv-x="0" />
<glyph unicode="&#xd;" horiz-adv-x="681" />
<glyph unicode=" "  horiz-adv-x="569" />
<glyph unicode="&#x09;" horiz-adv-x="569" />
<glyph unicode="&#xa0;" horiz-adv-x="569" />
<glyph unicode="!" horiz-adv-x="684" d="M227 90q0 47 34 81t81 34t81 -34t34 -81t-34 -81t-81 -34t-81 34t-34 81zM262 350v1190h160v-1190h-160z" />
<glyph unicode="&#x22;" horiz-adv-x="681" d="M74 1024v516h159v-516h-159zM449 1024v516h159v-516h-159z" />
<glyph unicode="#" d="M45 469v119h238l47 340h-221v119h237l66 469h131l-66 -469h264l66 469h131l-66 -469h222v-119h-238l-47 -340h221v-119h-237l-66 -469h-131l66 469h-265l-65 -469h-131l65 469h-221zM414 588h264l47 340h-264z" />
<glyph unicode="$" d="M82 422h172q4 -74 27.5 -133.5t84 -108.5t150.5 -61v586q-66 18 -105.5 31.5t-104 47t-101.5 73.5t-65.5 108.5t-28.5 152.5q0 166 107.5 287t297.5 135v154h107v-154q70 -4 132 -24.5t125.5 -65.5t104.5 -131t49 -205h-172q-14 254 -239 283v-541q217 -55 325.5 -153.5 t108.5 -270.5q0 -182 -109.5 -307t-324.5 -150v-237h-107v237q-211 12 -316.5 132t-117.5 315zM283 1141q0 -113 61 -166t172 -88v510q-104 -6 -168.5 -80t-64.5 -176zM623 119q127 10 194.5 82.5t67.5 197.5q0 214 -262 277v-557z" />
<glyph unicode="%" horiz-adv-x="2048" d="M233 1161.5q0 184.5 100.5 281.5t229.5 97q131 0 230.5 -97t99.5 -281.5t-99.5 -282t-230.5 -97.5q-129 0 -229.5 97.5t-100.5 282zM393 1161q0 -117 41 -188.5t129 -71.5t129 71.5t41 188.5t-41 188.5t-129 71.5t-129 -71.5t-41 -188.5zM485 -70l949 1655h129 l-949 -1655h-129zM1155 354.5q0 184.5 100.5 281.5t229.5 97q131 0 230.5 -97t99.5 -281.5t-99.5 -282t-230.5 -97.5q-129 0 -229.5 97.5t-100.5 282zM1315 354.5q0 -116.5 41 -188.5t129 -72t129 72t41 188.5t-41 188t-129 71.5t-129 -71.5t-41 -188z" />
<glyph unicode="&#x26;" horiz-adv-x="1478" d="M174 403q0 49 8 93.5t26.5 82t36 67.5t49.5 58.5t51.5 47t56 40t52 30.5t51.5 27.5t40 20.5q-49 72 -74 112t-46.5 100.5t-21.5 119.5q0 111 80 202t234 91q145 0 223 -82t78 -203q0 -184 -166 -309l-94 -72l297 -413q66 127 84 260h159q-14 -94 -54 -200.5t-93 -176.5 l215 -299h-203l-116 166q-68 -82 -178.5 -138.5t-252.5 -56.5q-201 0 -321.5 122t-120.5 310zM346 406q0 -113 76 -202t215 -89q203 -1 328 153l-344 488q-139 -74 -207 -155t-68 -195zM563 1190q0 -39 17.5 -82t37 -72.5t64.5 -91.5q176 115 176 252q0 76 -39 122t-104 46 q-63 0 -107.5 -43t-44.5 -131z" />
<glyph unicode="'" horiz-adv-x="569" d="M205 1024v516h160v-516h-160z" />
<glyph unicode="(" horiz-adv-x="684" d="M143.5 604q-0.5 553 393.5 1012l122 -105q-139 -150 -247.5 -383t-108.5 -524t108.5 -524t247.5 -383l-122 -105q-393 459 -393.5 1012z" />
<glyph unicode=")" horiz-adv-x="684" d="M25 -303q139 150 247.5 383t108.5 524t-108.5 524.5t-247.5 382.5l122 105q393 -459 393 -1012t-393 -1012z" />
<glyph unicode="*" d="M201 1239l32 102l283 -102v301h107v-301l278 102l37 -102l-291 -96l189 -244l-91 -65l-176 251l-176 -251l-90 65l189 244z" />
<glyph unicode="+" horiz-adv-x="1228" d="M96 459v119h459v458h119v-458h459v-119h-459v-459h-119v459h-459z" />
<glyph unicode="," horiz-adv-x="569" d="M29 -287l202 529l162 -78l-258 -496z" />
<glyph unicode="-" horiz-adv-x="684" d="M90 459v155h504v-155h-504z" />
<glyph unicode="." horiz-adv-x="569" d="M170 90q0 47 34 81t81 34t80.5 -34t33.5 -81t-33.5 -81t-80.5 -34t-81 34t-34 81z" />
<glyph unicode="/" horiz-adv-x="796" d="M33 -29l600 1598h131l-600 -1598h-131z" />
<glyph unicode="0" d="M76 757.5q0 155.5 21.5 283.5t73.5 247t153.5 185.5t245 66.5t244.5 -66.5t153.5 -185.5t74 -247t21.5 -283.5t-21.5 -283.5t-74 -246.5t-153.5 -185.5t-244.5 -67t-245 67t-153.5 185.5t-73.5 246.5t-21.5 283.5zM248 757.5q0 -329.5 86 -484t235.5 -154.5t235.5 154.5 t86 484t-86 484.5t-235.5 155t-235.5 -155t-86 -484.5z" />
<glyph unicode="1" d="M266 1108v158q96 37 215 124t176 150h82v-1540h-172v1278q-127 -98 -301 -170z" />
<glyph unicode="2" d="M98 0v145l496 547q119 131 186.5 234.5t67.5 195.5q0 115 -76 188.5t-207 73.5q-141 0 -211.5 -90t-79.5 -239h-159q2 131 42 228t105.5 151.5t142 80t162.5 25.5q213 0 333 -115.5t120 -296.5q0 -121 -59.5 -232.5t-192.5 -254.5l-451 -485h705v-156h-924z" />
<glyph unicode="3" d="M80 379l160 12q16 -135 82.5 -203.5t214 -68.5t235.5 96t88 244q0 152 -93 242t-235 90q-115 0 -202 -68l-13 8v146l467 483h-639v156h832v-156l-430 -440l4 -5q35 6 70 7q170 0 290.5 -116t120.5 -325q0 -211 -130 -358.5t-363 -147.5q-84 0 -152 17.5t-113 41 t-80.5 63.5t-54 72t-32 79t-17.5 70.5t-10 60.5z" />
<glyph unicode="4" d="M72 416v137l665 987h154v-981h176v-143h-176v-416h-160v416h-659zM242 559h489v739h-4z" />
<glyph unicode="5" d="M98 381l172 14q6 -123 82 -199.5t199 -76.5q135 0 226 94t91 274q0 154 -87 251.5t-224 97.5q-197 0 -274 -156h-162l37 836h813v-156h-672l-25 -500h5q92 131 307 131q84 0 160.5 -26.5t144 -83t108.5 -156.5t41 -236q0 -88 -27.5 -175t-83 -164.5t-150.5 -126 t-216 -48.5q-434 0 -465 406z" />
<glyph unicode="6" d="M80 725q0 391 137 603t383 212q104 0 185 -33.5t123 -78t71 -103.5t36 -93t9 -65l-168 -12q-53 242 -250 242q-98 0 -168.5 -53.5t-108.5 -150.5t-55.5 -203.5t-21.5 -241.5l4 -5q43 86 129 148.5t217 62.5q211 0 334 -134t123 -349q0 -203 -132 -349.5t-349 -146.5 q-145 0 -246 57.5t-154 165t-75.5 234.5t-22.5 293zM272 467q0 -156 80 -252t221 -96q150 0 232 100.5t82 245.5q0 154 -82 244t-234 90q-127 0 -213 -92.5t-86 -239.5z" />
<glyph unicode="7" d="M102 1360v156h922v-170q-207 -317 -356.5 -676t-192.5 -670h-188q25 227 200 656t377 704h-762z" />
<glyph unicode="8" d="M88 418q0 328 295 411v5q-111 31 -169 114.5t-58 198.5q0 166 116.5 279.5t297 113.5t297 -113.5t116.5 -279.5q0 -115 -58.5 -199t-168.5 -114v-5q295 -84 295 -411q0 -186 -131.5 -314.5t-350.5 -128.5t-350 128t-131 315zM260 438q0 -150 83 -234.5t226.5 -84.5 t226.5 84.5t83 234.5q0 133 -84 221.5t-225.5 88.5t-225.5 -88.5t-84 -221.5zM328 1144.5q0 -110.5 65.5 -182t176 -71.5t176 71.5t65.5 182t-67.5 181.5t-174 71t-174 -71t-67.5 -181.5z" />
<glyph unicode="9" d="M80 1044q0 203 132 349.5t349 146.5q145 0 245.5 -57.5t154 -165t76 -234.5t22.5 -292q0 -391 -137.5 -603.5t-382.5 -212.5q-104 0 -185.5 34t-123.5 78t-70.5 103.5t-35.5 93t-9 64.5l168 12q53 -242 249 -241q98 0 169 53t109 150.5t55.5 204t21.5 241.5l-4 4 q-43 -86 -129 -148.5t-217 -62.5q-211 0 -334 134t-123 349zM252 1051q0 -154 82 -244t233 -90q127 0 213 92.5t86 239.5q0 156 -79.5 252t-221.5 96q-150 0 -231.5 -100.5t-81.5 -245.5z" />
<glyph unicode=":" horiz-adv-x="569" d="M170 90q0 47 34 81t81 34t80.5 -34t33.5 -81t-33.5 -81t-80.5 -34t-81 34t-34 81zM170 876.5q0 47.5 34 81t81 33.5t80.5 -33.5t33.5 -81t-33.5 -81t-80.5 -33.5t-81 33.5t-34 81z" />
<glyph unicode=";" horiz-adv-x="569" d="M29 -287l202 529l162 -78l-258 -496zM170 876.5q0 47.5 34 81t81 33.5t80.5 -33.5t33.5 -81t-33.5 -81t-80.5 -33.5t-81 33.5t-34 81z" />
<glyph unicode="&#x3c;" horiz-adv-x="1228" d="M96 459v119l1037 475v-127l-891 -408l891 -407v-127z" />
<glyph unicode="=" horiz-adv-x="1228" d="M96 256v119h1037v-119h-1037zM96 662v118h1037v-118h-1037z" />
<glyph unicode="&#x3e;" horiz-adv-x="1228" d="M96 -16v127l891 407l-891 408v127l1037 -475v-119z" />
<glyph unicode="?" d="M164 1139q0 74 17.5 140.5t58.5 136t127 111.5t206 42q174 0 288 -98.5t114 -286.5q0 -133 -58.5 -216t-193.5 -190q-147 -117 -148 -295v-133h-159v105q0 139 36.5 232t149.5 179q111 86 156 153.5t45 172.5q0 102 -62.5 167.5t-171.5 65.5q-123 0 -184 -76.5 t-61 -209.5h-160zM381 90q0 47 34 81t81 34t80.5 -34t33.5 -81t-33.5 -81t-80.5 -34t-81 34t-34 81z" />
<glyph unicode="@" horiz-adv-x="1638" d="M20 770q0 332 234.5 565.5t560.5 233.5q352 0 577.5 -201t225.5 -496q0 -240 -164 -410.5t-362 -170.5q-164 0 -177 145h-4q-129 -145 -272 -145q-141 0 -220 94t-79 233q0 152 62.5 292.5t183.5 233.5t268 93q166 0 236 -178h4l41 139h133l-199 -616q-35 -104 -35 -136 q0 -37 99 -36q137 0 251.5 122.5t114.5 346.5q0 272 -189.5 427.5t-490.5 155.5q-295 0 -487.5 -204.5t-192.5 -497.5q0 -295 195.5 -488.5t490.5 -193.5q182 0 337 74.5t249 205.5h131q-98 -180 -293.5 -283.5t-437.5 -103.5q-209 0 -386 90.5t-291 275.5t-114 433z M471 633q0 -109 54.5 -166t146.5 -57q141 0 246.5 160.5t105.5 334.5q0 109 -50 161t-126 52q-162 0 -269.5 -159.5t-107.5 -325.5z" />
<glyph unicode="A" horiz-adv-x="1368" d="M16 0l580 1540h176l580 -1540h-195l-153 434h-639l-154 -434h-195zM422 590h524l-260 733h-4z" />
<glyph unicode="B" horiz-adv-x="1251" d="M174 0v1540h496q193 0 305 -105.5t112 -254.5q0 -328 -249 -377v-4q133 -10 220 -104.5t87 -270.5q0 -178 -129 -301t-332 -123h-510zM346 156h322q143 0 224 80.5t81 199.5q0 109 -85 193t-259 84h-283v-557zM346 856h256q141 0 221 72.5t80 208.5q0 143 -75.5 201.5 t-219.5 58.5h-262v-541z" />
<glyph unicode="C" horiz-adv-x="1705" d="M129 770q0 346 223 572.5t559 226.5q174 0 306.5 -49.5t206 -131t113.5 -162.5t58 -173l-174 -13q-106 373 -510 373q-154 0 -272.5 -56.5t-187 -149.5t-103.5 -204.5t-35 -232.5q0 -123 32 -231.5t98.5 -203.5t186.5 -151.5t281 -56.5q412 0 521 426l174 -21 q-27 -109 -75 -200.5t-129 -176.5t-211 -134.5t-298 -49.5q-340 0 -552 217.5t-212 581.5z" />
<glyph unicode="D" horiz-adv-x="1593" d="M190 0v1540h478q176 0 316 -45t229.5 -118.5t146.5 -175t80.5 -205t23.5 -218.5q0 -147 -46 -284.5t-134 -249t-230.5 -178t-320.5 -66.5h-543zM362 156h338q188 0 323.5 92t196 230t60.5 302q0 121 -34 225.5t-104.5 191.5t-194.5 137t-290 50h-295v-1228z" />
<glyph unicode="E" d="M174 0v1540h868v-156h-696v-516h676v-155h-676v-557h696v-156h-868z" />
<glyph unicode="F" d="M174 0v1540h868v-156h-696v-516h676v-155h-676v-713h-172z" />
<glyph unicode="G" horiz-adv-x="1705" d="M129 770q0 156 49 297t141.5 255t242 180.5t333.5 66.5q258 0 435 -140.5t206 -332.5l-170 -17q-43 141 -161 237.5t-339 96.5q-262 0 -407.5 -182t-145.5 -469t152.5 -461t394.5 -174q139 0 244.5 51t163 136t87 173t38.5 185h-521v155h705q-2 -172 -43 -319.5 t-122 -271t-223 -194.5t-331 -71q-342 0 -535.5 219.5t-193.5 579.5z" />
<glyph unicode="H" horiz-adv-x="1478" d="M174 0v1540h172v-672h787v672h172v-1540h-172v713h-787v-713h-172z" />
<glyph unicode="I" horiz-adv-x="569" d="M199 0v1540h172v-1540h-172z" />
<glyph unicode="J" horiz-adv-x="909" d="M33 -10v153q63 -16 188 -16q182 0 262 94t80 279v884h-520v156h692v-1077q0 -225 -120.5 -358.5t-389.5 -133.5q-120 1 -192 19z" />
<glyph unicode="K" horiz-adv-x="1251" d="M174 0v1540h172v-727h4l643 727h232l-684 -737l694 -803h-238l-647 780h-4v-780h-172z" />
<glyph unicode="L" d="M174 0v1540h172v-1384h721v-156h-893z" />
<glyph unicode="M" horiz-adv-x="1933" d="M182 0v1540h203l582 -1298l581 1298h203v-1540h-172v1229h-4l-553 -1229h-111l-553 1219h-4v-1219h-172z" />
<glyph unicode="N" horiz-adv-x="1593" d="M182 0v1540h187l866 -1270h4v1270h172v-1540h-186l-867 1270h-4v-1270h-172z" />
<glyph unicode="O" horiz-adv-x="1822" d="M129 770q0 346 223 572.5t559 226.5q344 0 563.5 -217t219.5 -582q0 -346 -223.5 -572.5t-559.5 -226.5q-344 0 -563 217t-219 582zM313 770q0 -80 20.5 -165t66.5 -171t113 -153.5t170 -110.5t228 -43t228.5 43t170 110.5t112.5 153.5t66.5 171t20.5 165 q0 121 -34.5 232.5t-103 204.5t-187.5 149.5t-272.5 56.5t-272.5 -56.5t-187.5 -149.5t-103.5 -204.5t-35 -232.5z" />
<glyph unicode="P" horiz-adv-x="1251" d="M174 0v1540h490q236 0 369.5 -126t133.5 -349t-145 -347t-383 -124h-293v-594h-172zM346 750h266q162 0 266.5 76.5t104.5 240.5q0 162 -96 239.5t-260 77.5h-281v-634z" />
<glyph unicode="Q" horiz-adv-x="1822" d="M129 770q0 346 223 572.5t559 226.5q344 0 563.5 -217t219.5 -582q0 -317 -191 -537l201 -200l-102 -103l-205 205q-209 -164 -486 -164q-344 0 -563 217.5t-219 581.5zM313 770q0 -80 20.5 -165t66.5 -171t113 -153.5t170 -110.5t228 -43q220 0 367 127l-166 166 l102 102l162 -162q133 182 133 410q0 121 -34.5 232.5t-103 204.5t-187.5 149.5t-272.5 56.5t-272.5 -56.5t-187.5 -149.5t-103.5 -204.5t-35 -232.5z" />
<glyph unicode="R" horiz-adv-x="1251" d="M174 0v1540h477q147 0 255 -37t164 -99.5t82 -132t26 -151.5q0 -190 -101.5 -299.5t-249.5 -144.5l410 -676h-211l-379 659h-301v-659h-172zM346 815h307q156 0 248 73t92 208q0 288 -348 288h-2h-297v-569z" />
<glyph unicode="S" horiz-adv-x="1366" d="M123 426h174q45 -299 391 -299q184 0 277.5 87t93.5 204q0 123 -78 178t-289 100q-281 57 -403.5 150.5t-122.5 279.5q0 190 143.5 316.5t374.5 126.5q467 0 526 -430h-176q-8 109 -94 191.5t-254 82.5q-172 0 -260 -83t-88 -204q0 -88 73.5 -151.5t270.5 -102.5 q305 -59 433 -152t128 -285.5t-141 -328t-422 -135.5q-258 0 -401.5 120t-155.5 335z" />
<glyph unicode="T" d="M16 1384v156h1106v-156h-467v-1384h-172v1384h-467z" />
<glyph unicode="U" horiz-adv-x="1478" d="M174 510v1030h172v-1003q0 -205 105.5 -307.5t287.5 -102.5q174 0 284 110.5t110 333.5v969h172v-971q0 -291 -159 -444.5t-407 -153.5q-274 0 -419.5 146.5t-145.5 392.5z" />
<glyph unicode="V" horiz-adv-x="1253" d="M20 1540h195l414 -1300h4l414 1300h186l-522 -1540h-160z" />
<glyph unicode="W" horiz-adv-x="1933" d="M31 1540h182l303 -1274h4l367 1274h160l366 -1284h4l303 1284h183l-408 -1540h-156l-370 1286h-4l-371 -1286h-156z" />
<glyph unicode="X" horiz-adv-x="1253" d="M20 0l504 782l-485 758h219l377 -633l377 633h211l-488 -758l498 -782h-223l-387 651l-392 -651h-211z" />
<glyph unicode="Y" horiz-adv-x="1253" d="M14 1540h211l406 -758l397 758h211l-522 -911v-629h-172v629z" />
<glyph unicode="Z" horiz-adv-x="1251" d="M43 0v143l946 1241h-872v156h1091v-143l-946 -1241h924v-156h-1143z" />
<glyph unicode="[" horiz-adv-x="684" d="M213 -393v1995h389v-132h-229v-1732h229v-131h-389z" />
<glyph unicode="\" horiz-adv-x="796" d="M33 1569h131l600 -1598h-131z" />
<glyph unicode="]" horiz-adv-x="684" d="M82 -262h229v1732h-229v132h389v-1995h-389v131z" />
<glyph unicode="^" horiz-adv-x="1228" d="M96 608l459 908h119l459 -908h-132l-387 770l-387 -770h-131z" />
<glyph unicode="_" horiz-adv-x="1024" d="M0 -154h1024v-102h-1024v102z" />
<glyph unicode="`" horiz-adv-x="454" d="M18 1516h222l180 -291h-135z" />
<glyph unicode="a" d="M98 276q0 147 89 225.5t294 88.5q229 12 336 16v78q0 238 -260 238q-133 0 -193.5 -50.5t-76.5 -144.5h-158q47 326 430 326q205 0 311.5 -89.5t106.5 -254.5v-508q0 -68 14 -201h-174v135h-4q-49 -88 -144.5 -126t-199.5 -38q-174 0 -272.5 88t-98.5 217zM270 285 q0 -78 63.5 -130.5t170.5 -52.5q119 0 216 66.5t97 189.5v127l-270 -12q-137 -6 -207 -49t-70 -139z" />
<glyph unicode="b" horiz-adv-x="1251" d="M154 0v1540h159v-694h4q126 194 361 194h2q84 0 165 -30.5t151.5 -91t113.5 -166t43 -240.5q0 -238 -140.5 -389.5t-353.5 -151.5q-74 0 -134 19.5t-100 55.5t-62.5 64.5t-45.5 67.5h-4v-178h-159zM313 504q0 -166 92.5 -277.5t249.5 -111.5q156 0 241 112.5t85 280.5 q0 193 -94 291t-238 98q-139 0 -237.5 -101.5t-98.5 -291.5z" />
<glyph unicode="c" d="M98 508q0 248 154 396.5t369 148.5q176 0 298.5 -89.5t151.5 -265.5l-164 -16q-14 41 -28.5 70.5t-46 70.5t-84 63.5t-119.5 22.5q-156 0 -257.5 -110.5t-101.5 -292.5q0 -166 88 -278.5t263 -112.5q215 0 286 237l170 -20q-47 -156 -157.5 -258.5t-301.5 -102.5 q-244 0 -382 156t-138 381z" />
<glyph unicode="d" horiz-adv-x="1251" d="M98 512q0 135 43 240.5t114 166t151.5 91t164.5 30.5q236 0 363 -194h4v694h160v-1540h-160v178h-4q-23 -39 -45.5 -67.5t-62.5 -64.5t-100 -55.5t-134 -19.5q-213 0 -353.5 151.5t-140.5 389.5zM270 508q0 -168 85 -280.5t241 -112.5q158 0 250 111.5t92 277.5 q0 190 -98.5 291.5t-237.5 101.5q-143 0 -237.5 -98.5t-94.5 -290.5z" />
<glyph unicode="e" d="M98 473q0 260 133.5 420t356.5 160t356 -138.5t133 -394.5v-45h-807q0 -170 91.5 -265t226.5 -95h2q215 0 297 198l164 -24q-143 -317 -471 -318q-213 0 -347.5 143.5t-134.5 358.5zM274 606h631q-16 143 -97 223t-216 80q-145 0 -226.5 -92t-91.5 -211z" />
<glyph unicode="f" horiz-adv-x="684" d="M63 893v131h191v293q0 115 70.5 169t175.5 54q90 0 121 -6v-156q-27 6 -97 6q-111 0 -110 -102v-258h207v-131h-207v-893h-160v893h-191z" />
<glyph unicode="g" horiz-adv-x="1251" d="M98 524q0 233 142.5 381t347.5 148q104 0 195 -53.5t151 -149.5h4v174h160v-926q0 -528 -531 -528q-188 0 -305 89t-129 247l172 8q35 -201 266 -201q205 0 286 115t81 313v84h-4q-53 -117 -151.5 -171t-213.5 -54q-219 0 -345 147.5t-126 376.5zM270 539q0 -182 80 -289 t246 -107q135 0 238.5 102.5t103.5 295.5q0 152 -87 260t-249 108q-145 0 -238.5 -96t-93.5 -274z" />
<glyph unicode="h" d="M154 0v1540h159v-690h4q100 190 326 190q53 0 106.5 -15t109.5 -51t91 -109.5t35 -176.5v-688h-160v618q0 147 -63.5 213t-161.5 66q-119 0 -203 -87t-84 -241v-569h-159z" />
<glyph unicode="i" horiz-adv-x="454" d="M106 1419q0 51 35 86t86.5 35t86 -35t34.5 -86t-34.5 -86t-86 -35t-86.5 35t-35 86zM147 0v1024h160v-1024h-160z" />
<glyph unicode="j" horiz-adv-x="454" d="M-51 -287h51q80 0 113.5 35t33.5 129v1147h160v-1157q0 -156 -68.5 -226.5t-238.5 -70.5h-51v143zM106 1419q0 51 35 86t86.5 35t86 -35t34.5 -86t-34.5 -86t-86 -35t-86.5 35t-35 86z" />
<glyph unicode="k" horiz-adv-x="1024" d="M154 0v1540h159v-969l459 453h219l-495 -467l503 -557h-223l-463 539v-539h-159z" />
<glyph unicode="l" horiz-adv-x="454" d="M147 0v1540h160v-1540h-160z" />
<glyph unicode="m" horiz-adv-x="1708" d="M154 0v1024h157v-164h4q51 82 120 131t188 49q213 0 282 -200q49 98 120 149t194 51q166 0 250.5 -87t84.5 -253v-700h-159v657q0 129 -51.5 184.5t-169.5 55.5q-96 0 -168 -78t-72 -201v-618h-160v657q0 127 -50 183.5t-165 56.5q-100 0 -173 -78t-73 -201v-618h-159z " />
<glyph unicode="n" d="M154 0v1024h159v-174h4q100 190 326 190q53 0 106.5 -15t109.5 -51t91 -109.5t35 -176.5v-688h-160v618q0 147 -63.5 213t-161.5 66q-119 0 -203 -87t-84 -241v-569h-159z" />
<glyph unicode="o" horiz-adv-x="1253" d="M98 512q0 219 141.5 380t387.5 161q260 0 394 -158t134 -383q0 -219 -141.5 -380t-386.5 -161q-260 0 -394.5 158t-134.5 383zM270 512q0 -176 96.5 -286.5t260.5 -110.5t260 110.5t96 286.5t-96 286.5t-260 110.5t-260.5 -110.5t-96.5 -286.5z" />
<glyph unicode="p" horiz-adv-x="1251" d="M154 -430v1454h159v-178h4q126 194 361 194h2q84 0 165 -30.5t151.5 -91t113.5 -166t43 -240.5q0 -238 -140.5 -389.5t-353.5 -151.5q-125 0 -211 56.5t-131 138.5h-4v-596h-159zM313 504q0 -166 92.5 -277.5t249.5 -111.5q156 0 241 112.5t85 280.5q0 193 -94 291 t-238 98q-139 0 -237.5 -101.5t-98.5 -291.5z" />
<glyph unicode="q" horiz-adv-x="1251" d="M98 512q0 135 43 240.5t114 166t151.5 91t164.5 30.5q236 0 363 -194h4v178h160v-1454h-160v596h-4q-45 -82 -131 -138.5t-211 -56.5q-213 0 -353.5 151.5t-140.5 389.5zM270 508q0 -168 85 -280.5t241 -112.5q158 0 250 111.5t92 277.5q0 190 -98.5 291.5t-237.5 101.5 q-143 0 -237.5 -98t-94.5 -291z" />
<glyph unicode="r" horiz-adv-x="684" d="M154 0v1024h155v-225h4q92 241 293 241h2h58v-168h-52q-301 0 -301 -385v-487h-159z" />
<glyph unicode="s" horiz-adv-x="1024" d="M78 301h160q6 -78 68.5 -132t201.5 -54q124 0 202 42q76 41 76 113q0 66 -62 100q-60 33 -247 64q-176 31 -273.5 96.5t-97.5 202.5q0 147 116 233.5t304 86.5q174 0 286 -92t112 -242h-160q-6 82 -66.5 136t-185.5 54q-111 0 -178.5 -43t-67.5 -116q0 -72 61.5 -112 t207.5 -63q213 -35 312 -98t99 -194q0 -127 -106.5 -219.5t-327.5 -92.5q-397 0 -434 330z" />
<glyph unicode="t" horiz-adv-x="684" d="M63 893v131h191v299h160v-299h207v-131h-207v-629q0 -70 22.5 -101.5t75.5 -31.5q61 0 106 6v-143q-86 -6 -161 -6q-109 0 -156 55t-47 203v647h-191z" />
<glyph unicode="u" d="M154 350v674h159v-631q0 -147 63.5 -212.5t162.5 -65.5q119 0 202.5 87t83.5 240v582h160v-1024h-160v162h-4q-100 -190 -325 -191q-137 0 -239.5 87t-102.5 292z" />
<glyph unicode="v" horiz-adv-x="1024" d="M16 1024h181l313 -795h4l322 795h172l-426 -1024h-146z" />
<glyph unicode="w" horiz-adv-x="1593" d="M33 1024h176l254 -782h4l254 782h151l261 -782h4l254 782h170l-353 -1024h-157l-252 782h-4l-250 -782h-156z" />
<glyph unicode="x" horiz-adv-x="1024" d="M16 0l394 528l-369 496h213l270 -410l271 410h200l-377 -496l390 -528h-209l-283 422l-301 -422h-199z" />
<glyph unicode="y" horiz-adv-x="1024" d="M16 1024h183l313 -848h4l315 848h177l-598 -1454h-174l196 450z" />
<glyph unicode="z" horiz-adv-x="909" d="M57 0v139l596 742h-575v143h774v-139l-596 -742h596v-143h-795z" />
<glyph unicode="{" horiz-adv-x="684" d="M143 545v119q72 0 108 62t36 208v455q0 100 57 156.5t174 56.5h84v-119h-43q-113 0 -113 -119v-442q0 -248 -155 -316v-4q156 -68 155 -315v-443q0 -119 113 -118h43v-119h-84q-117 0 -174 56t-57 157v454q0 145 -36 208t-108 63z" />
<glyph unicode="|" horiz-adv-x="454" d="M168 -29v1598h119v-1598h-119z" />
<glyph unicode="}" horiz-adv-x="684" d="M82 -274h43q113 0 113 118v443q0 248 155 315v4q-156 68 -155 316v442q0 119 -113 119h-43v119h84q117 0 174 -56.5t57 -156.5v-455q0 -145 36 -207.5t108 -62.5v-119q-72 0 -108 -62.5t-36 -208.5v-454q0 -100 -57 -156.5t-174 -56.5h-84v119z" />
<glyph unicode="~" horiz-adv-x="1228" d="M141 469q92 176 256 176q78 0 236 -67q160 -68 201 -68q55 0 95 37t85 106l73 -86q-92 -176 -256 -176q-78 0 -235 68q-160 68 -201 67q-55 0 -95 -36.5t-85 -106.5z" />
<glyph unicode="&#xa1;" horiz-adv-x="684" d="M227 1020q0 47 34 81t81 34t81 -34t34 -81t-34 -81t-81 -34t-81 34t-34 81zM262 -430v1190h160v-1190h-160z" />
<glyph unicode="&#xa2;" d="M80 508q0 227 131 372.5t324 166.5v141h94v-135q168 -8 281.5 -97.5t142.5 -257.5l-164 -16q-70 215 -260 227v-790q195 12 260 233l170 -20q-45 -147 -148.5 -248.5t-281.5 -108.5v-227h-94v227q-215 23 -335 174.5t-120 358.5zM252 506q0 -147 72 -254.5t211 -130.5 v780q-127 -25 -205 -130t-78 -265z" />
<glyph unicode="&#xa3;" d="M72 113q125 55 197.5 171.5t72.5 227.5q0 113 -39 205h-225v106h172q-96 141 -96 305q0 174 126 293t312 119q123 0 213 -35t137 -96t68.5 -125.5t25.5 -138.5l-172 -12q-8 129 -77.5 196.5t-184.5 67.5q-121 0 -192.5 -73t-71.5 -198q0 -106 98 -303h432v-106h-391 q25 -88 25 -162q0 -119 -55.5 -209t-151.5 -178l4 -4q80 31 174 31q63 0 186 -33q115 -31 166 -31q115 0 191 66l51 -154q-106 -68 -254 -68q-80 0 -199 35q-135 41 -235 41q-158 0 -242 -80z" />
<glyph unicode="&#xa4;" d="M57 330l115 114q-111 133 -111 313.5t111 313.5l-115 115l84 84l115 -115q137 111 313 111q180 0 314 -111l114 115l84 -84l-114 -115q111 -137 110.5 -313t-110.5 -314l114 -114l-84 -84l-114 114q-137 -111 -313.5 -110.5t-313.5 110.5l-115 -114zM193 758 q0 -160 111.5 -274.5t265 -114.5t265 114.5t111.5 274.5t-111.5 274.5t-265 114.5t-265 -114.5t-111.5 -274.5z" />
<glyph unicode="&#xa5;" d="M14 1516h205l350 -746l351 746h204l-407 -775h233v-118h-295l-6 -11v-155h301v-119h-301v-338h-160v338h-301v119h301v155l-6 11h-295v118h234z" />
<glyph unicode="&#xa6;" horiz-adv-x="454" d="M168 -29v598h119v-598h-119zM168 971v598h119v-598h-119z" />
<glyph unicode="&#xa7;" d="M125 555q0 125 68.5 214t187.5 120v4q-211 61 -211 317q0 150 111.5 254.5t296.5 104.5q176 0 282.5 -95.5t112.5 -259.5h-172q-18 211 -228 211q-119 0 -175 -67.5t-56 -147.5q0 -88 50 -144t124 -77.5t162 -49.5t161.5 -59.5t124 -108.5t50.5 -193q0 -127 -79 -225.5 t-179 -112.5v-4q113 -31 170 -113t57 -189q0 -176 -114.5 -284.5t-301.5 -108.5q-385 0 -411 359h172q2 -104 68.5 -159.5t156.5 -55.5q125 0 191.5 62.5t66.5 160.5q0 106 -70.5 162.5t-171 80t-202 53t-172 116t-70.5 235.5zM297 563q0 -98 68.5 -169.5t203.5 -71.5 q123 0 198 68t75 179q0 102 -75 168t-206 66q-127 0 -195.5 -69.5t-68.5 -170.5z" />
<glyph unicode="&#xa8;" horiz-adv-x="454" d="M-98 1352q0 47 33.5 80.5t80.5 33.5t81 -33.5t34 -80.5t-34 -81t-81 -34t-80.5 34t-33.5 81zM324 1352q0 47 33.5 80.5t80.5 33.5t81 -33.5t34 -80.5t-34 -81t-81 -34t-80.5 34t-33.5 81z" />
<glyph unicode="&#xa9;" horiz-adv-x="1638" d="M20 770q0 330 234.5 564.5t564.5 234.5t564.5 -234.5t234.5 -564.5t-234.5 -564.5t-564.5 -234.5t-564.5 234.5t-234.5 564.5zM139 770q0 -297 195.5 -494.5t484.5 -197.5t484.5 197.5t195.5 494.5t-195.5 494.5t-484.5 197.5t-484.5 -197.5t-195.5 -494.5zM362 774 q0 221 128 360.5t350 139.5q160 0 272.5 -88t132.5 -246h-125q-20 98 -95 162.5t-183 64.5q-174 0 -267.5 -107.5t-93.5 -283.5q0 -182 94.5 -289.5t270.5 -107.5q109 0 183.5 66.5t90.5 166.5h125q-33 -154 -141.5 -247t-257.5 -93q-219 0 -351.5 142.5t-132.5 359.5z" />
<glyph unicode="&#xaa;" horiz-adv-x="739" d="M74 1090q0 182 248 190l213 8v53q0 145 -164 146q-154 0 -176 -117h-119q33 199 297 199q280 0 280 -211v-316q0 -49 13 -122h-125v81h-4q-57 -98 -232 -98q-96 0 -163.5 51.5t-67.5 135.5zM193 1102q0 -55 41.5 -86t107.5 -31q76 0 134.5 41t58.5 115v78l-201 -9 q-141 -4 -141 -108z" />
<glyph unicode="&#xab;" d="M207 541l225 368h143l-229 -368l223 -377h-143zM563 541l225 368h144l-230 -368l224 -377h-144z" />
<glyph unicode="&#xac;" horiz-adv-x="1228" d="M96 662v118h1037v-559h-119v441h-918z" />
<glyph unicode="&#xad;" horiz-adv-x="684" d="M90 459v155h504v-155h-504z" />
<glyph unicode="&#xae;" horiz-adv-x="1638" d="M20 770q0 330 234.5 564.5t564.5 234.5t564.5 -234.5t234.5 -564.5t-234.5 -564.5t-564.5 -234.5t-564.5 234.5t-234.5 564.5zM139 770q0 -297 195.5 -494.5t484.5 -197.5t484.5 197.5t195.5 494.5t-195.5 494.5t-484.5 197.5t-484.5 -197.5t-195.5 -494.5zM508 301v944 h371q326 0 325 -266q0 -123 -70.5 -190.5t-177.5 -81.5l267 -406h-144l-258 404h-194v-404h-119zM627 811h209q129 0 189 33t60 127q0 98 -52 133t-159 35h-247v-328z" />
<glyph unicode="&#xaf;" horiz-adv-x="454" d="M-53 1296v119h561v-119h-561z" />
<glyph unicode="&#xb0;" horiz-adv-x="819" d="M115 1245q0 123 86 209t208.5 86t209 -86t86.5 -209t-86.5 -209t-209 -86t-208.5 86t-86 209zM209 1245q0 -78 61.5 -139.5t139 -61.5t139 61.5t61.5 139.5t-61.5 139.5t-139 61.5t-139 -61.5t-61.5 -139.5z" />
<glyph unicode="&#xb1;" horiz-adv-x="1228" d="M96 0v119h1037v-119h-1037zM96 557v119h459v360h119v-360h459v-119h-459v-358h-119v358h-459z" />
<glyph unicode="&#xb2;" horiz-adv-x="739" d="M68 614v119l313 297q160 152 160 258q0 133 -166 133q-178 0 -182 -174h-119q2 152 91 222.5t216 70.5q143 0 217 -66.5t74 -164.5q0 -170 -168 -326l-271 -250h439v-119h-604z" />
<glyph unicode="&#xb3;" horiz-adv-x="739" d="M43 854l119 8q14 -141 186 -141q88 0 140.5 48t52.5 132q0 86 -55.5 134t-139.5 48q-90 0 -131 -28l-10 4v102l280 273h-391v106h541v-106l-270 -260v-5q33 8 59 9q92 0 170 -71t78 -194q0 -127 -82 -213t-240 -86q-154 0 -223.5 61.5t-83.5 178.5z" />
<glyph unicode="&#xb4;" horiz-adv-x="454" d="M35 1225l180 291h221l-266 -291h-135z" />
<glyph unicode="&#xb5;" d="M154 -430v1454h159v-631q0 -147 63.5 -212.5t162.5 -65.5q119 0 202.5 87t83.5 240v582h160v-1024h-160v162h-4q-100 -190 -325 -191q-113 0 -183 82v-483h-159z" />
<glyph unicode="&#xb6;" horiz-adv-x="1228" d="M117 1143q0 193 120.5 295t327.5 102h479v-1970h-147v1864h-205v-1864h-147v1188q-188 0 -308 106.5t-120 278.5z" />
<glyph unicode="&#xb7;" horiz-adv-x="569" d="M164 669.5q0 51.5 34.5 86.5t86 35t86.5 -35t35 -86.5t-35 -86t-86.5 -34.5t-86 34.5t-34.5 86z" />
<glyph unicode="&#xb8;" horiz-adv-x="454" d="M8 -414l33 88q61 -39 133 -39q113 0 113 80q0 86 -90 86q-47 1 -84 -22l-35 43l129 178h98l-94 -127h4q27 10 78 10q66 0 109.5 -44t43.5 -105q0 -96 -74.5 -144.5t-174.5 -48.5q-66 0 -189 45z" />
<glyph unicode="&#xb9;" horiz-adv-x="739" d="M147 1260v114q63 20 141.5 73.5t114.5 92.5h76v-926h-131v746q-86 -63 -201 -100z" />
<glyph unicode="&#xba;" horiz-adv-x="815" d="M63 1237q0 135 92.5 233.5t252.5 98.5q170 0 257 -96.5t87 -235.5q0 -137 -92.5 -235.5t-251.5 -98.5q-170 0 -257.5 96.5t-87.5 237.5zM182 1237q0 -106 61.5 -173t164 -67t164 66.5t61.5 173.5q0 104 -61.5 171t-164 67t-164 -67t-61.5 -171z" />
<glyph unicode="&#xbb;" d="M207 164l229 368l-223 377h143l219 -377l-225 -368h-143zM563 164l230 368l-224 377h144l219 -377l-225 -368h-144z" />
<glyph unicode="&#xbc;" horiz-adv-x="1708" d="M82 1260v114q63 20 141 73.5t115 92.5h76v-926h-131v746q-86 -63 -201 -100zM272 -25l947 1565h137l-946 -1565h-138zM963 223v109l428 594h127v-584h108v-119h-108v-223h-132v223h-423zM1096 342h290v403h-4z" />
<glyph unicode="&#xbd;" horiz-adv-x="1708" d="M82 1260v114q63 20 141 73.5t115 92.5h76v-926h-131v746q-86 -63 -201 -100zM190 -25l947 1565h137l-946 -1565h-138zM1022 0v119l313 297q160 152 160 258q0 133 -166 133q-178 0 -182 -174h-119q2 152 91 222.5t216 70.5q143 0 217 -66.5t74 -165.5q0 -170 -168 -325 l-270 -250h438v-119h-604z" />
<glyph unicode="&#xbe;" horiz-adv-x="1708" d="M82 854l119 8q14 -141 186 -141q88 0 140.5 48t52.5 132q0 86 -55.5 134t-139.5 48q-90 0 -131 -28l-10 4v102l280 273h-391v106h541v-106l-271 -260v-5q33 8 60 9q94 0 171 -71t77 -194q0 -127 -82 -213t-240 -86q-154 0 -223.5 61.5t-83.5 178.5zM375 -25l946 1565h137 l-946 -1565h-137zM963 223v109l428 594h127v-584h108v-119h-108v-223h-132v223h-423zM1096 342h290v403h-4z" />
<glyph unicode="&#xbf;" d="M164 -74q0 133 58.5 216t193.5 190q147 117 147 295v133h160v-105q0 -139 -37 -232t-149 -179q-111 -86 -156 -153.5t-45 -172.5q0 -102 62.5 -167.5t170.5 -65.5q123 0 184.5 76.5t61.5 209.5h160q0 -74 -17.5 -140.5t-58.5 -136t-127 -111.5t-207 -42 q-174 0 -287.5 98.5t-113.5 286.5zM528 1020q0 47 34 81t81 34t81 -34t34 -81t-34 -81t-81 -34t-81 34t-34 81z" />
<glyph unicode="&#xc0;" horiz-adv-x="1368" d="M16 0l580 1540h176l580 -1540h-195l-153 434h-639l-154 -434h-195zM383 1909h222l180 -291h-135zM422 590h524l-260 733h-4z" />
<glyph unicode="&#xc1;" horiz-adv-x="1368" d="M16 0l580 1540h176l580 -1540h-195l-153 434h-639l-154 -434h-195zM422 590h524l-260 733h-4zM563 1618l180 291h221l-266 -291h-135z" />
<glyph unicode="&#xc2;" horiz-adv-x="1368" d="M16 0l580 1540h176l580 -1540h-195l-153 434h-639l-154 -434h-195zM385 1618l203 291h188l207 -291h-166l-135 190l-135 -190h-162zM422 590h524l-260 733h-4z" />
<glyph unicode="&#xc3;" horiz-adv-x="1368" d="M16 0l580 1540h176l580 -1540h-195l-153 434h-639l-154 -434h-195zM336 1634q27 225 213 225q66 0 158 -34q111 -43 131 -43q45 0 66.5 29.5t23.5 64.5h104q-27 -225 -213 -226q-66 0 -157 35q-111 43 -131 43q-45 0 -66.5 -29.5t-23.5 -64.5h-105zM422 590h524l-260 733 h-4z" />
<glyph unicode="&#xc4;" horiz-adv-x="1368" d="M16 0l580 1540h176l580 -1540h-195l-153 434h-639l-154 -434h-195zM359 1745q0 47 33.5 80.5t80.5 33.5t81 -33.5t34 -80.5t-34 -81t-81 -34t-80.5 34t-33.5 81zM422 590h524l-260 733h-4zM781 1745q0 47 33.5 80.5t80.5 33.5t81 -33.5t34 -80.5t-34 -81t-81 -34 t-80.5 34t-33.5 81z" />
<glyph unicode="&#xc5;" horiz-adv-x="1368" d="M16 0l580 1540h176l580 -1540h-195l-153 434h-639l-154 -434h-195zM422 590h524l-260 733h-4zM475 1794q0 86 61.5 147.5t147.5 61.5t147.5 -61.5t61.5 -147.5t-61.5 -147.5t-147.5 -61.5t-147.5 61.5t-61.5 147.5zM557 1794q0 -53 38 -90t89.5 -37t89 37t37.5 90 t-37.5 90t-89 37t-89.5 -37t-38 -90z" />
<glyph unicode="&#xc6;" horiz-adv-x="1933" d="M-2 0l874 1540h936v-156h-659v-516h639v-155h-639v-557h659v-156h-831v381h-574l-206 -381h-199zM487 537h490v897h-4z" />
<glyph unicode="&#xc7;" horiz-adv-x="1705" d="M129 770q0 346 223 572.5t559 226.5q174 0 306.5 -49.5t206 -131t113.5 -162.5t58 -173l-174 -13q-106 373 -510 373q-154 0 -272.5 -56.5t-187 -149.5t-103.5 -204.5t-35 -232.5q0 -123 32 -231.5t98.5 -203.5t186.5 -151.5t281 -56.5q412 0 521 426l174 -21 q-27 -109 -75 -200.5t-129 -176.5t-211 -134.5t-298 -49.5q-340 0 -552 217.5t-212 581.5zM676 -414l33 88q61 -39 133 -39q113 0 113 80q0 86 -90 86q-47 1 -84 -22l-35 43l129 178h98l-94 -127h4q27 10 78 10q66 0 109.5 -44t43.5 -105q0 -96 -74.5 -144.5t-174.5 -48.5 q-66 0 -189 45z" />
<glyph unicode="&#xc8;" d="M174 0v1540h868v-156h-696v-516h676v-155h-676v-557h696v-156h-868zM340 1909h222l180 -291h-135z" />
<glyph unicode="&#xc9;" d="M174 0v1540h868v-156h-696v-516h676v-155h-676v-557h696v-156h-868zM490 1618l180 291h221l-266 -291h-135z" />
<glyph unicode="&#xca;" d="M174 0v1540h868v-156h-696v-516h676v-155h-676v-557h696v-156h-868zM270 1618l203 291h188l207 -291h-166l-135 190l-135 -190h-162z" />
<glyph unicode="&#xcb;" d="M174 0v1540h868v-156h-696v-516h676v-155h-676v-557h696v-156h-868zM244 1745q0 47 33.5 80.5t80.5 33.5t81 -33.5t34 -80.5t-34 -81t-81 -34t-80.5 34t-33.5 81zM666 1745q0 47 33.5 80.5t80.5 33.5t81 -33.5t34 -80.5t-34 -81t-81 -34t-80.5 34t-33.5 81z" />
<glyph unicode="&#xcc;" horiz-adv-x="569" d="M75 1909h222l180 -291h-135zM199 0v1540h172v-1540h-172z" />
<glyph unicode="&#xcd;" horiz-adv-x="569" d="M144 1618l180 291h221l-266 -291h-135zM199 0v1540h172v-1540h-172z" />
<glyph unicode="&#xce;" horiz-adv-x="569" d="M-15 1618l203 291h188l207 -291h-166l-135 190l-135 -190h-162zM199 0v1540h172v-1540h-172z" />
<glyph unicode="&#xcf;" horiz-adv-x="569" d="M-92 1745q0 47 33.5 80.5t80.5 33.5t81 -33.5t34 -80.5t-34 -81t-81 -34t-80.5 34t-33.5 81zM199 0v1540h172v-1540h-172zM330 1745q0 47 33.5 80.5t80.5 33.5t81 -33.5t34 -80.5t-34 -81t-81 -34t-80.5 34t-33.5 81z" />
<glyph unicode="&#xd0;" horiz-adv-x="1593" d="M70 743v144h120v653h478q176 0 316 -45t229.5 -118.5t146.5 -175t80.5 -205t23.5 -218.5q0 -147 -46 -284.5t-134 -249t-230.5 -178t-320.5 -66.5h-543v743h-120zM362 156h338q188 0 323.5 92t196 230t60.5 302q0 121 -34 225.5t-104.5 191.5t-194.5 137t-290 50h-295 v-497h476v-144h-476v-587z" />
<glyph unicode="&#xd1;" horiz-adv-x="1593" d="M182 0v1540h187l866 -1270h4v1270h172v-1540h-186l-867 1270h-4v-1270h-172zM448 1634q27 225 213 225q66 0 158 -34q111 -43 131 -43q45 0 66.5 29.5t23.5 64.5h104q-27 -225 -213 -226q-66 0 -157 35q-111 43 -131 43q-45 0 -66.5 -29.5t-23.5 -64.5h-105z" />
<glyph unicode="&#xd2;" horiz-adv-x="1822" d="M129 770q0 346 223 572.5t559 226.5q344 0 563.5 -217t219.5 -582q0 -346 -223.5 -572.5t-559.5 -226.5q-344 0 -563 217t-219 582zM313 770q0 -80 20.5 -165t66.5 -171t113 -153.5t170 -110.5t228 -43t228.5 43t170 110.5t112.5 153.5t66.5 171t20.5 165 q0 121 -34.5 232.5t-103 204.5t-187.5 149.5t-272.5 56.5t-272.5 -56.5t-187.5 -149.5t-103.5 -204.5t-35 -232.5zM630 1909h222l180 -291h-135z" />
<glyph unicode="&#xd3;" horiz-adv-x="1822" d="M129 770q0 346 223 572.5t559 226.5q344 0 563.5 -217t219.5 -582q0 -346 -223.5 -572.5t-559.5 -226.5q-344 0 -563 217t-219 582zM313 770q0 -80 20.5 -165t66.5 -171t113 -153.5t170 -110.5t228 -43t228.5 43t170 110.5t112.5 153.5t66.5 171t20.5 165 q0 121 -34.5 232.5t-103 204.5t-187.5 149.5t-272.5 56.5t-272.5 -56.5t-187.5 -149.5t-103.5 -204.5t-35 -232.5zM791 1618l180 291h221l-266 -291h-135z" />
<glyph unicode="&#xd4;" horiz-adv-x="1822" d="M129 770q0 346 223 572.5t559 226.5q344 0 563.5 -217t219.5 -582q0 -346 -223.5 -572.5t-559.5 -226.5q-344 0 -563 217t-219 582zM313 770q0 -80 20.5 -165t66.5 -171t113 -153.5t170 -110.5t228 -43t228.5 43t170 110.5t112.5 153.5t66.5 171t20.5 165 q0 121 -34.5 232.5t-103 204.5t-187.5 149.5t-272.5 56.5t-272.5 -56.5t-187.5 -149.5t-103.5 -204.5t-35 -232.5zM612 1618l203 291h188l207 -291h-166l-135 190l-135 -190h-162z" />
<glyph unicode="&#xd5;" horiz-adv-x="1822" d="M129 770q0 346 223 572.5t559 226.5q344 0 563.5 -217t219.5 -582q0 -346 -223.5 -572.5t-559.5 -226.5q-344 0 -563 217t-219 582zM313 770q0 -80 20.5 -165t66.5 -171t113 -153.5t170 -110.5t228 -43t228.5 43t170 110.5t112.5 153.5t66.5 171t20.5 165 q0 121 -34.5 232.5t-103 204.5t-187.5 149.5t-272.5 56.5t-272.5 -56.5t-187.5 -149.5t-103.5 -204.5t-35 -232.5zM563 1634q27 225 213 225q66 0 158 -34q111 -43 131 -43q45 0 66.5 29.5t23.5 64.5h104q-27 -225 -213 -226q-66 0 -157 35q-111 43 -131 43 q-45 0 -66.5 -29.5t-23.5 -64.5h-105z" />
<glyph unicode="&#xd6;" horiz-adv-x="1822" d="M129 770q0 346 223 572.5t559 226.5q344 0 563.5 -217t219.5 -582q0 -346 -223.5 -572.5t-559.5 -226.5q-344 0 -563 217t-219 582zM313 770q0 -80 20.5 -165t66.5 -171t113 -153.5t170 -110.5t228 -43t228.5 43t170 110.5t112.5 153.5t66.5 171t20.5 165 q0 121 -34.5 232.5t-103 204.5t-187.5 149.5t-272.5 56.5t-272.5 -56.5t-187.5 -149.5t-103.5 -204.5t-35 -232.5zM586 1745q0 47 33.5 80.5t80.5 33.5t81 -33.5t34 -80.5t-34 -81t-81 -34t-80.5 34t-33.5 81zM1008 1745q0 47 33.5 80.5t80.5 33.5t81 -33.5t34 -80.5 t-34 -81t-81 -34t-80.5 34t-33.5 81z" />
<glyph unicode="&#xd7;" horiz-adv-x="1228" d="M150 137l380 381l-380 381l83 84l379 -383l383 383l84 -84l-383 -381l383 -381l-84 -84l-383 383l-379 -383z" />
<glyph unicode="&#xd8;" horiz-adv-x="1822" d="M125 49l184 184q-180 213 -180 537q0 346 223 572.5t559 226.5q328 0 537 -193l182 185l68 -70l-182 -184q178 -213 178 -537q0 -346 -223.5 -572.5t-559.5 -226.5q-328 0 -536 193l-182 -184zM313 770q0 -225 129 -403l885 888q-158 158 -416 158q-154 0 -272.5 -56.5 t-187 -149.5t-103.5 -204.5t-35 -232.5zM504 293q160 -166 407 -166q125 0 228.5 43t170 110.5t112.5 153.5t66.5 171t20.5 165q1 246 -118 412z" />
<glyph unicode="&#xd9;" horiz-adv-x="1478" d="M174 510v1030h172v-1003q0 -205 105.5 -307.5t287.5 -102.5q174 0 284 110.5t110 333.5v969h172v-971q0 -291 -159 -444.5t-407 -153.5q-274 0 -419.5 146.5t-145.5 392.5zM469 1909h222l180 -291h-135z" />
<glyph unicode="&#xda;" horiz-adv-x="1478" d="M174 510v1030h172v-1003q0 -205 105.5 -307.5t287.5 -102.5q174 0 284 110.5t110 333.5v969h172v-971q0 -291 -159 -444.5t-407 -153.5q-274 0 -419.5 146.5t-145.5 392.5zM619 1618l180 291h221l-266 -291h-135z" />
<glyph unicode="&#xdb;" horiz-adv-x="1478" d="M174 510v1030h172v-1003q0 -205 105.5 -307.5t287.5 -102.5q174 0 284 110.5t110 333.5v969h172v-971q0 -291 -159 -444.5t-407 -153.5q-274 0 -419.5 146.5t-145.5 392.5zM440 1618l203 291h188l207 -291h-166l-135 190l-135 -190h-162z" />
<glyph unicode="&#xdc;" horiz-adv-x="1478" d="M174 510v1030h172v-1003q0 -205 105.5 -307.5t287.5 -102.5q174 0 284 110.5t110 333.5v969h172v-971q0 -291 -159 -444.5t-407 -153.5q-274 0 -419.5 146.5t-145.5 392.5zM414 1745q0 47 33.5 80.5t80.5 33.5t81 -33.5t34 -80.5t-34 -81t-81 -34t-80.5 34t-33.5 81z M836 1745q0 47 33.5 80.5t80.5 33.5t81 -33.5t34 -80.5t-34 -81t-81 -34t-80.5 34t-33.5 81z" />
<glyph unicode="&#xdd;" horiz-adv-x="1253" d="M14 1540h211l406 -758l397 758h211l-522 -911v-629h-172v629zM496 1618l180 291h221l-266 -291h-135z" />
<glyph unicode="&#xde;" horiz-adv-x="1251" d="M174 0v1540h172v-278h318q236 0 369.5 -126t133.5 -350q0 -219 -137 -345t-336 -126h-348v-315h-172zM346 471h266q162 0 266.5 77t104.5 240q0 162 -96 240t-260 78h-281v-635z" />
<glyph unicode="&#xdf;" d="M154 0v1165q0 176 102 290t301 114q150 0 272.5 -94.5t122.5 -270.5q0 -260 -219 -330v-4q293 -76 293 -399q0 -197 -126 -340t-325 -143q-59 0 -133 16v143q106 -16 115 -16q111 0 204 90t93 264q0 145 -88 228.5t-231 83.5h-56v143h70q109 0 176.5 63.5t67.5 178.5 q0 111 -63.5 177t-186.5 66q-106 0 -168 -74.5t-62 -205.5v-1145h-159z" />
<glyph unicode="&#xe0;" d="M98 276q0 147 89 225.5t294 88.5q229 12 336 16v78q0 238 -260 238q-133 0 -193.5 -50.5t-76.5 -144.5h-158q47 326 430 326q205 0 311.5 -89.5t106.5 -254.5v-508q0 -68 14 -201h-174v135h-4q-49 -88 -144.5 -126t-199.5 -38q-174 0 -272.5 88t-98.5 217zM270 285 q0 -78 63.5 -130.5t170.5 -52.5q119 0 216 66.5t97 189.5v127l-270 -12q-137 -6 -207 -49t-70 -139zM299 1516h222l180 -291h-135z" />
<glyph unicode="&#xe1;" d="M98 276q0 147 89 225.5t294 88.5q229 12 336 16v78q0 238 -260 238q-133 0 -193.5 -50.5t-76.5 -144.5h-158q47 326 430 326q205 0 311.5 -89.5t106.5 -254.5v-508q0 -68 14 -201h-174v135h-4q-49 -88 -144.5 -126t-199.5 -38q-174 0 -272.5 88t-98.5 217zM270 285 q0 -78 63.5 -130.5t170.5 -52.5q119 0 216 66.5t97 189.5v127l-270 -12q-137 -6 -207 -49t-70 -139zM438 1225l180 291h221l-266 -291h-135z" />
<glyph unicode="&#xe2;" d="M98 276q0 147 89 225.5t294 88.5q229 12 336 16v78q0 238 -260 238q-133 0 -193.5 -50.5t-76.5 -144.5h-158q47 326 430 326q205 0 311.5 -89.5t106.5 -254.5v-508q0 -68 14 -201h-174v135h-4q-49 -88 -144.5 -126t-199.5 -38q-174 0 -272.5 88t-98.5 217zM270 285 q0 -78 63.5 -130.5t170.5 -52.5q119 0 216 66.5t97 189.5v127l-270 -12q-137 -6 -207 -49t-70 -139zM270 1225l203 291h188l207 -291h-166l-135 190l-135 -190h-162z" />
<glyph unicode="&#xe3;" d="M98 276q0 147 89 225.5t294 88.5q229 12 336 16v78q0 238 -260 238q-133 0 -193.5 -50.5t-76.5 -144.5h-158q47 326 430 326q205 0 311.5 -89.5t106.5 -254.5v-508q0 -68 14 -201h-174v135h-4q-49 -88 -144.5 -126t-199.5 -38q-174 0 -272.5 88t-98.5 217zM221 1241 q27 225 213 225q66 0 158 -34q111 -43 131 -43q45 0 66.5 29.5t23.5 64.5h104q-27 -225 -213 -226q-66 0 -157 35q-111 43 -131 43q-45 0 -66.5 -29.5t-23.5 -64.5h-105zM270 285q0 -78 63.5 -130.5t170.5 -52.5q119 0 216 66.5t97 189.5v127l-270 -12q-137 -6 -207 -49 t-70 -139z" />
<glyph unicode="&#xe4;" d="M98 276q0 147 89 225.5t294 88.5q229 12 336 16v78q0 238 -260 238q-133 0 -193.5 -50.5t-76.5 -144.5h-158q47 326 430 326q205 0 311.5 -89.5t106.5 -254.5v-508q0 -68 14 -201h-174v135h-4q-49 -88 -144.5 -126t-199.5 -38q-174 0 -272.5 88t-98.5 217zM244 1352 q0 47 33.5 80.5t80.5 33.5t81 -33.5t34 -80.5t-34 -81t-81 -34t-80.5 34t-33.5 81zM270 285q0 -78 63.5 -130.5t170.5 -52.5q119 0 216 66.5t97 189.5v127l-270 -12q-137 -6 -207 -49t-70 -139zM666 1352q0 47 33.5 80.5t80.5 33.5t81 -33.5t34 -80.5t-34 -81t-81 -34 t-80.5 34t-33.5 81z" />
<glyph unicode="&#xe5;" d="M98 276q0 147 89 225.5t294 88.5q229 12 336 16v78q0 238 -260 238q-133 0 -193.5 -50.5t-76.5 -144.5h-158q47 326 430 326q205 0 311.5 -89.5t106.5 -254.5v-508q0 -68 14 -201h-174v135h-4q-49 -88 -144.5 -126t-199.5 -38q-174 0 -272.5 88t-98.5 217zM270 285 q0 -78 63.5 -130.5t170.5 -52.5q119 0 216 66.5t97 189.5v127l-270 -12q-137 -6 -207 -49t-70 -139zM360 1401q0 86 61.5 147.5t147.5 61.5t147.5 -61.5t61.5 -147.5t-61.5 -147.5t-147.5 -61.5t-147.5 61.5t-61.5 147.5zM442 1401q0 -53 38 -90t89.5 -37t89 37t37.5 90 t-37.5 90t-89 37t-89.5 -37t-38 -90z" />
<glyph unicode="&#xe6;" horiz-adv-x="1820" d="M98 268q0 141 89 226.5t259 99.5q114 8 347 12v35q0 268 -254 268q-211 0 -248 -184l-160 4q25 141 126 232.5t288 91.5q266 0 342 -199q119 199 389 199q193 0 319.5 -133.5t126.5 -403.5v-41h-770q0 -70 13.5 -128t45 -113.5t94 -87t150.5 -31.5q127 0 195 59t98 170 l166 -18q-49 -152 -164.5 -253.5t-285.5 -101.5q-158 0 -246 52.5t-162 164.5q-125 -217 -397 -217q-100 0 -174 28t-113 74t-56.5 94t-17.5 101zM270 283q0 -82 56.5 -125t154.5 -43q312 -1 312 321v39q-158 0 -308 -14q-215 -20 -215 -178zM954 606h596q-10 141 -88 222 t-198 81q-255 0 -310 -303z" />
<glyph unicode="&#xe7;" d="M98 508q0 248 154 396.5t369 148.5q176 0 298.5 -89.5t151.5 -265.5l-164 -16q-14 41 -28.5 70.5t-46 70.5t-84 63.5t-119.5 22.5q-156 0 -257.5 -110.5t-101.5 -292.5q0 -166 88 -278.5t263 -112.5q215 0 286 237l170 -20q-47 -156 -157.5 -258.5t-301.5 -102.5 q-244 0 -382 156t-138 381zM391 -414l33 88q61 -39 133 -39q113 0 113 80q0 86 -90 86q-47 1 -84 -22l-35 43l129 178h98l-94 -127h4q27 10 78 10q66 0 109.5 -44t43.5 -105q0 -96 -74.5 -144.5t-174.5 -48.5q-66 0 -189 45z" />
<glyph unicode="&#xe8;" d="M98 473q0 260 133.5 420t356.5 160t356 -138.5t133 -394.5v-45h-807q0 -170 91.5 -265t226.5 -95q217 -1 299 198l164 -24q-143 -317 -471 -318q-213 0 -347.5 143.5t-134.5 358.5zM274 606h631q-16 143 -97 223t-216 80q-145 0 -226.5 -92t-91.5 -211zM299 1516h222 l180 -291h-135z" />
<glyph unicode="&#xe9;" d="M98 473q0 260 133.5 420t356.5 160t356 -138.5t133 -394.5v-45h-807q0 -170 91.5 -265t226.5 -95q217 -1 299 198l164 -24q-143 -317 -471 -318q-213 0 -347.5 143.5t-134.5 358.5zM274 606h631q-16 143 -97 223t-216 80q-145 0 -226.5 -92t-91.5 -211zM438 1225l180 291 h221l-266 -291h-135z" />
<glyph unicode="&#xea;" d="M98 473q0 260 133.5 420t356.5 160t356 -138.5t133 -394.5v-45h-807q0 -170 91.5 -265t226.5 -95q217 -1 299 198l164 -24q-143 -317 -471 -318q-213 0 -347.5 143.5t-134.5 358.5zM270 1225l203 291h188l207 -291h-166l-135 190l-135 -190h-162zM274 606h631 q-16 143 -97 223t-216 80q-145 0 -226.5 -92t-91.5 -211z" />
<glyph unicode="&#xeb;" d="M98 473q0 260 133.5 420t356.5 160t356 -138.5t133 -394.5v-45h-807q0 -170 91.5 -265t226.5 -95q217 -1 299 198l164 -24q-143 -317 -471 -318q-213 0 -347.5 143.5t-134.5 358.5zM244 1352q0 47 33.5 80.5t80.5 33.5t81 -33.5t34 -80.5t-34 -81t-81 -34t-80.5 34 t-33.5 81zM274 606h631q-16 143 -97 223t-216 80q-145 0 -226.5 -92t-91.5 -211zM666 1352q0 47 33.5 80.5t80.5 33.5t81 -33.5t34 -80.5t-34 -81t-81 -34t-80.5 34t-33.5 81z" />
<glyph unicode="&#xec;" horiz-adv-x="454" d="M-43 1516h222l180 -291h-135zM147 0v1024h160v-1024h-160z" />
<glyph unicode="&#xed;" horiz-adv-x="454" d="M96 1225l180 291h221l-266 -291h-135zM147 0v1024h160v-1024h-160z" />
<glyph unicode="&#xee;" horiz-adv-x="454" d="M-72 1225l203 291h188l207 -291h-166l-135 190l-135 -190h-162zM147 0v1024h160v-1024h-160z" />
<glyph unicode="&#xef;" horiz-adv-x="454" d="M-98 1352q0 47 33.5 80.5t80.5 33.5t81 -33.5t34 -80.5t-34 -81t-81 -34t-80.5 34t-33.5 81zM147 0v1024h160v-1024h-160zM324 1352q0 47 33.5 80.5t80.5 33.5t81 -33.5t34 -80.5t-34 -81t-81 -34t-80.5 34t-33.5 81z" />
<glyph unicode="&#xf0;" horiz-adv-x="1253" d="M98 512q0 219 141.5 380t387.5 161q201 0 325 -160h4q-117 266 -290 422l-236 -127l-78 69l230 125q-94 72 -234 134l113 90q137 -59 256 -150l233 129l78 -74l-229 -125q356 -317 356 -837q0 -250 -134 -414t-394 -164t-394.5 158t-134.5 383zM270 512 q0 -176 96.5 -286.5t260.5 -110.5t260 110.5t96 286.5t-96 286.5t-260 110.5t-260.5 -110.5t-96.5 -286.5z" />
<glyph unicode="&#xf1;" d="M154 0v1024h159v-174h4q100 190 326 190q53 0 106.5 -15t109.5 -51t91 -109.5t35 -176.5v-688h-160v618q0 147 -63.5 213t-161.5 66q-119 0 -203 -87t-84 -241v-569h-159zM221 1241q27 225 213 225q66 0 158 -34q111 -43 131 -43q45 0 66.5 29.5t23.5 64.5h104 q-27 -225 -213 -226q-66 0 -157 35q-111 43 -131 43q-45 0 -66.5 -29.5t-23.5 -64.5h-105z" />
<glyph unicode="&#xf2;" horiz-adv-x="1253" d="M98 512q0 219 141.5 380t387.5 161q260 0 394 -158t134 -383q0 -219 -141.5 -380t-386.5 -161q-260 0 -394.5 158t-134.5 383zM270 512q0 -176 96.5 -286.5t260.5 -110.5t260 110.5t96 286.5t-96 286.5t-260 110.5t-260.5 -110.5t-96.5 -286.5zM356 1516h222l180 -291 h-135z" />
<glyph unicode="&#xf3;" horiz-adv-x="1253" d="M98 512q0 219 141.5 380t387.5 161q260 0 394 -158t134 -383q0 -219 -141.5 -380t-386.5 -161q-260 0 -394.5 158t-134.5 383zM270 512q0 -176 96.5 -286.5t260.5 -110.5t260 110.5t96 286.5t-96 286.5t-260 110.5t-260.5 -110.5t-96.5 -286.5zM496 1225l180 291h221 l-266 -291h-135z" />
<glyph unicode="&#xf4;" horiz-adv-x="1253" d="M98 512q0 219 141.5 380t387.5 161q260 0 394 -158t134 -383q0 -219 -141.5 -380t-386.5 -161q-260 0 -394.5 158t-134.5 383zM270 512q0 -176 96.5 -286.5t260.5 -110.5t260 110.5t96 286.5t-96 286.5t-260 110.5t-260.5 -110.5t-96.5 -286.5zM327 1225l203 291h188 l207 -291h-166l-135 190l-135 -190h-162z" />
<glyph unicode="&#xf5;" horiz-adv-x="1253" d="M98 512q0 219 141.5 380t387.5 161q260 0 394 -158t134 -383q0 -219 -141.5 -380t-386.5 -161q-260 0 -394.5 158t-134.5 383zM270 512q0 -176 96.5 -286.5t260.5 -110.5t260 110.5t96 286.5t-96 286.5t-260 110.5t-260.5 -110.5t-96.5 -286.5zM278 1241q27 225 213 225 q66 0 158 -34q111 -43 131 -43q45 0 66.5 29.5t23.5 64.5h104q-27 -225 -213 -226q-66 0 -157 35q-111 43 -131 43q-45 0 -66.5 -29.5t-23.5 -64.5h-105z" />
<glyph unicode="&#xf6;" horiz-adv-x="1253" d="M98 512q0 219 141.5 380t387.5 161q260 0 394 -158t134 -383q0 -219 -141.5 -380t-386.5 -161q-260 0 -394.5 158t-134.5 383zM270 512q0 -176 96.5 -286.5t260.5 -110.5t260 110.5t96 286.5t-96 286.5t-260 110.5t-260.5 -110.5t-96.5 -286.5zM301 1352q0 47 33.5 80.5 t80.5 33.5t81 -33.5t34 -80.5t-34 -81t-81 -34t-80.5 34t-33.5 81zM723 1352q0 47 33.5 80.5t80.5 33.5t81 -33.5t34 -80.5t-34 -81t-81 -34t-80.5 34t-33.5 81z" />
<glyph unicode="&#xf7;" horiz-adv-x="1228" d="M96 459v119h1037v-119h-1037zM494 96q0 51 34.5 86t86 35t86 -35t34.5 -86t-34.5 -86t-86 -35t-86 35t-34.5 86zM494 940q0 51 34.5 86t86 35t86 -35t34.5 -86t-34.5 -86t-86 -35t-86 35t-34.5 86z" />
<glyph unicode="&#xf8;" horiz-adv-x="1253" d="M61 37l140 133q-102 145 -103 342q0 219 141.5 380t387.5 161q227 0 364 -127l133 127l68 -66l-139 -133q102 -141 102 -342q0 -219 -141.5 -380t-386.5 -161q-229 0 -363 129l-135 -129zM270 512q1 -131 54 -225l548 524q-92 98 -245 98q-164 0 -260.5 -110.5 t-96.5 -286.5zM381 211q96 -96 246 -96q164 0 260 110.5t96 286.5q0 135 -55 223z" />
<glyph unicode="&#xf9;" d="M154 350v674h159v-631q0 -147 63.5 -212.5t162.5 -65.5q119 0 202.5 87t83.5 240v582h160v-1024h-160v162h-4q-100 -190 -325 -191q-137 0 -239.5 87t-102.5 292zM299 1516h222l180 -291h-135z" />
<glyph unicode="&#xfa;" d="M154 350v674h159v-631q0 -147 63.5 -212.5t162.5 -65.5q119 0 202.5 87t83.5 240v582h160v-1024h-160v162h-4q-100 -190 -325 -191q-137 0 -239.5 87t-102.5 292zM438 1225l180 291h221l-266 -291h-135z" />
<glyph unicode="&#xfb;" d="M154 350v674h159v-631q0 -147 63.5 -212.5t162.5 -65.5q119 0 202.5 87t83.5 240v582h160v-1024h-160v162h-4q-100 -190 -325 -191q-137 0 -239.5 87t-102.5 292zM270 1225l203 291h188l207 -291h-166l-135 190l-135 -190h-162z" />
<glyph unicode="&#xfc;" d="M154 350v674h159v-631q0 -147 63.5 -212.5t162.5 -65.5q119 0 202.5 87t83.5 240v582h160v-1024h-160v162h-4q-100 -190 -325 -191q-137 0 -239.5 87t-102.5 292zM244 1352q0 47 33.5 80.5t80.5 33.5t81 -33.5t34 -80.5t-34 -81t-81 -34t-80.5 34t-33.5 81zM666 1352 q0 47 33.5 80.5t80.5 33.5t81 -33.5t34 -80.5t-34 -81t-81 -34t-80.5 34t-33.5 81z" />
<glyph unicode="&#xfd;" horiz-adv-x="1024" d="M16 1024h183l313 -848h4l315 848h177l-598 -1454h-174l196 450zM381 1225l180 291h221l-266 -291h-135z" />
<glyph unicode="&#xfe;" horiz-adv-x="1251" d="M154 -430v1970h159v-694h4q127 195 363 194q84 0 165 -30.5t151.5 -91t113.5 -166t43 -240.5q0 -238 -140.5 -389.5t-353.5 -151.5q-125 0 -211 56.5t-131 138.5h-4v-596h-159zM313 504q0 -166 92.5 -277.5t249.5 -111.5q156 0 241 112.5t85 280.5q0 193 -94 291t-238 98 q-139 0 -237.5 -101.5t-98.5 -291.5z" />
<glyph unicode="&#xff;" horiz-adv-x="1024" d="M16 1024h183l313 -848h4l315 848h177l-598 -1454h-174l196 450zM187 1352q0 47 33.5 80.5t80.5 33.5t81 -33.5t34 -80.5t-34 -81t-81 -34t-80.5 34t-33.5 81zM609 1352q0 47 33.5 80.5t80.5 33.5t81 -33.5t34 -80.5t-34 -81t-81 -34t-80.5 34t-33.5 81z" />
<glyph unicode="&#x152;" horiz-adv-x="2048" d="M115 770q0 170 39 308.5t102 227.5t149.5 150.5t175.5 87t185 25.5q104 0 188 -25.5t138.5 -73t82 -81t54.5 -78.5h4v229h719v-156h-547v-516h539v-155h-539v-557h547v-156h-719v242h-4q-51 -96 -131 -159t-162 -87.5t-170 -24.5q-166 0 -295 66.5t-205 180.5t-113.5 253 t-37.5 299zM299 795q0 -330 124 -499t343 -169q213 0 340 180.5t127 487.5q0 291 -125 454.5t-344 163.5q-215 0 -340 -174t-125 -444z" />
<glyph unicode="&#x153;" horiz-adv-x="1933" d="M98 512q0 217 137.5 379t364.5 162q262 0 387 -232q68 111 161 171.5t241 60.5q193 0 319.5 -133.5t126.5 -403.5v-41h-770q0 -70 13.5 -128t45 -113.5t94 -87t150.5 -31.5q127 0 194.5 59t98.5 170l166 -18q-49 -152 -165 -253.5t-286 -101.5q-145 0 -240.5 56.5 t-160.5 171.5q-129 -227 -395 -228q-225 0 -353.5 149.5t-128.5 391.5zM270 512q0 -193 85 -295t229 -102q92 0 159.5 42t100.5 109.5t47 131t14 124.5q0 186 -85 286.5t-226 100.5q-152 0 -238 -109.5t-86 -287.5zM1067 606h596q-10 141 -88 222t-199 81q-254 0 -309 -303z " />
<glyph unicode="&#x178;" horiz-adv-x="1253" d="M14 1540h211l406 -758l397 758h211l-522 -911v-629h-172v629zM301 1745q0 47 33.5 80.5t80.5 33.5t81 -33.5t34 -80.5t-34 -81t-81 -34t-80.5 34t-33.5 81zM723 1745q0 47 33.5 80.5t80.5 33.5t81 -33.5t34 -80.5t-34 -81t-81 -34t-80.5 34t-33.5 81z" />
<glyph unicode="&#x2c6;" horiz-adv-x="454" d="M-72 1225l203 291h188l207 -291h-166l-135 190l-135 -190h-162z" />
<glyph unicode="&#x2dc;" horiz-adv-x="454" d="M-121 1241q27 225 213 225q66 0 158 -34q111 -43 131 -43q45 0 66.5 29.5t23.5 64.5h104q-27 -225 -213 -226q-66 0 -157 35q-111 43 -131 43q-45 0 -66.5 -29.5t-23.5 -64.5h-105z" />
<glyph unicode="&#x2000;" horiz-adv-x="1001" />
<glyph unicode="&#x2001;" horiz-adv-x="2003" />
<glyph unicode="&#x2002;" horiz-adv-x="1001" />
<glyph unicode="&#x2003;" horiz-adv-x="2003" />
<glyph unicode="&#x2004;" horiz-adv-x="667" />
<glyph unicode="&#x2005;" horiz-adv-x="500" />
<glyph unicode="&#x2006;" horiz-adv-x="333" />
<glyph unicode="&#x2007;" horiz-adv-x="333" />
<glyph unicode="&#x2008;" horiz-adv-x="250" />
<glyph unicode="&#x2009;" horiz-adv-x="400" />
<glyph unicode="&#x200a;" horiz-adv-x="111" />
<glyph unicode="&#x2010;" horiz-adv-x="684" d="M90 459v155h504v-155h-504z" />
<glyph unicode="&#x2011;" horiz-adv-x="684" d="M90 459v155h504v-155h-504z" />
<glyph unicode="&#x2012;" horiz-adv-x="684" d="M90 459v155h504v-155h-504z" />
<glyph unicode="&#x2013;" horiz-adv-x="1024" d="M0 465v143h1024v-143h-1024z" />
<glyph unicode="&#x2014;" horiz-adv-x="2048" d="M0 465v143h2048v-143h-2048z" />
<glyph unicode="&#x2018;" horiz-adv-x="569" d="M115 1100l235 469l105 -49l-176 -496z" />
<glyph unicode="&#x2019;" horiz-adv-x="569" d="M115 1073l176 496l164 -76l-236 -469z" />
<glyph unicode="&#x201a;" horiz-adv-x="569" d="M115 -283l176 496l164 -76l-236 -469z" />
<glyph unicode="&#x201c;" d="M197 1100l235 469l105 -49l-177 -496zM602 1100l236 469l104 -49l-176 -496z" />
<glyph unicode="&#x201d;" d="M197 1073l176 496l164 -76l-236 -469zM602 1073l176 496l164 -76l-235 -469z" />
<glyph unicode="&#x201e;" d="M197 -283l176 496l164 -76l-236 -469zM602 -283l176 496l164 -76l-235 -469z" />
<glyph unicode="&#x2022;" horiz-adv-x="1024" d="M127 770q0 160 112.5 272.5t272.5 112.5t272.5 -112.5t112.5 -272.5t-112.5 -272.5t-272.5 -112.5t-272.5 112.5t-112.5 272.5z" />
<glyph unicode="&#x2026;" horiz-adv-x="2048" d="M227 90q0 47 34 81t81 34t81 -34t34 -81t-34 -81t-81 -34t-81 34t-34 81zM909 90q0 47 34 81t81 34t81 -34t34 -81t-34 -81t-81 -34t-81 34t-34 81zM1591 90q0 47 34 81t81 34t81 -34t34 -81t-34 -81t-81 -34t-81 34t-34 81z" />
<glyph unicode="&#x202f;" horiz-adv-x="400" />
<glyph unicode="&#x2039;" horiz-adv-x="569" d="M100 541l226 368h143l-229 -368l223 -377h-144z" />
<glyph unicode="&#x203a;" horiz-adv-x="569" d="M100 164l230 368l-224 377h144l219 -377l-225 -368h-144z" />
<glyph unicode="&#x205f;" horiz-adv-x="500" />
<glyph unicode="&#x2122;" horiz-adv-x="2027" d="M25 1434v106h659v-106h-270v-738h-119v738h-270zM819 696v844h195l262 -661l254 661h194v-844h-118v738h-4l-293 -738h-74l-293 738h-4v-738h-119z" />
<glyph unicode="&#x25fc;" horiz-adv-x="1024" d="M0 0v1024h1024v-1024h-1024z" />
<glyph unicode="&#xfb01;" d="M63 893v131h191v293q0 115 70.5 169t175.5 54q90 0 121 -6v-156q-27 6 -97 6q-111 0 -110 -102v-258h207v-131h-207v-893h-160v893h-191zM791 1419q0 51 34.5 86t86 35t86 -35t34.5 -86t-34.5 -86t-86 -35t-86 35t-34.5 86zM831 0v1024h160v-1024h-160z" />
<glyph unicode="&#xfb02;" d="M63 893v131h191v293q0 115 70.5 169t175.5 54q90 0 121 -6v-156q-27 6 -97 6q-111 0 -110 -102v-258h207v-131h-207v-893h-160v893h-191zM831 0v1540h160v-1540h-160z" />
</font>
</defs>
</svg>
