<?xml version="1.0" standalone="no"?>
<!DOCTYPE svg PUBLIC "-//W3C//DTD SVG 1.1//EN" "http://www.w3.org/Graphics/SVG/1.1/DTD/svg11.dtd" >
<svg xmlns="http://www.w3.org/2000/svg" xmlns:xlink="http://www.w3.org/1999/xlink" version="1.1">
<metadata></metadata>
<defs>
<font id="neuzeitsbookheavy" horiz-adv-x="1138" >
<font-face units-per-em="2048" ascent="1638" descent="-410" />
<missing-glyph horiz-adv-x="569" />
<glyph horiz-adv-x="0" />
<glyph unicode="&#xd;" horiz-adv-x="681" />
<glyph unicode=" "  horiz-adv-x="569" />
<glyph unicode="&#x09;" horiz-adv-x="569" />
<glyph unicode="&#xa0;" horiz-adv-x="569" />
<glyph unicode="!" horiz-adv-x="679" d="M168 147.5q0 69.5 51 120.5t121 51t121 -51t51 -120.5t-51 -121t-121 -51.5t-121 51.5t-51 121zM193 483v1057h294v-1057h-294z" />
<glyph unicode="&#x22;" horiz-adv-x="681" d="M16 971v569h213v-569h-213zM453 971v569h213v-569h-213z" />
<glyph unicode="#" d="M68 442v176h206l35 279h-180v176h205l57 443h182l-57 -443h209l57 443h183l-58 -443h164v-176h-188l-35 -279h162v-176h-187l-59 -442h-180l57 442h-209l-59 -442h-180l57 442h-182zM457 618h209l34 279h-208z" />
<glyph unicode="$" d="M66 426h282q2 -41 6 -63.5t18.5 -60.5t49.5 -61.5t90 -31.5v444q-59 14 -118.5 39t-137.5 74t-127 136t-49 200q0 193 110.5 304.5t321.5 133.5v158h111v-158q51 -4 86.5 -10t104.5 -34t113 -69t80.5 -124.5t41.5 -194.5h-283q-14 117 -45 153.5t-98 53.5v-406 q221 -61 335.5 -166.5t114.5 -312.5q0 -104 -34.5 -186t-84 -128t-117 -79t-115.5 -44t-99 -18v-229h-111v229q-37 4 -61.5 7.5t-74.5 16.5t-86 30.5t-81 52.5t-72.5 79t-48 112.5t-22.5 152.5zM362 1128q0 -47 14.5 -81.5t42 -56t45 -30t48.5 -20.5v375q-68 -14 -109 -53 t-41 -134zM623 207q76 8 122 65.5t46 143.5q0 90 -40 134t-128 81v-424z" />
<glyph unicode="%" horiz-adv-x="2048" d="M240 1148.5q0 190.5 94 291t247.5 100.5t248 -100.5t94.5 -291t-94.5 -290.5t-248 -100t-247.5 100t-94 290.5zM465 1149q0 -227 116.5 -227t116.5 227t-116.5 227t-116.5 -227zM481 -43l891 1602h168l-883 -1602h-176zM1124 366.5q0 190.5 94.5 291t248 100.5 t247.5 -100.5t94 -291t-94 -291t-247.5 -100.5t-248 100.5t-94.5 291zM1350 366.5q0 -227.5 116.5 -227.5t116.5 227.5t-116.5 227.5t-116.5 -227.5z" />
<glyph unicode="&#x26;" horiz-adv-x="1478" d="M98 449q0 156 89 276.5t221 177.5q-106 186 -107 295q0 139 108.5 240.5t276.5 101.5q106 0 186 -33.5t121 -85t60.5 -99.5t19.5 -91q0 -137 -74.5 -239.5t-201.5 -162.5l245 -307q27 39 45.5 117.5t18.5 146.5h270q-18 -176 -50 -276t-105 -211l239 -299h-338l-86 111 q-178 -139 -413 -140q-246 0 -385.5 135.5t-139.5 342.5zM393 455q0 -102 75 -168t171 -66q143 0 229 86l-315 402q-160 -113 -160 -254zM571 1206.5q0 -55.5 93 -194.5q96 66 129.5 106.5t33.5 91.5q0 55 -38.5 86t-86.5 31q-55 0 -93 -32.5t-38 -88z" />
<glyph unicode="'" horiz-adv-x="454" d="M121 971v569h213v-569h-213z" />
<glyph unicode="(" horiz-adv-x="681" d="M66 604q0 164 37.5 323.5t87 268.5t115 208t101 141t64.5 71l180 -143q-154 -193 -240.5 -393.5t-86.5 -475t86.5 -475t240.5 -393.5l-180 -144q-29 29 -64.5 71t-101 141.5t-115 208t-87 268t-37.5 323.5z" />
<glyph unicode=")" horiz-adv-x="681" d="M31 -264q154 193 240.5 393.5t86.5 475t-86.5 475t-240.5 393.5l180 143q29 -29 64.5 -71t101 -141t115 -208t87 -268.5t37.5 -323.5t-37.5 -323.5t-87 -268t-115 -208t-101 -141.5t-64.5 -71z" />
<glyph unicode="*" d="M170 1188l49 166l260 -88l-8 274h184l-8 -278l260 100l62 -172l-273 -80l176 -215l-153 -109l-156 236l-149 -238l-150 105l168 223z" />
<glyph unicode="+" horiz-adv-x="1228" d="M96 412v213h412v411h213v-411h412v-213h-412v-412h-213v412h-412z" />
<glyph unicode="," horiz-adv-x="569" d="M8 -285l166 617l289 -94l-262 -586z" />
<glyph unicode="-" horiz-adv-x="681" d="M41 399v275h600v-275h-600z" />
<glyph unicode="." horiz-adv-x="569" d="M113 147.5q0 69.5 50 120.5t121.5 51t122 -51t50.5 -120.5t-50.5 -121t-122 -51.5t-121.5 51.5t-50 121z" />
<glyph unicode="/" horiz-adv-x="909" d="M41 -29l602 1598h225l-602 -1598h-225z" />
<glyph unicode="0" d="M68 758q0 68 2 117t12 137t28.5 151.5t55.5 139t88 124t133 81t182.5 32.5t182.5 -32.5t133 -81t88 -124t55.5 -139t28.5 -151.5t12 -137.5t2 -116.5q0 -145 -20.5 -269t-71.5 -247t-155.5 -195t-254 -72t-254 72t-155.5 195t-71.5 247t-20.5 269zM375 758 q0 -254 43 -387t151.5 -133t151.5 133t43 387q0 94 -3 157.5t-13.5 138t-31 119t-57 75t-90 30.5t-90.5 -30.5t-57.5 -75t-30.5 -119t-13 -138t-3 -157.5z" />
<glyph unicode="1" d="M168 965v276q291 162 407 299h228v-1540h-295v1157q-172 -121 -340 -192z" />
<glyph unicode="2" d="M63 0v231l555 594q133 145 134 269q0 74 -48.5 129t-134.5 55q-201 0 -200 -274h-283v32q0 133 45 234.5t119 158t154.5 84t164.5 27.5q215 0 352.5 -125t137.5 -313q0 -141 -72 -262t-266 -314l-262 -264h616v-262h-1012z" />
<glyph unicode="3" d="M57 420l295 18q2 -61 26.5 -105t60.5 -62.5t63.5 -25.5t52.5 -7q92 0 155.5 71.5t63.5 165.5q0 102 -68.5 168t-160.5 66q-85 -1 -189 -50v259l308 335h-551v263h899v-250l-340 -344q186 0 297.5 -123t111.5 -314q0 -225 -147.5 -367.5t-378.5 -142.5q-61 0 -122.5 11.5 t-127 43t-117 80t-88.5 128t-43 182.5z" />
<glyph unicode="4" d="M43 377v256l547 883h334v-914h172v-225h-172v-377h-283v377h-598zM274 602h367v602h-4z" />
<glyph unicode="5" d="M61 360l299 27q16 -47 31 -71.5t59 -51t111 -26.5q82 0 145.5 59t63.5 201q0 98 -60.5 164.5t-144.5 66.5q-131 0 -194 -92l-265 14l29 865h864v-263h-610l-20 -346q106 84 262 84q182 0 314 -126t132 -365q0 -219 -138 -372t-378 -153q-74 0 -144.5 15.5t-148.5 53.5 t-134 119t-73 197z" />
<glyph unicode="6" d="M57 735q0 805 547 805q113 0 201 -36t137 -95t75 -122.5t30 -129.5l-295 -18q-2 51 -38 95t-120 44q-51 0 -90 -15.5t-64.5 -53.5t-41 -70.5t-26 -98t-13.5 -102.5t-9 -115h4q35 43 60.5 67.5t83 48.5t133.5 24q184 0 317 -122t133 -354q0 -238 -140 -375t-357 -137 q-526 0 -527 760zM377 469q0 -96 49 -170t155.5 -74t155.5 74t49 170t-49 170t-155.5 74t-155.5 -74t-49 -170z" />
<glyph unicode="7" d="M68 1253v263h1003v-261q-129 -199 -269 -533.5t-204 -721.5h-324q37 195 86.5 365t109.5 312t100 224t107.5 204t82.5 148h-692z" />
<glyph unicode="8" d="M68 459q0 276 241 366q-90 35 -143 112t-53 187q0 184 120.5 300t335.5 116t336 -115.5t121 -300.5q0 -111 -53 -187.5t-144 -111.5q242 -90 242 -366q0 -238 -149.5 -361t-352 -123t-352 123t-149.5 361zM362 459q0 -102 56.5 -168t151 -66t150.5 66t56 168 q0 129 -65.5 183t-141 54t-141.5 -54t-66 -183zM395 1112q0 -88 47 -139t127 -51t127 51t47 139t-47 139.5t-127 51.5t-127 -51.5t-47 -139.5z" />
<glyph unicode="9" d="M57 1028q0 238 140.5 375t357.5 137q526 0 526 -760q0 -805 -546 -805q-113 0 -201 36t-137.5 95.5t-75 122.5t-29.5 129l295 19q2 -51 38 -95t120 -44q51 0 90 15t64.5 53t41 71t25.5 98.5t13 102t9 114.5h-4q-35 -43 -60.5 -67.5t-82.5 -48t-133 -23.5 q-184 0 -317.5 122t-133.5 353zM352 1046.5q0 -96.5 49.5 -170t156 -73.5t155.5 73.5t49 170t-49 170t-155.5 73.5t-156 -73.5t-49.5 -170z" />
<glyph unicode=":" horiz-adv-x="569" d="M113 147.5q0 69.5 50 120.5t121.5 51t122 -51t50.5 -120.5t-50.5 -121t-122 -51.5t-121.5 51.5t-50 121zM113 866.5q0 71.5 50 121.5t121.5 50t122 -50t50.5 -121.5t-50.5 -122t-122 -50.5t-121.5 50.5t-50 122z" />
<glyph unicode=";" horiz-adv-x="569" d="M8 -285l166 617l289 -94l-262 -586zM113 866.5q0 71.5 50 121.5t121.5 50t122 -50t50.5 -121.5t-50.5 -122t-122 -50.5t-121.5 50.5t-50 122z" />
<glyph unicode="&#x3c;" horiz-adv-x="1228" d="M96 430v176l1037 447v-209l-762 -326l762 -325v-209z" />
<glyph unicode="=" horiz-adv-x="1228" d="M96 188v213h1037v-213h-1037zM96 635v213h1037v-213h-1037z" />
<glyph unicode="&#x3e;" horiz-adv-x="1228" d="M96 -16v209l762 325l-762 326v209l1037 -447v-176z" />
<glyph unicode="?" d="M109 1104q0 215 125.5 340t340.5 125q188 0 321.5 -105.5t133.5 -304.5q0 -98 -38 -176t-91 -130t-106.5 -98t-91 -104.5t-37.5 -124.5v-43h-283v64q0 90 36 163.5t88 123t104.5 95.5t88 103.5t35.5 124.5q0 78 -48 120t-120 42q-86 0 -131 -51t-45 -140v-24h-282z M365 147.5q0 69.5 51 120.5t120.5 51t121 -51t51.5 -120.5t-51.5 -121t-121 -51.5t-120.5 51.5t-51 121z" />
<glyph unicode="@" horiz-adv-x="1638" d="M41 770q0 336 238.5 567.5t576.5 231.5q299 0 521 -183.5t222 -470.5q0 -129 -41.5 -237.5t-104 -175t-138.5 -114.5t-139.5 -67.5t-108.5 -19.5q-102 0 -125 94h-4q-68 -94 -199 -94q-162 0 -262 103.5t-100 267.5q0 209 123 366.5t327 157.5q168 0 256 -143l27 112h184 l-120 -536q-14 -61 -15 -88q0 -45 33 -45q92 0 168 103t76 265q0 250 -164 389.5t-422 139.5q-266 0 -431 -178.5t-165 -448.5q0 -276 175 -447.5t454 -171.5q254 0 442 164h188q-111 -162 -278.5 -251t-366.5 -89q-369 0 -598 225.5t-229 573.5zM614 690q0 -74 44 -125 t116 -51q98 0 172 92.5t74 198.5q0 78 -48 128t-124 50q-100 0 -167 -90t-67 -203z" />
<glyph unicode="A" horiz-adv-x="1478" d="M20 0l562 1540h323l553 -1540h-338l-104 322h-563l-101 -322h-332zM539 571h395l-197 598h-4z" />
<glyph unicode="B" horiz-adv-x="1366" d="M170 0v1540h547q240 0 368.5 -112.5t128.5 -305.5q0 -221 -206 -317v-4q109 -27 182.5 -120t73.5 -230q0 -209 -146.5 -330t-388.5 -121h-559zM477 262h203q264 0 264 195q0 84 -58.5 142t-180.5 58h-228v-395zM477 907h187q111 0 177 49.5t66 139.5t-59.5 136t-157.5 46 h-213v-371z" />
<glyph unicode="C" horiz-adv-x="1593" d="M102 770q0 350 200 574.5t517 224.5q256 0 434.5 -136t235.5 -419l-309 -21q-33 145 -127.5 223t-229.5 78q-182 0 -291.5 -151.5t-109.5 -374.5q0 -244 110.5 -383t298.5 -139q115 0 210.5 72.5t134.5 199.5l315 -22q-78 -254 -255 -389.5t-417 -135.5 q-322 0 -519.5 210t-197.5 589z" />
<glyph unicode="D" horiz-adv-x="1593" d="M170 0v1540h580q352 0 546.5 -199.5t194.5 -570.5q0 -354 -212 -562t-521 -208h-588zM477 262h260q113 0 200 45t136 121t73.5 163t24.5 181q0 102 -23.5 188.5t-74.5 160t-143 115.5t-217 42h-236v-1016z" />
<glyph unicode="E" horiz-adv-x="1251" d="M170 0v1540h983v-274h-676v-351h658v-274h-658v-367h676v-274h-983z" />
<glyph unicode="F" d="M170 0v1540h903v-274h-596v-351h582v-274h-582v-641h-307z" />
<glyph unicode="G" horiz-adv-x="1705" d="M102 770q0 209 90.5 390t264.5 295t395 114q143 0 261 -36t188.5 -84t127 -121t80 -124t45.5 -114l-321 -21q-92 225 -381 225q-186 0 -308 -142t-122 -382q0 -215 125 -369.5t325 -154.5q170 0 268.5 96t121.5 225h-369v262h711q-8 -416 -215 -637t-537 -221 q-221 0 -395 114t-264.5 295t-90.5 390z" />
<glyph unicode="H" horiz-adv-x="1593" d="M170 0v1540h307v-625h639v625h307v-1540h-307v641h-639v-641h-307z" />
<glyph unicode="I" horiz-adv-x="679" d="M186 0v1540h308v-1540h-308z" />
<glyph unicode="J" horiz-adv-x="909" d="M49 1266v274h705v-1016q0 -141 -35 -242.5t-86 -157.5t-136 -88t-162 -40t-183 -8h-99v262h158q119 0 177 45t58 160v811h-397z" />
<glyph unicode="K" horiz-adv-x="1366" d="M170 0v1540h307v-723h4l494 723h366l-530 -739l541 -801h-383l-488 756h-4v-756h-307z" />
<glyph unicode="L" d="M170 0v1540h307v-1253h592v-287h-899z" />
<glyph unicode="M" horiz-adv-x="1933" d="M170 0v1540h350l447 -1048l446 1048h350v-1540h-295v1028h-4l-411 -1028h-172l-412 1008h-4v-1008h-295z" />
<glyph unicode="N" horiz-adv-x="1593" d="M170 0v1540h330l624 -1034h4v1034h295v-1540h-317l-637 1051h-4v-1051h-295z" />
<glyph unicode="O" horiz-adv-x="1703" d="M102 770q0 211 85 390t259.5 294t405.5 115t405.5 -115t259.5 -294t85 -390t-85 -390t-259.5 -294t-405.5 -115t-405.5 115t-259.5 294t-85 390zM422 770q0 -221 112.5 -372.5t317.5 -151.5t317.5 151.5t112.5 372.5t-112.5 372.5t-317.5 151.5t-317.5 -151.5 t-112.5 -372.5z" />
<glyph unicode="P" horiz-adv-x="1251" d="M170 0v1540h502q98 0 186 -24.5t170 -77t130 -152.5t48 -235q0 -127 -44 -224.5t-118.5 -153t-162.5 -83t-185 -27.5h-219v-563h-307zM477 825h172q137 0 193.5 65.5t56.5 160.5q0 90 -62.5 158.5t-185.5 68.5h-174v-453z" />
<glyph unicode="Q" horiz-adv-x="1705" d="M102 770q0 211 85 390t259.5 294t405.5 115t405.5 -115t259.5 -294t85 -390q0 -291 -158 -506l186 -160l-178 -192l-190 170q-178 -111 -409.5 -111t-406 115t-259.5 294t-85 390zM422 770q0 -221 112.5 -372.5t317.5 -151.5q109 0 182 39l-135 118l168 185l141 -121 q74 123 74 303q0 221 -112.5 372.5t-317.5 151.5t-317.5 -151.5t-112.5 -372.5z" />
<glyph unicode="R" horiz-adv-x="1366" d="M170 0v1540h575q236 0 372 -130t136 -329q0 -86 -28.5 -171t-96 -158.5t-161.5 -102.5l358 -649h-367l-301 608h-180v-608h-307zM477 858h205q143 0 203.5 61.5t60.5 149.5q0 209 -274 209h-195v-420z" />
<glyph unicode="S" horiz-adv-x="1366" d="M111 455l307 6q0 -117 77.5 -172.5t200.5 -55.5q92 0 172 44.5t80 125.5q0 63 -38 101.5t-148 79.5l-336 121q-129 47 -209 151.5t-80 233.5q0 80 29 158.5t88 153.5t167.5 121t250.5 46q135 0 239.5 -35t160.5 -83t92 -111.5t47.5 -110.5t11.5 -88l-308 -6 q0 78 -65.5 125t-159.5 47q-115 0 -180.5 -46.5t-65.5 -123.5q0 -125 179 -183l282 -90q350 -113 350 -422q0 -78 -29.5 -154.5t-90 -150.5t-175 -120t-266 -46t-265.5 38t-172 91.5t-94 126t-44 123.5t-8 105z" />
<glyph unicode="T" horiz-adv-x="1249" d="M66 1266v274h1118v-274h-406v-1266h-307v1266h-405z" />
<glyph unicode="U" horiz-adv-x="1593" d="M156 639v901h307v-903q0 -193 85 -292t249 -99t248.5 99t84.5 292v903h308v-901q0 -338 -182.5 -503t-459 -165t-458.5 165t-182 503z" />
<glyph unicode="V" horiz-adv-x="1366" d="M20 1540h338l330 -1132h4l322 1132h332l-500 -1540h-324z" />
<glyph unicode="W" horiz-adv-x="2048" d="M49 1540h328l239 -1132h5l241 1132h332l252 -1132h4l223 1132h326l-393 -1540h-326l-250 1073h-4l-254 -1073h-326z" />
<glyph unicode="X" horiz-adv-x="1366" d="M16 0l486 778l-455 762h367l280 -520l279 520h360l-461 -762l478 -778h-379l-291 518l-295 -518h-369z" />
<glyph unicode="Y" horiz-adv-x="1251" d="M20 1540h359l252 -592l262 592h338l-449 -924v-616h-307v616z" />
<glyph unicode="Z" horiz-adv-x="1251" d="M74 0v242l714 1024h-665v274h1055v-242l-717 -1024h717v-274h-1104z" />
<glyph unicode="[" horiz-adv-x="681" d="M152 -393v1995h497v-201h-239v-1594h239v-200h-497z" />
<glyph unicode="\" horiz-adv-x="909" d="M41 1569h225l602 -1598h-225z" />
<glyph unicode="]" horiz-adv-x="681" d="M33 -193h239v1594h-239v201h497v-1995h-497v200z" />
<glyph unicode="^" horiz-adv-x="1228" d="M135 727l383 789h193l383 -789h-213l-267 573l-266 -573h-213z" />
<glyph unicode="_" horiz-adv-x="1024" d="M0 -154h1024v-102h-1024v102z" />
<glyph unicode="`" horiz-adv-x="569" d="M49 1520h277l180 -287h-170z" />
<glyph unicode="a" horiz-adv-x="1251" d="M98 293q0 41 6.5 74.5t34 80t72.5 78t132 58t204 32.5l272 17v49q0 92 -54 139t-153 47q-90 0 -142 -42t-56 -113h-283q10 147 127 257.5t367 110.5q211 0 344 -84t133 -256v-610q0 -63 14 -131h-285v137h-4q-127 -166 -360 -166q-145 0 -257 79t-112 243zM393 307 q0 -123 185 -123q84 0 162.5 46t78.5 132v97l-246 -23q-98 -8 -139 -38.5t-41 -90.5z" />
<glyph unicode="b" horiz-adv-x="1366" d="M160 0v1540h295v-631h4q72 94 150.5 133t183.5 39q219 0 353 -161.5t134 -391.5q0 -227 -139.5 -392t-352.5 -165q-223 0 -342 176h-4v-147h-282zM444 524q0 -137 70 -226t193 -89q125 0 195.5 90t70.5 221q0 129 -68.5 220t-189.5 91q-131 0 -201 -89t-70 -218z" />
<glyph unicode="c" d="M86 516q0 256 137 410.5t375 154.5q223 0 344 -119.5t133 -299.5l-307 -13q-8 182 -170 182q-205 0 -205 -327q0 -121 48 -208t155 -87q160 0 186 172l289 -10q-37 -184 -150.5 -292t-316.5 -108q-252 0 -385 147.5t-133 397.5z" />
<glyph unicode="d" horiz-adv-x="1366" d="M86 528q0 229 134 391t353 162q104 0 183.5 -38.5t150.5 -133.5h4v631h295v-1540h-282v147h-4q-119 -176 -342 -176q-213 0 -352.5 165t-139.5 392zM393 520q0 -131 71 -221t195 -90q123 0 193 89t70 226q0 129 -70 218t-201 89q-121 0 -189.5 -91t-68.5 -220z" />
<glyph unicode="e" horiz-adv-x="1249" d="M86 524q0 252 149.5 404.5t389 152.5t389 -152.5t149.5 -404.5v-82h-770q10 -102 72.5 -173.5t173.5 -71.5q147 0 211 125l287 -23q-53 -160 -188.5 -244t-323.5 -84q-240 0 -389.5 151.5t-149.5 401.5zM393 631h475q-8 86 -69.5 155.5t-159.5 69.5q-109 0 -170.5 -63.5 t-75.5 -161.5z" />
<glyph unicode="f" horiz-adv-x="681" d="M23 827v226h149v137q0 209 98.5 285.5t309.5 76.5h57v-249h-82q-88 0 -88 -86v-164h170v-226h-170v-827h-295v827h-149z" />
<glyph unicode="g" horiz-adv-x="1366" d="M86 539q0 225 142.5 383.5t361.5 158.5q117 0 204 -53t126 -141h4v166h282v-1037q0 -233 -154.5 -364t-410.5 -131q-223 0 -352 94t-160 264h303q20 -66 68.5 -99.5t149 -33.5t179 56.5t84.5 197.5l9 180l-4 4q-90 -194 -337 -194h-3q-205 0 -348.5 150.5t-143.5 398.5z M393 539q0 -90 28 -155t72 -96.5t84.5 -46t81.5 -14.5q37 0 75 11.5t83 39t74 93t29 157.5q0 145 -70 224t-201 79q-115 0 -185.5 -83.5t-70.5 -208.5z" />
<glyph unicode="h" horiz-adv-x="1249" d="M141 0v1540h295v-625h4q106 166 299 166q182 0 275.5 -102t93.5 -264v-715h-295v641q0 104 -53 153.5t-131 49.5q-88 0 -140.5 -68.5t-52.5 -177.5v-598h-295z" />
<glyph unicode="i" horiz-adv-x="569" d="M113 1378q0 68 50 121t122 53q68 0 120 -50t52 -120q0 -68 -51.5 -121t-120.5 -53q-72 0 -122 53.5t-50 116.5zM137 0v1053h295v-1053h-295z" />
<glyph unicode="j" horiz-adv-x="569" d="M-35 -229h78q94 0 94 135v1147h295v-1159q0 -92 -24.5 -162t-61.5 -110t-90 -63.5t-98 -30.5t-97 -7q-14 0 -47 2t-49 2v246zM113 1378q0 68 50 121t122 53q68 0 120 -50t52 -120q0 -68 -51.5 -121t-120.5 -53q-72 0 -122 53.5t-50 116.5z" />
<glyph unicode="k" d="M141 0v1540h295v-948h4l318 461h342l-352 -475l366 -578h-362l-312 516h-4v-516h-295z" />
<glyph unicode="l" horiz-adv-x="569" d="M137 0v1540h295v-1540h-295z" />
<glyph unicode="m" horiz-adv-x="1818" d="M141 0v1053h283v-138h4q66 96 140.5 131t176.5 35q199 0 283 -163q122 163 307 163h2q145 0 242.5 -84t97.5 -241v-756h-295v678q0 68 -39.5 117t-117.5 49t-123 -58.5t-45 -130.5v-655h-295v649q0 195 -160 195q-84 0 -125 -59.5t-41 -145.5v-639h-295z" />
<glyph unicode="n" horiz-adv-x="1249" d="M141 0v1053h283v-138h4q115 166 311 166q182 0 275.5 -102t93.5 -264v-715h-295v641q0 104 -53 153.5t-131 49.5q-88 0 -140.5 -68.5t-52.5 -177.5v-598h-295z" />
<glyph unicode="o" horiz-adv-x="1249" d="M86 526q0 252 149.5 403.5t389 151.5t389 -151.5t149.5 -403.5t-149.5 -403.5t-389 -151.5t-389 151.5t-149.5 403.5zM393 526.5q0 -143.5 59.5 -230.5t172 -87t172 87t59.5 230.5t-59.5 230.5t-172 87t-172 -87t-59.5 -230.5z" />
<glyph unicode="p" horiz-adv-x="1366" d="M160 -459v1512h282v-148h4q119 176 342 176q213 0 352.5 -164.5t139.5 -392.5q0 -229 -134 -391t-353 -162q-104 0 -183.5 39t-150.5 133h-4v-602h-295zM444 528q0 -129 70 -218t201 -89q121 0 189.5 91t68.5 220q0 131 -71 221.5t-195 90.5q-123 0 -193 -89t-70 -227z " />
<glyph unicode="q" horiz-adv-x="1366" d="M86 524q0 227 139.5 392t352.5 165q223 0 342 -176h4v148h282v-1512h-295v602h-4q-72 -94 -150.5 -133t-183.5 -39q-219 0 -353 162t-134 391zM393 532q0 -129 68.5 -220t189.5 -91q131 0 201 89t70 218q0 137 -70 226.5t-193 89.5q-125 0 -195.5 -90t-70.5 -222z" />
<glyph unicode="r" horiz-adv-x="796" d="M141 0v1053h283v-203h4q86 231 303 231h41v-286h-65q-119 0 -195 -72t-76 -207v-516h-295z" />
<glyph unicode="s" d="M96 328h295q2 -72 55.5 -108t126.5 -36q70 0 122.5 26t52.5 83q0 41 -47.5 64.5t-117 33.5t-151.5 30.5t-151.5 50.5t-116.5 99.5t-47 171.5q0 137 109.5 237.5t326.5 100.5q207 0 330 -89t135 -259l-295 -6q-4 68 -50 104.5t-130 36.5q-63 0 -109.5 -24.5t-46.5 -69.5 q0 -43 48 -69.5t122 -36t158 -31t157.5 -50t121.5 -96t48 -167.5q0 -33 -7 -69t-36.5 -90t-78 -94t-141.5 -70t-216 -30q-68 0 -134.5 13.5t-143 47.5t-129 110.5t-60.5 185.5z" />
<glyph unicode="t" horiz-adv-x="681" d="M37 827v226h135v303h295v-303h156v-226h-156v-532q0 -37 20.5 -53.5t75.5 -16.5q31 0 60 6v-231q-94 -12 -142 -12q-158 0 -233.5 57t-75.5 217v565h-135z" />
<glyph unicode="u" horiz-adv-x="1249" d="M141 338v715h295v-641q0 -104 53.5 -153.5t131.5 -49.5q88 0 140 68.5t52 177.5v598h295v-1053h-283v137h-4q-115 -166 -311 -166q-182 0 -275.5 102.5t-93.5 264.5z" />
<glyph unicode="v" d="M20 1053h324l223 -697h4l224 697h323l-395 -1053h-307z" />
<glyph unicode="w" horiz-adv-x="1703" d="M20 1053h314l174 -717h4l186 717h308l186 -717h4l174 717h313l-335 -1053h-310l-184 698h-4l-184 -698h-310z" />
<glyph unicode="x" d="M20 0l369 526l-360 527h370l168 -291l178 291h363l-369 -516l379 -537h-373l-186 301l-178 -301h-361z" />
<glyph unicode="y" d="M20 1053h324l223 -697h4l224 697h323l-569 -1512h-309l176 459z" />
<glyph unicode="z" horiz-adv-x="1024" d="M68 0v213l514 602h-486v238h860v-213l-507 -602h507v-238h-888z" />
<glyph unicode="{" horiz-adv-x="681" d="M39 510v188q61 0 113.5 40t52.5 124v463q0 129 88 203t186 74h183v-189h-89q-68 0 -89 -41t-21 -121v-417q0 -115 -70.5 -167.5t-156.5 -60.5v-4q86 -8 156.5 -60.5t70.5 -166.5v-418q0 -80 21.5 -121t88.5 -41h89v-188h-183q-98 0 -186 73.5t-88 202.5v463 q0 84 -52.5 124t-113.5 40z" />
<glyph unicode="|" horiz-adv-x="454" d="M121 -29v1598h213v-1598h-213z" />
<glyph unicode="}" horiz-adv-x="681" d="M20 -205h89q68 0 89 41t21 121v418q0 115 70.5 167t156.5 60v4q-86 8 -156.5 60.5t-70.5 167.5v417q0 80 -21.5 121t-88.5 41h-89v189h183q98 0 186 -74t88 -203v-463q0 -84 52.5 -124t113.5 -40v-188q-61 0 -113.5 -40t-52.5 -124v-463q0 -129 -88 -202.5t-186 -73.5 h-183v188z" />
<glyph unicode="~" horiz-adv-x="1228" d="M141 510q94 180 256 180q23 0 46.5 -3t39 -6t39 -13.5t32.5 -14.5t38 -17t37 -18q18 -8 52 -24t51.5 -24.5t46 -15.5t55.5 -7q39 0 73.5 24.5t55 51t51.5 73.5l73 -170q-41 -55 -67.5 -85.5t-77.5 -60.5t-111 -30q-23 0 -45 3t-36.5 6t-36 12.5t-29.5 13.5t-33.5 17.5 t-32.5 17.5q-4 2 -19 10t-20.5 10t-19.5 9.5t-21.5 10.5t-20.5 8t-22.5 7t-23.5 5t-26.5 5t-27 3t-30.5 1q-106 0 -172 -149z" />
<glyph unicode="&#xa1;" horiz-adv-x="679" d="M168 962.5q0 69.5 51 121t121 51.5t121 -51.5t51 -121t-51 -120.5t-121 -51t-121 51t-51 120.5zM193 -430v1057h294v-1057h-294z" />
<glyph unicode="&#xa2;" d="M76 516q0 240 121.5 393.5t332.5 171.5v195h111v-195q199 -14 305.5 -133t116.5 -286l-307 -13q-6 152 -115 182v-614q109 23 129 164l289 -10q-70 -375 -418 -396v-200h-111v200q-221 20 -337.5 165t-116.5 376zM383 504q0 -240 147 -287v614q-147 -45 -147 -327z" />
<glyph unicode="&#xa3;" d="M61 197q113 59 176.5 129.5t63.5 181.5q0 76 -35 184h-203v127h146q-23 29 -56.5 120t-33.5 183q0 166 114.5 292t335.5 126q229 0 344 -109.5t146 -320.5h-301q-2 80 -46 130t-126 50q-172 0 -172 -176q0 -41 20.5 -101.5t32.5 -87t53 -106.5h311v-127h-272 q12 -55 12 -112q0 -84 -38.5 -160t-145.5 -170l4 -4q92 23 125 22q37 0 143.5 -21.5t126.5 -21.5q121 0 222 82l69 -248q-147 -84 -268 -84q-70 0 -202 40t-193 40q-127 0 -248 -80z" />
<glyph unicode="&#xa4;" d="M43 346l117 119q-98 98 -98.5 292.5t98.5 293.5l-117 118l117 115l116 -113q111 94 293.5 94.5t292.5 -94.5l117 113l117 -115l-117 -118q98 -98 98 -293t-98 -293l117 -119l-117 -115l-117 113q-111 -94 -293 -94t-293 94l-116 -113zM274 758q0 -123 86 -209t209 -86 t209 86t86 209t-86 209t-209 86t-209 -86t-86 -209z" />
<glyph unicode="&#xa5;" d="M31 1516h313l225 -582l244 582h295l-320 -705h203v-176h-282l-11 -25v-116h293v-177h-293v-317h-258v317h-293v177h293v116l-10 25h-283v176h203z" />
<glyph unicode="&#xa6;" horiz-adv-x="454" d="M121 -29v598h213v-598h-213zM121 971v598h213v-598h-213z" />
<glyph unicode="&#xa7;" d="M84 553q0 123 58.5 214t166.5 136q-156 94 -155 283q0 39 9 83t37.5 99t72.5 98t123 73t182 30q209 0 310 -108.5t111 -282.5h-282q-2 76 -43 116q-37 37 -105 37q-55 0 -94 -34.5t-39 -92.5q0 -72 63.5 -116t154.5 -74.5t182.5 -71.5t155 -131t63.5 -227 q0 -242 -219 -348q156 -84 155 -297q0 -168 -111.5 -283t-324.5 -115q-387 0 -422 385h283q10 -70 43 -106q37 -41 100 -41q66 0 108 33.5t42 105.5q0 59 -35 100t-89.5 66t-121 46.5t-134 51t-121.5 71.5t-89 119t-35 181zM379 567q0 -201 194 -200q90 0 138.5 55t48.5 135 q0 209 -199 209q-76 0 -129 -51t-53 -148z" />
<glyph unicode="&#xa8;" horiz-adv-x="569" d="M-88 1386.5q0 63.5 45 108.5t108.5 45t108.5 -45t45 -108.5t-45 -108.5t-108.5 -45t-108.5 45t-45 108.5zM350 1386.5q0 63.5 45 108.5t108.5 45t108.5 -45t45 -108.5t-45 -108.5t-108.5 -45t-108.5 45t-45 108.5z" />
<glyph unicode="&#xa9;" horiz-adv-x="1638" d="M20 770q0 330 234.5 564.5t564.5 234.5t564.5 -234.5t234.5 -564.5t-234.5 -564.5t-564.5 -234.5t-564.5 234.5t-234.5 564.5zM233 770q0 -270 170 -446.5t416 -176.5q244 0 415 176.5t171 446.5q0 268 -172 445.5t-414 177.5q-246 0 -416 -176.5t-170 -446.5zM399 776 q0 207 121 338t326 131q152 0 256 -86t127 -244h-189q-14 76 -70.5 115t-135.5 39q-111 0 -172.5 -79t-61.5 -212q0 -125 65.5 -210t172.5 -85q84 0 139 41t63 117h197q-25 -158 -132.5 -246t-254.5 -88q-203 0 -327 133t-124 336z" />
<glyph unicode="&#xaa;" horiz-adv-x="811" d="M55 1110q0 90 69 135t163 53l207 15v18q0 37 -32 61.5t-81 24.5q-43 0 -74 -23.5t-35 -58.5h-196q8 121 106 183q82 51 215 51q135 0 222.5 -51.5t87.5 -153.5v-367q0 -41 10 -77h-211v81h-4q-47 -98 -207 -98q-96 0 -168 49t-72 158zM268 1122q0 -35 29 -51t59 -16 q41 0 89.5 27.5t48.5 78.5v27l-123 -10q-102 -10 -103 -56z" />
<glyph unicode="&#xab;" d="M133 537l221 372h226l-226 -372l215 -373h-225zM559 537l221 372h226l-226 -372l215 -373h-225z" />
<glyph unicode="&#xac;" horiz-adv-x="1228" d="M96 635v213h1037v-627h-213v414h-824z" />
<glyph unicode="&#xad;" horiz-adv-x="681" d="M41 399v275h600v-275h-600z" />
<glyph unicode="&#xae;" horiz-adv-x="1638" d="M20 770q0 330 234.5 564.5t564.5 234.5t564.5 -234.5t234.5 -564.5t-234.5 -564.5t-564.5 -234.5t-564.5 234.5t-234.5 564.5zM233 770q0 -270 170 -446.5t416 -176.5q244 0 415 176.5t171 446.5q0 268 -172 445.5t-414 177.5q-246 0 -416 -176.5t-170 -446.5zM500 330 v882h334q176 0 264 -60t88 -204q0 -215 -234 -235l234 -383h-195l-211 375h-104v-375h-176zM676 840h178q78 0 117 25.5t39 99.5q0 113 -176 112h-158v-237z" />
<glyph unicode="&#xaf;" horiz-adv-x="569" d="M-12 1280v135h594v-135h-594z" />
<glyph unicode="&#xb0;" horiz-adv-x="819" d="M117 1247q0 123 85 208t207.5 85t207.5 -85t85 -208t-85 -208t-207.5 -85t-207.5 85t-85 208zM252 1247.5q0 -65.5 46 -111.5t111.5 -46t111.5 46t46 111.5t-46 111.5t-111.5 46t-111.5 -46t-46 -111.5z" />
<glyph unicode="&#xb1;" horiz-adv-x="1228" d="M96 0v213h1037v-213h-1037zM96 553v213h412v270h213v-270h412v-213h-412v-272h-213v272h-412z" />
<glyph unicode="&#xb2;" horiz-adv-x="739" d="M41 614v140l270 274q115 117 138.5 153t23.5 95q0 88 -104 88q-117 0 -117 -145h-197q0 94 32 160.5t83 99t101.5 47t101.5 14.5q137 0 225 -74.5t88 -187.5q0 -86 -46 -158.5t-173 -187.5l-154 -141h385v-177h-657z" />
<glyph unicode="&#xb3;" horiz-adv-x="739" d="M31 881l213 16q6 -106 114 -106q53 0 89 38.5t36 90.5q0 57 -35.5 88.5t-101.5 31.5q-49 1 -123 -28v168l189 184h-346v176h583v-162l-207 -202q121 0 194 -73t73 -188q0 -133 -98.5 -217t-258.5 -84q-117 0 -214 61.5t-107 205.5z" />
<glyph unicode="&#xb4;" horiz-adv-x="569" d="M63 1233l181 287h276l-287 -287h-170z" />
<glyph unicode="&#xb5;" horiz-adv-x="1249" d="M141 -459v1512h295v-641q0 -104 53.5 -153.5t131.5 -49.5q88 0 140 68.5t52 177.5v598h295v-1053h-283v137h-4q-115 -166 -243 -166q-100 0 -138 66h-4v-496h-295z" />
<glyph unicode="&#xb6;" horiz-adv-x="1269" d="M12 1143q0 219 129 308t363 89h600v-1970h-213v1794h-217v-1794h-213v1188q-213 0 -331 101.5t-118 283.5z" />
<glyph unicode="&#xb7;" horiz-adv-x="569" d="M113 606.5q0 69.5 50 120.5t121.5 51t122 -51t50.5 -120.5t-50.5 -121t-122 -51.5t-121.5 51.5t-50 121z" />
<glyph unicode="&#xb8;" horiz-adv-x="569" d="M43 -426l39 109q86 -37 145 -37q113 0 113 78q0 31 -23.5 53t-70.5 22q-53 0 -82 -18l-45 39l135 192h139l-78 -106l4 -4q33 4 56 4q70 0 116 -49.5t46 -128.5q0 -94 -69 -150.5t-181 -56.5q-147 0 -244 53z" />
<glyph unicode="&#xb9;" horiz-adv-x="739" d="M84 1184v178q182 88 266 178h152v-926h-213v680q-70 -57 -205 -110z" />
<glyph unicode="&#xba;" horiz-adv-x="811" d="M55 1235q0 152 97.5 243t253 91t253 -91.5t97.5 -243t-97.5 -241.5t-253 -90t-253 91t-97.5 241zM281 1237q0 -84 35.5 -127t89.5 -43q55 0 89.5 43t34.5 127t-34.5 126t-89.5 42q-53 0 -89 -42t-36 -126z" />
<glyph unicode="&#xbb;" d="M133 909h225l222 -372l-211 -373h-226l215 373zM559 909h225l222 -372l-211 -373h-226l215 373z" />
<glyph unicode="&#xbc;" horiz-adv-x="1708" d="M92 1184v178q182 88 266 178h152v-926h-213v680q-70 -57 -205 -110zM293 -25l874 1565h168l-866 -1565h-176zM975 217v162l354 530h217v-540h113v-152h-113v-217h-196v217h-375zM1137 369h213v327h-4z" />
<glyph unicode="&#xbd;" horiz-adv-x="1708" d="M92 1184v178q182 88 266 178h152v-926h-213v680q-70 -57 -205 -110zM276 -25l875 1565h168l-866 -1565h-177zM958 0v139l271 275q115 117 138.5 152.5t23.5 95.5q0 88 -105 88q-117 0 -117 -146h-196q0 94 31.5 160.5t83 99.5t101.5 47.5t101 14.5q137 0 225.5 -75 t88.5 -187q0 -86 -46.5 -159t-173.5 -188l-153 -141h385v-176h-658z" />
<glyph unicode="&#xbe;" horiz-adv-x="1708" d="M49 881l213 16q6 -106 115 -106q53 0 89 38.5t36 90.5q0 57 -36 88.5t-101 31.5q-49 1 -123 -28v168l188 184h-346v176h584v-162l-207 -202q121 0 193.5 -73t72.5 -188q0 -133 -98.5 -217t-257.5 -84q-117 0 -214.5 61.5t-107.5 205.5zM381 -25l874 1565h168l-866 -1565 h-176zM975 217v162l354 530h217v-540h113v-152h-113v-217h-196v217h-375zM1137 369h213v327h-4z" />
<glyph unicode="&#xbf;" d="M109 -49q0 98 37.5 176t91 130t106.5 98t91 104.5t38 124.5v43h283v-64q0 -90 -36 -163.5t-88 -123t-104.5 -95.5t-88.5 -103.5t-36 -124.5q0 -78 48.5 -120t119.5 -42q86 0 131.5 51.5t45.5 139.5v24h282q0 -215 -126 -340t-341 -125q-188 0 -321 105.5t-133 304.5z M430 962.5q0 69.5 51 121t121 51.5t121 -51.5t51 -121t-51 -120.5t-121 -51t-121 51t-51 120.5z" />
<glyph unicode="&#xc0;" horiz-adv-x="1478" d="M20 0l562 1540h323l553 -1540h-338l-104 322h-563l-101 -322h-332zM442 1915h277l180 -287h-170zM539 571h395l-197 598h-4z" />
<glyph unicode="&#xc1;" horiz-adv-x="1478" d="M20 0l562 1540h323l553 -1540h-338l-104 322h-563l-101 -322h-332zM539 571h395l-197 598h-4zM589 1628l181 287h276l-287 -287h-170z" />
<glyph unicode="&#xc2;" horiz-adv-x="1478" d="M20 0l562 1540h323l553 -1540h-338l-104 322h-563l-101 -322h-332zM408 1616l219 299h225l219 -299h-188l-143 184l-144 -184h-188zM539 571h395l-197 598h-4z" />
<glyph unicode="&#xc3;" horiz-adv-x="1478" d="M20 0l562 1540h323l553 -1540h-338l-104 322h-563l-101 -322h-332zM379 1630q12 98 67.5 169t155.5 71q59 0 154 -37q104 -39 129 -39q82 0 98 86h117q-12 -96 -66.5 -167t-154.5 -71q-59 0 -154 37q-104 39 -129 39q-84 0 -100 -88h-117zM539 571h395l-197 598h-4z" />
<glyph unicode="&#xc4;" horiz-adv-x="1478" d="M20 0l562 1540h323l553 -1540h-338l-104 322h-563l-101 -322h-332zM367 1781.5q0 63.5 45 108.5t108.5 45t108.5 -45t45 -108.5t-45 -108.5t-108.5 -45t-108.5 45t-45 108.5zM539 571h395l-197 598h-4zM805 1781.5q0 63.5 45 108.5t108.5 45t108.5 -45t45 -108.5 t-45 -108.5t-108.5 -45t-108.5 45t-45 108.5z" />
<glyph unicode="&#xc5;" horiz-adv-x="1478" d="M20 0l562 1540h323l553 -1540h-338l-104 322h-563l-101 -322h-332zM529 1798q0 86 62.5 148.5t148.5 62.5q84 0 147.5 -62.5t63.5 -148.5q0 -84 -63.5 -147.5t-147.5 -63.5q-86 0 -148.5 63.5t-62.5 147.5zM539 571h395l-197 598h-4zM639 1798q0 -41 30 -70.5t71 -29.5 t70.5 29.5t29.5 70.5t-29.5 70.5t-70.5 29.5t-71 -29.5t-30 -70.5z" />
<glyph unicode="&#xc6;" horiz-adv-x="1933" d="M20 0l705 1540h1110v-274h-575v-351h555v-274h-555v-367h575v-274h-883v330h-448l-148 -330h-336zM627 592h325v711h-22z" />
<glyph unicode="&#xc7;" horiz-adv-x="1593" d="M102 770q0 350 200 574.5t517 224.5q256 0 434.5 -136t235.5 -419l-309 -21q-33 145 -127.5 223t-229.5 78q-182 0 -291.5 -151.5t-109.5 -374.5q0 -244 110.5 -383t298.5 -139q115 0 210.5 72.5t134.5 199.5l315 -22q-78 -254 -255 -389.5t-417 -135.5 q-322 0 -519.5 210t-197.5 589zM555 -426l39 109q86 -37 145 -37q113 0 113 78q0 31 -23.5 53t-70.5 22q-53 0 -82 -18l-45 39l135 192h139l-78 -106l4 -4q33 4 56 4q70 0 116 -49.5t46 -128.5q0 -94 -69 -150.5t-181 -56.5q-147 0 -244 53z" />
<glyph unicode="&#xc8;" horiz-adv-x="1251" d="M170 0v1540h983v-274h-676v-351h658v-274h-658v-367h676v-274h-983zM371 1915h277l180 -287h-170z" />
<glyph unicode="&#xc9;" horiz-adv-x="1251" d="M170 0v1540h983v-274h-676v-351h658v-274h-658v-367h676v-274h-983zM518 1628l181 287h276l-287 -287h-170z" />
<glyph unicode="&#xca;" horiz-adv-x="1251" d="M170 0v1540h983v-274h-676v-351h658v-274h-658v-367h676v-274h-983zM295 1616l219 299h225l219 -299h-188l-143 184l-144 -184h-188z" />
<glyph unicode="&#xcb;" horiz-adv-x="1251" d="M170 0v1540h983v-274h-676v-351h658v-274h-658v-367h676v-274h-983zM254 1781.5q0 63.5 45 108.5t108.5 45t108.5 -45t45 -108.5t-45 -108.5t-108.5 -45t-108.5 45t-45 108.5zM692 1781.5q0 63.5 45 108.5t108.5 45t108.5 -45t45 -108.5t-45 -108.5t-108.5 -45t-108.5 45 t-45 108.5z" />
<glyph unicode="&#xcc;" horiz-adv-x="679" d="M43 1915h277l180 -287h-170zM186 0v1540h308v-1540h-308z" />
<glyph unicode="&#xcd;" horiz-adv-x="679" d="M180 1628l181 287h276l-287 -287h-170zM186 0v1540h308v-1540h-308z" />
<glyph unicode="&#xce;" horiz-adv-x="679" d="M8 1616l219 299h225l219 -299h-188l-143 184l-144 -184h-188zM186 0v1540h308v-1540h-308z" />
<glyph unicode="&#xcf;" horiz-adv-x="679" d="M-33 1781.5q0 63.5 45 108.5t108.5 45t108.5 -45t45 -108.5t-45 -108.5t-108.5 -45t-108.5 45t-45 108.5zM186 0v1540h308v-1540h-308zM405 1781.5q0 63.5 45 108.5t108.5 45t108.5 -45t45 -108.5t-45 -108.5t-108.5 -45t-108.5 45t-45 108.5z" />
<glyph unicode="&#xd0;" horiz-adv-x="1593" d="M10 717v188h160v635h580q352 0 546.5 -199.5t194.5 -570.5q0 -354 -212 -562t-521 -208h-588v717h-160zM477 262h260q113 0 200 45t136 121t73.5 163t24.5 181q0 102 -23.5 188.5t-74.5 160t-143 115.5t-217 42h-236v-373h404v-188h-404v-455z" />
<glyph unicode="&#xd1;" horiz-adv-x="1593" d="M170 0v1540h330l624 -1034h4v1034h295v-1540h-317l-637 1051h-4v-1051h-295zM436 1630q12 98 67.5 169t155.5 71q59 0 154 -37q104 -39 129 -39q82 0 98 86h117q-12 -96 -66.5 -167t-154.5 -71q-59 0 -154 37q-104 39 -129 39q-84 0 -100 -88h-117z" />
<glyph unicode="&#xd2;" horiz-adv-x="1703" d="M102 770q0 211 85 390t259.5 294t405.5 115t405.5 -115t259.5 -294t85 -390t-85 -390t-259.5 -294t-405.5 -115t-405.5 115t-259.5 294t-85 390zM422 770q0 -221 112.5 -372.5t317.5 -151.5t317.5 151.5t112.5 372.5t-112.5 372.5t-317.5 151.5t-317.5 -151.5 t-112.5 -372.5zM575 1915h277l180 -287h-170z" />
<glyph unicode="&#xd3;" horiz-adv-x="1703" d="M102 770q0 211 85 390t259.5 294t405.5 115t405.5 -115t259.5 -294t85 -390t-85 -390t-259.5 -294t-405.5 -115t-405.5 115t-259.5 294t-85 390zM422 770q0 -221 112.5 -372.5t317.5 -151.5t317.5 151.5t112.5 372.5t-112.5 372.5t-317.5 151.5t-317.5 -151.5 t-112.5 -372.5zM671 1628l181 287h276l-287 -287h-170z" />
<glyph unicode="&#xd4;" horiz-adv-x="1703" d="M102 770q0 211 85 390t259.5 294t405.5 115t405.5 -115t259.5 -294t85 -390t-85 -390t-259.5 -294t-405.5 -115t-405.5 115t-259.5 294t-85 390zM422 770q0 -221 112.5 -372.5t317.5 -151.5t317.5 151.5t112.5 372.5t-112.5 372.5t-317.5 151.5t-317.5 -151.5 t-112.5 -372.5zM520 1616l219 299h225l219 -299h-188l-143 184l-144 -184h-188z" />
<glyph unicode="&#xd5;" horiz-adv-x="1703" d="M102 770q0 211 85 390t259.5 294t405.5 115t405.5 -115t259.5 -294t85 -390t-85 -390t-259.5 -294t-405.5 -115t-405.5 115t-259.5 294t-85 390zM422 770q0 -221 112.5 -372.5t317.5 -151.5t317.5 151.5t112.5 372.5t-112.5 372.5t-317.5 151.5t-317.5 -151.5 t-112.5 -372.5zM491 1630q12 98 67.5 169t155.5 71q59 0 154 -37q104 -39 129 -39q82 0 98 86h117q-12 -96 -66.5 -167t-154.5 -71q-59 0 -154 37q-104 39 -129 39q-84 0 -100 -88h-117z" />
<glyph unicode="&#xd6;" horiz-adv-x="1703" d="M102 770q0 211 85 390t259.5 294t405.5 115t405.5 -115t259.5 -294t85 -390t-85 -390t-259.5 -294t-405.5 -115t-405.5 115t-259.5 294t-85 390zM422 770q0 -221 112.5 -372.5t317.5 -151.5t317.5 151.5t112.5 372.5t-112.5 372.5t-317.5 151.5t-317.5 -151.5 t-112.5 -372.5zM479 1781.5q0 63.5 45 108.5t108.5 45t108.5 -45t45 -108.5t-45 -108.5t-108.5 -45t-108.5 45t-45 108.5zM917 1781.5q0 63.5 45 108.5t108.5 45t108.5 -45t45 -108.5t-45 -108.5t-108.5 -45t-108.5 45t-45 108.5z" />
<glyph unicode="&#xd7;" horiz-adv-x="1228" d="M135 186l332 332l-332 332l148 147l331 -331l332 331l148 -147l-334 -332l334 -332l-148 -147l-332 334l-331 -334z" />
<glyph unicode="&#xd8;" horiz-adv-x="1703" d="M68 35l202 215q-168 215 -168 520q0 211 85 390t259.5 294t405.5 115q293 0 489 -180l199 208l96 -92l-202 -215q168 -215 168 -520q0 -211 -85 -390t-259.5 -294t-405.5 -115q-295 0 -490 183l-198 -211zM422 770q-1 -166 65 -291l654 695q-111 121 -289 120 q-205 0 -317.5 -151.5t-112.5 -372.5zM563 367q111 -121 289 -121q205 0 317.5 151.5t112.5 372.5q0 166 -63 293z" />
<glyph unicode="&#xd9;" horiz-adv-x="1593" d="M156 639v901h307v-903q0 -193 85 -292t249 -99t248.5 99t84.5 292v903h308v-901q0 -338 -182.5 -503t-459 -165t-458.5 165t-182 503zM489 1915h277l180 -287h-170z" />
<glyph unicode="&#xda;" horiz-adv-x="1593" d="M156 639v901h307v-903q0 -193 85 -292t249 -99t248.5 99t84.5 292v903h308v-901q0 -338 -182.5 -503t-459 -165t-458.5 165t-182 503zM647 1628l181 287h276l-287 -287h-170z" />
<glyph unicode="&#xdb;" horiz-adv-x="1593" d="M156 639v901h307v-903q0 -193 85 -292t249 -99t248.5 99t84.5 292v903h308v-901q0 -338 -182.5 -503t-459 -165t-458.5 165t-182 503zM465 1616l219 299h225l219 -299h-188l-143 184l-144 -184h-188z" />
<glyph unicode="&#xdc;" horiz-adv-x="1593" d="M156 639v901h307v-903q0 -193 85 -292t249 -99t248.5 99t84.5 292v903h308v-901q0 -338 -182.5 -503t-459 -165t-458.5 165t-182 503zM424 1781.5q0 63.5 45 108.5t108.5 45t108.5 -45t45 -108.5t-45 -108.5t-108.5 -45t-108.5 45t-45 108.5zM862 1781.5q0 63.5 45 108.5 t108.5 45t108.5 -45t45 -108.5t-45 -108.5t-108.5 -45t-108.5 45t-45 108.5z" />
<glyph unicode="&#xdd;" horiz-adv-x="1251" d="M20 1540h359l252 -592l262 592h338l-449 -924v-616h-307v616zM477 1628l181 287h276l-287 -287h-170z" />
<glyph unicode="&#xde;" horiz-adv-x="1251" d="M170 0v1540h307v-264h195q98 0 186 -24.5t170 -77t130 -152.5t48 -236q0 -127 -44 -224t-118.5 -152.5t-162.5 -83t-185 -27.5h-219v-299h-307zM477 561h172q137 0 193.5 65.5t56.5 159.5q0 90 -62.5 159t-185.5 69h-174v-453z" />
<glyph unicode="&#xdf;" horiz-adv-x="1249" d="M141 0v1096q0 201 126 328.5t356 127.5q188 0 323 -102t137 -289q0 -207 -184 -321v-4q102 -10 183 -101.5t81 -263.5q0 -207 -131 -345t-340 -138q-66 0 -139 12v254q49 -4 70 -4q233 0 233 215q0 63 -21.5 108t-48 68t-71.5 34t-70.5 13t-64.5 2v238q45 0 70.5 4 t63.5 20.5t56 59.5t18 112q0 98 -53 138.5t-125 40.5q-174 0 -174 -220v-1083h-295z" />
<glyph unicode="&#xe0;" horiz-adv-x="1251" d="M98 293q0 41 6.5 74.5t34 80t72.5 78t132 58t204 32.5l272 17v49q0 92 -54 139t-153 47q-90 0 -142 -42t-56 -113h-283q10 147 127 257.5t367 110.5q211 0 344 -84t133 -256v-610q0 -63 14 -131h-285v137h-4q-127 -166 -360 -166q-145 0 -257 79t-112 243zM330 1520h277 l180 -287h-170zM393 307q0 -123 185 -123q84 0 162.5 46t78.5 132v97l-246 -23q-98 -8 -139 -38.5t-41 -90.5z" />
<glyph unicode="&#xe1;" horiz-adv-x="1251" d="M98 293q0 41 6.5 74.5t34 80t72.5 78t132 58t204 32.5l272 17v49q0 92 -54 139t-153 47q-90 0 -142 -42t-56 -113h-283q10 147 127 257.5t367 110.5q211 0 344 -84t133 -256v-610q0 -63 14 -131h-285v137h-4q-127 -166 -360 -166q-145 0 -257 79t-112 243zM393 307 q0 -123 185 -123q84 0 162.5 46t78.5 132v97l-246 -23q-98 -8 -139 -38.5t-41 -90.5zM477 1233l181 287h276l-287 -287h-170z" />
<glyph unicode="&#xe2;" horiz-adv-x="1251" d="M98 293q0 41 6.5 74.5t34 80t72.5 78t132 58t204 32.5l272 17v49q0 92 -54 139t-153 47q-90 0 -142 -42t-56 -113h-283q10 147 127 257.5t367 110.5q211 0 344 -84t133 -256v-610q0 -63 14 -131h-285v137h-4q-127 -166 -360 -166q-145 0 -257 79t-112 243zM295 1221 l219 299h225l219 -299h-188l-143 184l-144 -184h-188zM393 307q0 -123 185 -123q84 0 162.5 46t78.5 132v97l-246 -23q-98 -8 -139 -38.5t-41 -90.5z" />
<glyph unicode="&#xe3;" horiz-adv-x="1251" d="M98 293q0 41 6.5 74.5t34 80t72.5 78t132 58t204 32.5l272 17v49q0 92 -54 139t-153 47q-90 0 -142 -42t-56 -113h-283q10 147 127 257.5t367 110.5q211 0 344 -84t133 -256v-610q0 -63 14 -131h-285v137h-4q-127 -166 -360 -166q-145 0 -257 79t-112 243zM266 1235 q12 98 67.5 169t155.5 71q59 0 154 -37q104 -39 129 -39q82 0 98 86h117q-12 -96 -66.5 -167t-154.5 -71q-59 0 -154 37q-104 39 -129 39q-84 0 -100 -88h-117zM393 307q0 -123 185 -123q84 0 162.5 46t78.5 132v97l-246 -23q-98 -8 -139 -38.5t-41 -90.5z" />
<glyph unicode="&#xe4;" horiz-adv-x="1251" d="M98 293q0 41 6.5 74.5t34 80t72.5 78t132 58t204 32.5l272 17v49q0 92 -54 139t-153 47q-90 0 -142 -42t-56 -113h-283q10 147 127 257.5t367 110.5q211 0 344 -84t133 -256v-610q0 -63 14 -131h-285v137h-4q-127 -166 -360 -166q-145 0 -257 79t-112 243zM254 1386.5 q0 63.5 45 108.5t108.5 45t108.5 -45t45 -108.5t-45 -108.5t-108.5 -45t-108.5 45t-45 108.5zM393 307q0 -123 185 -123q84 0 162.5 46t78.5 132v97l-246 -23q-98 -8 -139 -38.5t-41 -90.5zM692 1386.5q0 63.5 45 108.5t108.5 45t108.5 -45t45 -108.5t-45 -108.5t-108.5 -45 t-108.5 45t-45 108.5z" />
<glyph unicode="&#xe5;" horiz-adv-x="1251" d="M98 293q0 41 6.5 74.5t34 80t72.5 78t132 58t204 32.5l272 17v49q0 92 -54 139t-153 47q-90 0 -142 -42t-56 -113h-283q10 147 127 257.5t367 110.5q211 0 344 -84t133 -256v-610q0 -63 14 -131h-285v137h-4q-127 -166 -360 -166q-145 0 -257 79t-112 243zM393 307 q0 -123 185 -123q84 0 162.5 46t78.5 132v97l-246 -23q-98 -8 -139 -38.5t-41 -90.5zM416 1403q0 86 62.5 148.5t148.5 62.5q84 0 147.5 -62.5t63.5 -148.5q0 -84 -63.5 -147.5t-147.5 -63.5q-86 0 -148.5 63.5t-62.5 147.5zM526 1403q0 -41 30 -70.5t71 -29.5t70.5 29.5 t29.5 70.5t-29.5 70.5t-70.5 29.5t-71 -29.5t-30 -70.5z" />
<glyph unicode="&#xe6;" horiz-adv-x="1933" d="M92 293q0 41 7 77t39 87t86.5 87t158.5 61.5t248 25.5h157v51q0 186 -182 186q-98 0 -152.5 -41.5t-58.5 -113.5h-270q10 147 127 257.5t366 110.5q231 0 371 -131q59 59 144.5 95t169.5 36q240 0 389 -152.5t149 -404.5v-82h-770q10 -102 72.5 -173.5t173.5 -71.5 q150 0 211 125l287 -23q-53 -160 -188.5 -244t-323.5 -84q-141 0 -233.5 46t-182.5 145q-100 -106 -188.5 -147.5t-237.5 -43.5q-145 0 -257 79t-112 243zM387 307q0 -123 172 -123q76 0 152.5 46t76.5 132v80h-141q-160 0 -210 -34.5t-50 -100.5zM1071 631h475 q-8 86 -69.5 155.5t-159.5 69.5q-109 0 -170.5 -63.5t-75.5 -161.5z" />
<glyph unicode="&#xe7;" d="M86 516q0 256 137 410.5t375 154.5q223 0 344 -119.5t133 -299.5l-307 -13q-8 182 -170 182q-205 0 -205 -327q0 -121 48 -208t155 -87q160 0 186 172l289 -10q-37 -184 -150.5 -292t-316.5 -108q-252 0 -385 147.5t-133 397.5zM328 -426l39 109q86 -37 145 -37 q113 0 113 78q0 31 -23.5 53t-70.5 22q-53 0 -82 -18l-45 39l135 192h139l-78 -106l4 -4q33 4 56 4q70 0 116 -49.5t46 -128.5q0 -94 -69 -150.5t-181 -56.5q-147 0 -244 53z" />
<glyph unicode="&#xe8;" horiz-adv-x="1249" d="M86 524q0 252 149.5 404.5t389 152.5t389 -152.5t149.5 -404.5v-82h-770q10 -102 72.5 -173.5t173.5 -71.5q147 0 211 125l287 -23q-53 -160 -188.5 -244t-323.5 -84q-240 0 -389.5 151.5t-149.5 401.5zM368 1520h277l180 -287h-170zM393 631h475q-8 86 -69.5 155.5 t-159.5 69.5q-109 0 -170.5 -63.5t-75.5 -161.5z" />
<glyph unicode="&#xe9;" horiz-adv-x="1249" d="M86 524q0 252 149.5 404.5t389 152.5t389 -152.5t149.5 -404.5v-82h-770q10 -102 72.5 -173.5t173.5 -71.5q147 0 211 125l287 -23q-53 -160 -188.5 -244t-323.5 -84q-240 0 -389.5 151.5t-149.5 401.5zM393 631h475q-8 86 -69.5 155.5t-159.5 69.5q-109 0 -170.5 -63.5 t-75.5 -161.5zM516 1233l181 287h276l-287 -287h-170z" />
<glyph unicode="&#xea;" horiz-adv-x="1249" d="M86 524q0 252 149.5 404.5t389 152.5t389 -152.5t149.5 -404.5v-82h-770q10 -102 72.5 -173.5t173.5 -71.5q147 0 211 125l287 -23q-53 -160 -188.5 -244t-323.5 -84q-240 0 -389.5 151.5t-149.5 401.5zM293 1221l219 299h225l219 -299h-188l-143 184l-144 -184h-188z M393 631h475q-8 86 -69.5 155.5t-159.5 69.5q-109 0 -170.5 -63.5t-75.5 -161.5z" />
<glyph unicode="&#xeb;" horiz-adv-x="1249" d="M86 524q0 252 149.5 404.5t389 152.5t389 -152.5t149.5 -404.5v-82h-770q10 -102 72.5 -173.5t173.5 -71.5q147 0 211 125l287 -23q-53 -160 -188.5 -244t-323.5 -84q-240 0 -389.5 151.5t-149.5 401.5zM252 1386.5q0 63.5 45 108.5t108.5 45t108.5 -45t45 -108.5 t-45 -108.5t-108.5 -45t-108.5 45t-45 108.5zM393 631h475q-8 86 -69.5 155.5t-159.5 69.5q-109 0 -170.5 -63.5t-75.5 -161.5zM690 1386.5q0 63.5 45 108.5t108.5 45t108.5 -45t45 -108.5t-45 -108.5t-108.5 -45t-108.5 45t-45 108.5z" />
<glyph unicode="&#xec;" horiz-adv-x="569" d="M-12 1520h277l180 -287h-170zM137 0v1053h295v-1053h-295z" />
<glyph unicode="&#xed;" horiz-adv-x="569" d="M124 1233l181 287h276l-287 -287h-170zM137 0v1053h295v-1053h-295z" />
<glyph unicode="&#xee;" horiz-adv-x="569" d="M-47 1221l219 299h225l219 -299h-188l-143 184l-144 -184h-188zM137 0v1053h295v-1053h-295z" />
<glyph unicode="&#xef;" horiz-adv-x="569" d="M-88 1386.5q0 63.5 45 108.5t108.5 45t108.5 -45t45 -108.5t-45 -108.5t-108.5 -45t-108.5 45t-45 108.5zM137 0v1053h295v-1053h-295zM350 1386.5q0 63.5 45 108.5t108.5 45t108.5 -45t45 -108.5t-45 -108.5t-108.5 -45t-108.5 45t-45 108.5z" />
<glyph unicode="&#xf0;" horiz-adv-x="1249" d="M86 524q0 252 140.5 404.5t355.5 152.5q129 0 227 -69h4q-82 164 -235 291l-252 -111l-115 104l246 109q-90 70 -197 129l242 117q104 -74 186 -144l256 113l103 -109l-240 -106q182 -172 269 -361.5t87 -435.5q0 -135 -29.5 -245.5t-91 -200.5t-168 -140.5t-249.5 -50.5 q-240 0 -389.5 151.5t-149.5 401.5zM393 524q0 -137 63.5 -226t170.5 -89q102 0 165.5 89t63.5 226q0 139 -63.5 229.5t-165.5 90.5q-106 0 -170 -89t-64 -231z" />
<glyph unicode="&#xf1;" horiz-adv-x="1249" d="M141 0v1053h283v-138h4q115 166 311 166q182 0 275.5 -102t93.5 -264v-715h-295v641q0 104 -53 153.5t-131 49.5q-88 0 -140.5 -68.5t-52.5 -177.5v-598h-295zM264 1235q12 98 67.5 169t155.5 71q59 0 154 -37q104 -39 129 -39q82 0 98 86h117q-12 -96 -66.5 -167 t-154.5 -71q-59 0 -154 37q-104 39 -129 39q-84 0 -100 -88h-117z" />
<glyph unicode="&#xf2;" horiz-adv-x="1249" d="M86 526q0 252 149.5 403.5t389 151.5t389 -151.5t149.5 -403.5t-149.5 -403.5t-389 -151.5t-389 151.5t-149.5 403.5zM348 1520h277l180 -287h-170zM393 526.5q0 -143.5 59.5 -230.5t172 -87t172 87t59.5 230.5t-59.5 230.5t-172 87t-172 -87t-59.5 -230.5z" />
<glyph unicode="&#xf3;" horiz-adv-x="1249" d="M86 526q0 252 149.5 403.5t389 151.5t389 -151.5t149.5 -403.5t-149.5 -403.5t-389 -151.5t-389 151.5t-149.5 403.5zM393 526.5q0 -143.5 59.5 -230.5t172 -87t172 87t59.5 230.5t-59.5 230.5t-172 87t-172 -87t-59.5 -230.5zM444 1233l181 287h276l-287 -287h-170z" />
<glyph unicode="&#xf4;" horiz-adv-x="1249" d="M86 526q0 252 149.5 403.5t389 151.5t389 -151.5t149.5 -403.5t-149.5 -403.5t-389 -151.5t-389 151.5t-149.5 403.5zM293 1221l219 299h225l219 -299h-188l-143 184l-144 -184h-188zM393 526.5q0 -143.5 59.5 -230.5t172 -87t172 87t59.5 230.5t-59.5 230.5t-172 87 t-172 -87t-59.5 -230.5z" />
<glyph unicode="&#xf5;" horiz-adv-x="1249" d="M86 526q0 252 149.5 403.5t389 151.5t389 -151.5t149.5 -403.5t-149.5 -403.5t-389 -151.5t-389 151.5t-149.5 403.5zM264 1235q12 98 67.5 169t155.5 71q59 0 154 -37q104 -39 129 -39q82 0 98 86h117q-12 -96 -66.5 -167t-154.5 -71q-59 0 -154 37q-104 39 -129 39 q-84 0 -100 -88h-117zM393 526.5q0 -143.5 59.5 -230.5t172 -87t172 87t59.5 230.5t-59.5 230.5t-172 87t-172 -87t-59.5 -230.5z" />
<glyph unicode="&#xf6;" horiz-adv-x="1249" d="M86 526q0 252 149.5 403.5t389 151.5t389 -151.5t149.5 -403.5t-149.5 -403.5t-389 -151.5t-389 151.5t-149.5 403.5zM252 1386.5q0 63.5 45 108.5t108.5 45t108.5 -45t45 -108.5t-45 -108.5t-108.5 -45t-108.5 45t-45 108.5zM393 526.5q0 -143.5 59.5 -230.5t172 -87 t172 87t59.5 230.5t-59.5 230.5t-172 87t-172 -87t-59.5 -230.5zM690 1386.5q0 63.5 45 108.5t108.5 45t108.5 -45t45 -108.5t-45 -108.5t-108.5 -45t-108.5 45t-45 108.5z" />
<glyph unicode="&#xf7;" horiz-adv-x="1228" d="M96 412v213h1037v-213h-1037zM442 94.5q0 69.5 51.5 120.5t121 51t120.5 -51t51 -120.5t-51 -121t-120.5 -51.5t-121 51.5t-51.5 121zM442 942q0 70 51.5 121t121 51t120.5 -51t51 -121t-51 -121t-120.5 -51t-121 51t-51.5 121z" />
<glyph unicode="&#xf8;" horiz-adv-x="1249" d="M61 8l142 152q-117 150 -117 366q0 252 149.5 403.5t389.5 151.5q203 0 342 -110l141 149l80 -76l-141 -151q117 -150 116 -367q0 -252 -149.5 -403.5t-388.5 -151.5q-203 0 -342 111l-142 -150zM393 526q1 -84 19 -145l368 395q-59 68 -155 68q-113 0 -172.5 -87 t-59.5 -231zM465 276q68 -68 160 -67q113 0 172 87t59 230q0 89 -18 146z" />
<glyph unicode="&#xf9;" horiz-adv-x="1249" d="M141 338v715h295v-641q0 -104 53.5 -153.5t131.5 -49.5q88 0 140 68.5t52 177.5v598h295v-1053h-283v137h-4q-115 -166 -311 -166q-182 0 -275.5 102.5t-93.5 264.5zM317 1520h277l180 -287h-170z" />
<glyph unicode="&#xfa;" horiz-adv-x="1249" d="M141 338v715h295v-641q0 -104 53.5 -153.5t131.5 -49.5q88 0 140 68.5t52 177.5v598h295v-1053h-283v137h-4q-115 -166 -311 -166q-182 0 -275.5 102.5t-93.5 264.5zM475 1233l181 287h276l-287 -287h-170z" />
<glyph unicode="&#xfb;" horiz-adv-x="1249" d="M141 338v715h295v-641q0 -104 53.5 -153.5t131.5 -49.5q88 0 140 68.5t52 177.5v598h295v-1053h-283v137h-4q-115 -166 -311 -166q-182 0 -275.5 102.5t-93.5 264.5zM293 1221l219 299h225l219 -299h-188l-143 184l-144 -184h-188z" />
<glyph unicode="&#xfc;" horiz-adv-x="1249" d="M141 338v715h295v-641q0 -104 53.5 -153.5t131.5 -49.5q88 0 140 68.5t52 177.5v598h295v-1053h-283v137h-4q-115 -166 -311 -166q-182 0 -275.5 102.5t-93.5 264.5zM252 1386.5q0 63.5 45 108.5t108.5 45t108.5 -45t45 -108.5t-45 -108.5t-108.5 -45t-108.5 45 t-45 108.5zM690 1386.5q0 63.5 45 108.5t108.5 45t108.5 -45t45 -108.5t-45 -108.5t-108.5 -45t-108.5 45t-45 108.5z" />
<glyph unicode="&#xfd;" d="M20 1053h324l223 -697h4l224 697h323l-569 -1512h-309l176 459zM419 1233l181 287h276l-287 -287h-170z" />
<glyph unicode="&#xfe;" horiz-adv-x="1366" d="M160 -459v1999h295v-620h4q49 78 137 119.5t192 41.5q213 0 352.5 -164.5t139.5 -392.5q0 -229 -134 -391t-353 -162q-104 0 -183.5 39t-150.5 133h-4v-602h-295zM444 528q0 -129 70 -218t201 -89q121 0 189.5 91t68.5 220q0 131 -71 221.5t-195 90.5q-123 0 -193 -89 t-70 -227z" />
<glyph unicode="&#xff;" d="M20 1053h324l223 -697h4l224 697h323l-569 -1512h-309l176 459zM197 1386.5q0 63.5 45 108.5t108.5 45t108.5 -45t45 -108.5t-45 -108.5t-108.5 -45t-108.5 45t-45 108.5zM635 1386.5q0 63.5 45 108.5t108.5 45t108.5 -45t45 -108.5t-45 -108.5t-108.5 -45t-108.5 45 t-45 108.5z" />
<glyph unicode="&#x152;" horiz-adv-x="2048" d="M90 795q0 342 185.5 558t441.5 216q309 0 422 -195h4v166h807v-274h-514v-351h495v-274h-495v-367h514v-274h-809v178h-4q-133 -207 -406 -207q-80 0 -161 20.5t-170 78t-155.5 145.5t-110.5 238.5t-44 341.5zM397 766q0 -240 101.5 -380t271.5 -140q178 0 274.5 147.5 t96.5 374.5q0 80 -13.5 156.5t-48.5 167t-113.5 146.5t-193.5 56q-180 0 -277.5 -146.5t-97.5 -381.5z" />
<glyph unicode="&#x153;" horiz-adv-x="1933" d="M78 524q0 252 149.5 404.5t388.5 152.5q238 0 361 -161q125 162 375 161q236 0 369.5 -152.5t133.5 -416.5v-61h-741q0 -113 53.5 -183.5t159.5 -70.5q143 0 213 125l287 -23q-31 -96 -91.5 -163.5t-136 -101.5t-144.5 -48.5t-140 -14.5q-238 0 -354 166 q-135 -166 -362.5 -166t-374 152.5t-146.5 400.5zM385 524q0 -143 61.5 -223t169.5 -80q119 0 172.5 97.5t53.5 224.5q0 135 -63.5 211.5t-162.5 76.5q-104 0 -167.5 -84.5t-63.5 -222.5zM1112 627h436q0 121 -63.5 175t-151.5 54q-96 0 -152.5 -61.5t-68.5 -167.5z" />
<glyph unicode="&#x178;" horiz-adv-x="1251" d="M20 1540h359l252 -592l262 592h338l-449 -924v-616h-307v616zM254 1781.5q0 63.5 45 108.5t108.5 45t108.5 -45t45 -108.5t-45 -108.5t-108.5 -45t-108.5 45t-45 108.5zM692 1781.5q0 63.5 45 108.5t108.5 45t108.5 -45t45 -108.5t-45 -108.5t-108.5 -45t-108.5 45 t-45 108.5z" />
<glyph unicode="&#x2c6;" horiz-adv-x="569" d="M-47 1221l219 299h225l219 -299h-188l-143 184l-144 -184h-188z" />
<glyph unicode="&#x2dc;" horiz-adv-x="569" d="M-76 1235q12 98 67.5 169t155.5 71q59 0 154 -37q104 -39 129 -39q82 0 98 86h117q-12 -96 -66.5 -167t-154.5 -71q-59 0 -154 37q-104 39 -129 39q-84 0 -100 -88h-117z" />
<glyph unicode="&#x2000;" horiz-adv-x="1004" />
<glyph unicode="&#x2001;" horiz-adv-x="2009" />
<glyph unicode="&#x2002;" horiz-adv-x="1004" />
<glyph unicode="&#x2003;" horiz-adv-x="2009" />
<glyph unicode="&#x2004;" horiz-adv-x="669" />
<glyph unicode="&#x2005;" horiz-adv-x="502" />
<glyph unicode="&#x2006;" horiz-adv-x="334" />
<glyph unicode="&#x2007;" horiz-adv-x="334" />
<glyph unicode="&#x2008;" horiz-adv-x="251" />
<glyph unicode="&#x2009;" horiz-adv-x="401" />
<glyph unicode="&#x200a;" horiz-adv-x="111" />
<glyph unicode="&#x2010;" horiz-adv-x="681" d="M41 399v275h600v-275h-600z" />
<glyph unicode="&#x2011;" horiz-adv-x="681" d="M41 399v275h600v-275h-600z" />
<glyph unicode="&#x2012;" horiz-adv-x="681" d="M41 399v275h600v-275h-600z" />
<glyph unicode="&#x2013;" horiz-adv-x="1024" d="M0 424v225h1024v-225h-1024z" />
<glyph unicode="&#x2014;" horiz-adv-x="2048" d="M0 424v225h2048v-225h-2048z" />
<glyph unicode="&#x2018;" horiz-adv-x="569" d="M72 1028l233 541l193 -58l-152 -569z" />
<glyph unicode="&#x2019;" horiz-adv-x="569" d="M72 999l151 570l275 -86l-236 -541z" />
<glyph unicode="&#x201a;" horiz-adv-x="569" d="M72 -256l151 569l275 -86l-236 -540z" />
<glyph unicode="&#x201c;" d="M113 1028l233 541l193 -58l-152 -569zM600 1028l234 541l192 -58l-152 -569z" />
<glyph unicode="&#x201d;" d="M113 999l151 570l275 -86l-236 -541zM600 999l152 570l274 -86l-235 -541z" />
<glyph unicode="&#x201e;" d="M113 -256l151 569l275 -86l-236 -540zM600 -256l152 569l274 -86l-235 -540z" />
<glyph unicode="&#x2022;" horiz-adv-x="1024" d="M127 770q0 160 112.5 272.5t272.5 112.5t272.5 -112.5t112.5 -272.5t-112.5 -272.5t-272.5 -112.5t-272.5 112.5t-112.5 272.5z" />
<glyph unicode="&#x2026;" horiz-adv-x="2048" d="M170 147.5q0 69.5 50 120.5t122 51t122 -51t50 -120.5t-50 -121t-122 -51.5t-122 51.5t-50 121zM852 147.5q0 69.5 51 120.5t121 51t121 -51t51 -120.5t-51 -121t-121 -51.5t-121 51.5t-51 121zM1534 147.5q0 69.5 50 120.5t122 51t122 -51t50 -120.5t-50 -121 t-122 -51.5t-122 51.5t-50 121z" />
<glyph unicode="&#x202f;" horiz-adv-x="401" />
<glyph unicode="&#x2039;" horiz-adv-x="569" d="M61 537l222 372h225l-225 -372l215 -373h-226z" />
<glyph unicode="&#x203a;" horiz-adv-x="569" d="M61 909h226l221 -372l-211 -373h-225l215 373z" />
<glyph unicode="&#x205f;" horiz-adv-x="502" />
<glyph unicode="&#x2122;" horiz-adv-x="2048" d="M33 1376v164h692v-164h-240v-680h-213v680h-239zM893 696v844h293l203 -532l200 532h293v-844h-196v598h-5l-217 -598h-153l-217 598h-4v-598h-197z" />
<glyph unicode="&#x25fc;" horiz-adv-x="1054" d="M0 0v1055h1055v-1055h-1055z" />
<glyph unicode="&#xfb01;" horiz-adv-x="1251" d="M23 827v226h149v137q0 209 98.5 285.5t309.5 76.5h57v-249h-82q-88 0 -88 -86v-164h170v-226h-170v-827h-295v827h-149zM795 1378q0 68 50 121t122 53q68 0 120 -50t52 -120q0 -68 -51 -121t-121 -53q-72 0 -122 53.5t-50 116.5zM819 0v1053h295v-1053h-295z" />
<glyph unicode="&#xfb02;" horiz-adv-x="1251" d="M23 827v226h149v137q0 209 98.5 285.5t309.5 76.5h57v-249h-82q-88 0 -88 -86v-164h170v-226h-170v-827h-295v827h-149zM819 0v1540h295v-1540h-295z" />
</font>
</defs>
</svg>
