<?xml version="1.0" standalone="no"?>
<!DOCTYPE svg PUBLIC "-//W3C//DTD SVG 1.1//EN" "http://www.w3.org/Graphics/SVG/1.1/DTD/svg11.dtd" >
<svg xmlns="http://www.w3.org/2000/svg" xmlns:xlink="http://www.w3.org/1999/xlink" version="1.1">
<metadata></metadata>
<defs>
<font id="itc_avant_garde_gothicdemiOb" horiz-adv-x="1146" >
<font-face units-per-em="2048" ascent="1638" descent="-410" />
<missing-glyph horiz-adv-x="573" />
<glyph horiz-adv-x="0" />
<glyph unicode="&#xd;" horiz-adv-x="681" />
<glyph unicode=" "  horiz-adv-x="573" />
<glyph unicode="&#x09;" horiz-adv-x="573" />
<glyph unicode="&#xa0;" horiz-adv-x="573" />
<glyph unicode="!" horiz-adv-x="573" d="M147 0l50 260h272l-49 -260h-273zM219 385l209 1128h272l-208 -1128h-273z" />
<glyph unicode="&#x22;" horiz-adv-x="737" d="M346 1051l86 462h154l-86 -462h-154zM621 1051l86 462h153l-86 -462h-153z" />
<glyph unicode="#" d="M158 477l37 201h233l61 188h-202l39 201h227l143 449h178l-141 -449h176l142 449h184l-143 -449h184l-39 -201h-211l-59 -188h182l-37 -201h-209l-153 -477h-183l152 477h-174l-154 -477h-180l151 477h-204zM608 678h174l62 188h-176z" />
<glyph unicode="$" d="M211 485l6 25h268q-12 -74 30 -125t116 -51t135 52t74 126q12 59 -29 119q-27 37 -117 63q-55 16 -97 35t-84 45.5t-67.5 57t-46 72.5t-21.5 92.5t7 113.5q31 162 154 270q102 96 188 103l49 268h256l-49 -268q104 -43 155.5 -135.5t37.5 -212.5h-256q-2 55 -32 88.5 t-85 33.5q-35 0 -70 -19t-58.5 -50t-29.5 -66q-6 -33 1 -60.5t19.5 -44t40 -31.5t47 -22.5t52.5 -19.5q8 -2 34.5 -11t36 -12t32 -12.5t33.5 -15.5t28.5 -15.5t31 -20.5t25.5 -23q119 -119 80 -324q-31 -168 -160 -291q-111 -98 -219 -121l-51 -272h-256l51 272 q-131 23 -208 137.5t-52 249.5z" />
<glyph unicode="%" horiz-adv-x="1761" d="M260 1174q29 154 156.5 261t281.5 107q152 0 239 -107.5t58 -260.5q-29 -152 -155.5 -260.5t-278.5 -108.5q-154 0 -242 108.5t-59 260.5zM457 0l907 1513h209l-907 -1513h-209zM487 1174q-10 -57 24 -99.5t89 -42.5q39 0 75 18.5t61.5 51.5t31.5 72q12 59 -21 100 t-92 41t-107 -41t-61 -100zM1034 332q18 100 83 185t159 134t194 49q154 0 242 -107.5t60 -260.5q-18 -100 -83 -185.5t-159 -134.5t-195 -49q-154 0 -241.5 108.5t-59.5 260.5zM1264 340q-8 -39 4 -74t40.5 -55.5t67.5 -20.5q57 0 107.5 45.5t62.5 104.5q10 57 -23.5 95 t-92.5 38q-61 0 -108.5 -38t-57.5 -95z" />
<glyph unicode="&#x26;" horiz-adv-x="1392" d="M154 440q29 152 121 256.5t243 180.5q-102 133 -76 274q20 109 86 199t164.5 141t208.5 51q158 0 252 -106.5t66 -266.5q-45 -246 -308 -372l111 -156l195 252h301l-347 -457l215 -291l-231 -174l-166 217q-205 -225 -420 -225q-207 0 -330.5 137.5t-84.5 339.5zM424 428 q-16 -88 33 -144.5t137 -54.5q125 -2 244 166l-187 264q-199 -78 -227 -231zM705 1157q-6 -33 7 -68.5t23 -51t39 -52.5q51 23 82 40t62.5 52t39.5 78q6 39 -5 66.5t-37.5 42t-65.5 14.5q-55 0 -95 -34t-50 -87z" />
<glyph unicode="'" horiz-adv-x="450" d="M346 1051l86 462h156l-86 -462h-156z" />
<glyph unicode="(" horiz-adv-x="778" d="M268 627q53 295 258 544q227 281 469 340l-53 -284q-158 -104 -259 -264t-136 -340q-18 -117 -9 -225.5t56 -207.5t125 -165l-53 -287q-106 18 -191.5 106t-140.5 205q-123 268 -66 578z" />
<glyph unicode=")" horiz-adv-x="778" d="M27 -262l53 287q154 98 257 259.5t136 338.5q35 180 -8 340t-162 264l53 284q78 -20 146.5 -75.5t115 -120t80.5 -144.5q111 -250 58 -544q-57 -307 -275 -568q-98 -119 -217 -209t-237 -112z" />
<glyph unicode="*" horiz-adv-x="901" d="M360 1167l25 142l203 -13l-76 183l135 61l60 -184l129 186l102 -72l-143 -174l209 15l-27 -144l-207 13l82 -172l-127 -74l-61 188l-125 -188l-117 61l145 187z" />
<glyph unicode="+" horiz-adv-x="1228" d="M205 539l43 237h397l74 391h237l-73 -391h397l-43 -237h-397l-76 -406h-238l76 406h-397z" />
<glyph unicode="," horiz-adv-x="573" d="M96 -287l25 137q123 18 141 115l6 35h-121l52 272h272l-49 -262q-14 -82 -37 -129t-78 -94q-96 -80 -211 -74z" />
<glyph unicode="-" horiz-adv-x="860" d="M250 530l45 242h567l-45 -242h-567z" />
<glyph unicode="." horiz-adv-x="573" d="M147 0l52 272h272l-51 -272h-273z" />
<glyph unicode="/" horiz-adv-x="942" d="M4 -262l991 1775h193l-991 -1775h-193z" />
<glyph unicode="0" d="M137 360.5q2 63.5 19 147.5l92 502q45 233 186 366q55 53 127 91t145.5 56.5t147.5 18.5q68 0 130.5 -16.5t117.5 -49t92 -79.5q115 -137 68 -387l-95 -514q-43 -231 -186 -367q-84 -78 -193.5 -122t-214.5 -44q-225 0 -352 148q-45 51 -65.5 118.5t-18.5 131zM430 516 q-27 -145 14 -207q25 -37 70 -58.5t94 -21.5q115 0 199 84q66 66 90 199l94 504q20 113 -29 186.5t-161 73.5q-109 0 -195 -84q-63 -67 -86 -186z" />
<glyph unicode="1" d="M504 0l233 1255h-190l47 258h463l-281 -1513h-272z" />
<glyph unicode="2" d="M86 0l47 258l612 485q70 55 109 91t81 96.5t52 124.5q18 96 -31 158.5t-145 62.5q-115 0 -193.5 -83t-91.5 -202h-272l10 56q37 203 208 349t374 146q213 0 332.5 -142.5t78.5 -357.5q-31 -170 -178 -325l-227 -201l-338 -258h598l-47 -258h-979z" />
<glyph unicode="3" d="M115 449h274q-14 -94 46.5 -157t158.5 -63q49 0 96 19.5t85 51.5t64.5 76t34.5 91q27 137 -67 209q-66 49 -201 49h-26l47 258h18q63 0 109.5 10.5t86.5 47t50 100.5q12 61 -21.5 98t-97.5 37q-35 0 -66.5 -17.5t-52 -47t-26.5 -64.5h-273q29 162 168.5 278.5 t300.5 116.5q168 0 269.5 -117.5t70.5 -285.5q-35 -182 -180 -271q109 -41 148.5 -153.5t15.5 -249.5q-41 -217 -220 -359.5t-399 -142.5q-203 0 -324.5 142.5t-88.5 343.5z" />
<glyph unicode="4" d="M41 225l43 224l893 1064h229l-190 -1030h160l-50 -258h-159l-41 -225h-273l41 225h-653zM381 483h362l105 570z" />
<glyph unicode="5" d="M109 449h272q-6 -94 47 -157t147 -63q115 0 201 76t107 193q20 104 -42.5 180t-166.5 76q-119 0 -217 -101l-232 68l291 792h684l-47 -258h-481l-101 -278q102 43 197 43q139 0 238.5 -75t137.5 -194.5t13 -256.5q-41 -217 -223 -374t-397 -157q-199 0 -329 143.5 t-99 342.5z" />
<glyph unicode="6" d="M137 504q33 182 174 350l555 659h322l-434 -514l77 7q176 0 287 -144q106 -141 66 -360q-41 -221 -221.5 -380t-399.5 -159q-227 0 -348 156.5t-78 384.5zM408 498q-14 -72 6 -133.5t71.5 -98.5t124.5 -37q104 0 191.5 76t107.5 180q20 111 -39 190t-165 79 q-104 0 -190.5 -74t-106.5 -182z" />
<glyph unicode="7" d="M174 0l799 1255h-606l47 258h891l-48 -258l-780 -1255h-303z" />
<glyph unicode="8" d="M150 469q23 119 103 225.5t189 147.5q-55 70 -70.5 125t-0.5 153q16 86 60 164t106.5 134.5t144.5 90t170 33.5q172 0 268.5 -122t63.5 -295t-176 -283q199 -111 147 -389q-37 -201 -213 -345.5t-379 -144.5q-215 0 -333.5 145.5t-79.5 360.5zM420 457q-16 -94 39 -161 t150.5 -67t176 66.5t97.5 161.5q18 100 -36.5 168.5t-150.5 68.5q-63 0 -121.5 -30.5t-100.5 -86t-54 -120.5zM616 1120q-10 -66 29 -112.5t105 -46.5t120 47t66 112q12 63 -25.5 109.5t-103.5 46.5t-121 -45t-70 -111z" />
<glyph unicode="9" d="M227 0l428 508h-51q-205 0 -308 142.5t-67 346.5q29 150 117 274t221 197.5t285 73.5q106 0 197.5 -42t152.5 -118q115 -152 72 -383q-20 -111 -69.5 -195.5t-143.5 -197.5l-514 -606h-320zM506 1022q-20 -113 36 -188.5t169 -75.5q104 0 190 77.5t105 184.5 q20 106 -40 181t-169 75q-100 0 -185.5 -76t-105.5 -178z" />
<glyph unicode=":" horiz-adv-x="573" d="M147 0l52 272h272l-51 -272h-273zM287 756l51 272h272l-51 -272h-272z" />
<glyph unicode=";" horiz-adv-x="573" d="M96 -287l25 137q123 18 141 115l6 35h-121l52 272h272l-49 -262q-14 -82 -37 -129t-78 -94q-96 -80 -211 -74zM287 756l51 272h272l-51 -272h-272z" />
<glyph unicode="&#x3c;" horiz-adv-x="1228" d="M201 547l39 203l1128 464l-43 -227l-805 -342l680 -332l-41 -227z" />
<glyph unicode="=" horiz-adv-x="1228" d="M166 334l45 235h1032l-45 -235h-1032zM240 733l45 236h1032l-45 -236h-1032z" />
<glyph unicode="&#x3e;" horiz-adv-x="1228" d="M115 86l41 227l802 332l-677 342l43 227l956 -464l-39 -203z" />
<glyph unicode="?" d="M264 1069q45 182 150 293q80 82 193.5 131t219.5 49q82 0 159 -34.5t126 -94.5q117 -141 78 -352q-14 -72 -58.5 -140.5t-92.5 -113.5t-121 -102q-84 -61 -124 -113.5t-53 -136.5l-12 -70h-272l10 59q25 131 96 240q20 33 42 58.5t48.5 49t47 40t59.5 45.5 q70 49 109.5 92t50.5 104q12 59 -3.5 104.5t-54.5 69t-98 23.5q-90 0 -147 -54.5t-80 -146.5h-273zM385 0l49 260h273l-50 -260h-272z" />
<glyph unicode="@" horiz-adv-x="1515" d="M145 752q41 221 180.5 402t341 284.5t423.5 103.5q287 0 458 -176q195 -195 146 -465q-49 -264 -242 -428q-78 -68 -193.5 -123t-199.5 -55q-55 0 -85 27.5t-16 80.5q-106 -98 -231 -98q-158 0 -229.5 104.5t-42.5 264.5q35 193 181 336t333 143q168 0 233 -123l41 107 h197l-215 -609q-14 -37 -15 -45q-2 -14 6.5 -22t20.5 -8q23 0 54.5 16t58 36.5t47.5 41.5q51 57 88 136t49 151q49 256 -86 405.5t-393 149.5q-279 0 -491 -180.5t-263 -456.5q-53 -287 105.5 -461t447.5 -174q217 0 442 174h195q-301 -328 -682 -328q-168 0 -305 59.5 t-227.5 163t-126 251t-5.5 315.5zM711 707q-14 -76 18.5 -129.5t106.5 -53.5q94 0 166.5 69t89.5 163q14 76 -24 127t-112 51q-57 0 -111 -35t-89 -86t-45 -106z" />
<glyph unicode="A" horiz-adv-x="1515" d="M14 0l912 1513h219l356 -1513h-309l-92 391h-537l-239 -391h-310zM717 664h323l-75 458z" />
<glyph unicode="B" horiz-adv-x="1187" d="M139 0l281 1513h274h45h48.5t43 -1t47 -2t42 -4t46 -7t41 -10t43 -14.5t37.5 -18.5q86 -47 128 -141q28 -64 28 -132q0 -33 -6 -67q-16 -92 -74.5 -171t-144.5 -118q115 -39 165 -137q33 -65 33 -145q0 -40 -8 -84q-41 -221 -252 -361q-63 -41 -145 -63.5t-141.5 -28.5 t-151.5 -8h-379zM471 272h117q152 0 239 54q84 49 103 147q3 16 3 32q0 76 -75 124q-27 14 -64.5 21t-58 8t-69.5 1h-123zM592 932h53q141 0 195 22q43 18 73.5 57.5t38.5 82.5q2 13 2 26q0 30 -13 54q-19 36 -58 53q-14 6 -31.5 10t-37 5t-37 1t-40 -1t-37.5 -1h-51z" />
<glyph unicode="C" horiz-adv-x="1597" d="M203 758q39 211 177 392t336.5 286.5t407.5 105.5q231 0 408.5 -126t224.5 -335h-319q-55 86 -152.5 137.5t-210.5 51.5q-207 0 -381 -154.5t-213 -367.5q-9 -47 -9 -91q0 -83 30 -160q46 -118 149 -189.5t234 -71.5q214 0 413 176h326q-80 -135 -210 -237.5t-279.5 -157 t-294.5 -54.5q-213 0 -375 107q-163 108 -233 292q-45 116 -44 243q0 75 15 153z" />
<glyph unicode="D" horiz-adv-x="1433" d="M139 0l281 1513h317q203 -2 351.5 -37.5t250.5 -138.5q103 -102 143 -262q23 -91 22 -183q0 -71 -13 -142q-31 -160 -129 -317t-238 -259q-145 -106 -299.5 -140t-361.5 -34h-324zM471 272h35q145 0 248.5 18.5t203.5 84.5q100 68 166 166t86 209q9 50 9 97q0 68 -19 131 q-33 107 -117 173q-27 20 -57.5 35.5t-66 26t-67.5 16.5t-74 8t-72.5 3t-75.5 1h-21z" />
<glyph unicode="E" horiz-adv-x="1064" d="M139 0l281 1513h813l-51 -272h-533l-63 -348h510l-52 -272h-509l-64 -349h533l-52 -272h-813z" />
<glyph unicode="F" horiz-adv-x="983" d="M139 0l281 1513h770l-51 -272h-490l-63 -348h467l-52 -272h-466l-115 -621h-281z" />
<glyph unicode="G" horiz-adv-x="1720" d="M201 748q39 219 183 402t349 287.5t420 104.5q154 0 289 -57.5t230 -166t126 -249.5h-336q-51 92 -148 146.5t-212 54.5q-201 0 -375 -131q-92 -70 -158.5 -173.5t-85.5 -207.5q-8 -43 -8 -86q0 -52 11 -104q22 -95 77 -162q61 -82 155.5 -126t203.5 -44q135 0 272 75.5 t221 196.5h-633l49 264h988l-7 -33q-41 -215 -184 -395t-347 -280.5t-417 -100.5q-162 0 -299 60.5t-228 164t-129 250.5q-21 80 -21 166q0 70 14 144z" />
<glyph unicode="H" horiz-adv-x="1392" d="M139 0l281 1513h280l-112 -606h540l113 606h281l-281 -1513h-280l116 635h-540l-117 -635h-281z" />
<glyph unicode="I" horiz-adv-x="573" d="M139 0l281 1513h280l-280 -1513h-281z" />
<glyph unicode="J" horiz-adv-x="983" d="M84 348h281q0 -33 13 -56.5t37.5 -35.5t57.5 -12q80 0 119 49t55 135l201 1085h280l-198 -1067q-18 -104 -44 -171.5t-87 -137.5q-70 -82 -167 -128t-198 -46q-172 0 -276 107q-80 84 -80 207q0 34 6 71z" />
<glyph unicode="K" horiz-adv-x="1269" d="M139 0l281 1513h280l-120 -655l591 655h336l-708 -743l428 -770h-336l-348 664l-123 -664h-281z" />
<glyph unicode="L" horiz-adv-x="901" d="M139 0l281 1513h280l-229 -1241h463l-51 -272h-744z" />
<glyph unicode="M" horiz-adv-x="1843" d="M139 0l281 1513h383l190 -1157l627 1157h381l-281 -1513h-280l211 1135l-602 -1135h-238l-180 1135l-211 -1135h-281z" />
<glyph unicode="N" horiz-adv-x="1515" d="M139 0l281 1513h315l426 -1105l205 1105h281l-281 -1513h-311l-430 1102l-205 -1102h-281z" />
<glyph unicode="O" horiz-adv-x="1720" d="M201 750q39 217 178 399t341 287.5t416 105.5t376.5 -105.5t233.5 -287.5q46 -117 45 -250q0 -73 -13 -149q-41 -215 -181.5 -396.5t-341 -286t-412.5 -104.5t-374 105q-161 104 -235 286q-47 117 -48 246q0 73 15 150zM481 756q-9 -51 -10 -99q0 -151 93 -267 q122 -154 329 -154t386 154.5t218 365.5q10 54 10 104q0 148 -90 260q-121 150 -332 150q-139 0 -269 -68.5t-219 -187.5t-116 -258z" />
<glyph unicode="P" d="M139 0l281 1513h356h27q68 0 103.5 -1t90 -8t96.5 -24.5t78 -45.5q82 -63 117 -165q22 -63 21 -131q1 -42 -7 -86q-22 -114 -87.5 -215.5t-165.5 -170.5q-20 -14 -44 -26.5t-43.5 -22t-49 -16.5t-46 -11t-50.5 -7t-46 -5.5t-50 -3.5t-45 -1h-48h-45h-56l-106 -573h-281z M578 846h51q162 0 219 16q66 20 113 70.5t59 116.5q3 19 3 36q-1 45 -23 79q-32 46 -93 65q-43 12 -207 12h-51z" />
<glyph unicode="Q" horiz-adv-x="1720" d="M201 748q61 338 325 559q135 113 296 174t323 61t299 -60.5t228 -165t129 -254.5q21 -82 21 -169q0 -71 -14 -145q-53 -283 -272 -492q68 -41 154 -41h45l-45 -252q-19 -1 -37 -1q-193 0 -336 116q-98 -55 -220 -85t-235 -30q-162 0 -299 60.5t-227 164t-128 250.5 q-21 80 -21 166q0 70 14 144zM473 684q96 27 217 27q229 0 418 -113q158 -90 235 -180q145 125 183 325q10 54 10 104q0 152 -93 268q-124 155 -339 155q-219 0 -408 -162q-78 -66 -136.5 -158t-76.5 -184zM522 459q119 -223 416 -223q12 0 24.5 1t21.5 2t23.5 5t20.5 6 t23.5 8t20.5 7t24.5 9.5t23.5 10.5q-230 198 -452 198h-2q-80 0 -144 -24z" />
<glyph unicode="R" horiz-adv-x="1187" d="M139 0l281 1513h438q63 0 106.5 -4t95.5 -14t94 -31.5t77 -56.5q71 -68 99 -167q17 -59 16 -122q0 -42 -7 -84q-16 -84 -68 -176t-118 -153q-121 -109 -295 -146l305 -559h-346l-291 580l-106 -580h-281zM567 793h154q158 0 233 63q82 66 101 164q4 25 4 47q0 77 -53 123 q-40 33 -86 43q-39 8 -93 8h-22h-156z" />
<glyph unicode="S" horiz-adv-x="1064" d="M109 426h292q-4 -21 -4 -40q0 -60 39 -99q51 -51 139 -51q82 0 150 54t84 136q4 25 4 46.5t-5 39.5t-11 34.5t-18.5 30t-23 24.5t-28.5 21.5t-31.5 17.5t-34 15.5t-35 13.5t-34.5 13q-61 20 -93 33.5t-74 41t-71 64.5q-46 57 -62 135q-9 41 -8 82q0 37 7 74 q23 121 101.5 220.5t191 154.5t233.5 55q175 0 285 -127q85 -98 86 -226q0 -37 -8 -77h-289q2 11 2 22q1 32 -13 60q-18 37 -52.5 56.5t-77.5 19.5q-68 0 -118 -45t-63 -115q0 -23 -2 -39t6.5 -32.5t14.5 -28t20.5 -22.5t25.5 -19t29.5 -16.5t32 -14.5t31.5 -12 q6 -2 36 -13.5t38 -14.5t34.5 -13.5t37 -15.5t32 -16t33.5 -20.5t28.5 -21.5t28.5 -25q106 -98 106 -251q0 -44 -9 -93q-37 -201 -207 -340t-373 -139q-200 0 -320 134q-92 103 -92 241q0 42 9 88z" />
<glyph unicode="T" horiz-adv-x="860" d="M244 1241l51 272h842l-52 -272h-282l-230 -1241h-280l229 1241h-278z" />
<glyph unicode="U" horiz-adv-x="1310" d="M223 414q4 62 23 155l174 944h280l-174 -944q-2 -6 -6 -25.5t-5 -26.5t-4 -25.5t-3 -27.5t-1 -24.5t0 -27t3 -23.5t6 -24q20 -59 66.5 -94t109.5 -35q57 0 114.5 28.5t96.5 77.5q27 33 44.5 76t22.5 68.5t17 82.5l174 944h281l-174 -944q-27 -133 -66 -230t-123 -179 q-92 -90 -207.5 -143.5t-228.5 -53.5q-106 0 -201.5 51.5t-152.5 132.5q-41 59 -55 132q-11 57 -12 108q0 13 1 27z" />
<glyph unicode="V" horiz-adv-x="1433" d="M297 1513h295l194 -1151l621 1151h295l-866 -1513h-232z" />
<glyph unicode="W" horiz-adv-x="1843" d="M295 1513h287l67 -1058l457 1058h205l59 -1058l463 1058h287l-721 -1513h-223l-60 1001l-438 -1001h-223z" />
<glyph unicode="X" horiz-adv-x="1392" d="M10 0l662 754l-381 759h327l263 -520l456 520h328l-666 -759l385 -754h-327l-264 516l-455 -516h-328z" />
<glyph unicode="Y" horiz-adv-x="1269" d="M287 1513h309l201 -696l458 696h308l-674 -954l-105 -559h-280l104 559z" />
<glyph unicode="Z" horiz-adv-x="1024" d="M37 0l45 240l760 1001h-543l51 272h875l-47 -253l-754 -988h610l-51 -272h-946z" />
<glyph unicode="[" horiz-adv-x="655" d="M206 255q5 71 23 167l88 473q16 88 37 151.5t61 133t101 131.5q187 192 363 202l-56 -292q-33 -10 -62.5 -30t-51 -43.5t-40 -55t-30.5 -60t-22.5 -65.5t-16.5 -63.5t-12 -63.5l-86 -465q-8 -45 -12.5 -83t-2.5 -82t13.5 -76t37 -60.5t66.5 -42.5l-55 -291 q-94 4 -169 64.5t-122 148.5q-35 68 -46 149.5t-6 152.5z" />
<glyph unicode="\" horiz-adv-x="1310" d="M453 1513h213l364 -1513h-213z" />
<glyph unicode="]" horiz-adv-x="655" d="M27 -260l55 291q55 18 97 54t67.5 87t40 97t24.5 106l86 465q8 43 12.5 73.5t7.5 74.5t-2 76t-16.5 64.5t-36 56t-61.5 36.5l55 292q61 -4 118.5 -34.5t97.5 -72.5t73 -95q53 -90 61.5 -197.5t-18.5 -218.5l-88 -473q-27 -147 -71 -260t-130 -209q-80 -88 -177 -148.5 t-195 -64.5z" />
<glyph unicode="^" horiz-adv-x="1228" d="M266 741l512 772h246l225 -772l-231 -96l-172 572l-385 -572z" />
<glyph unicode="_" horiz-adv-x="1024" d="M-53 -283l35 185h1024l-35 -185h-1024z" />
<glyph unicode="`" horiz-adv-x="860" d="M432 1511l156 209l403 -276l-143 -189z" />
<glyph unicode="a" horiz-adv-x="1351" d="M166 567q45 242 221 408q206 196 456 196h3q78 0 143.5 -22.5t116.5 -66.5t84 -107l31 160h249l-210 -1135h-250l28 154q-80 -86 -197.5 -138.5t-226.5 -52.5q-258 0 -383 191q-78 120 -78 277q0 65 13 136zM436 557q-6 -33 -5 -63q0 -98 61 -172q79 -94 215 -93h6h6 q141 -1 249 95q110 98 140 245q7 38 7 73q0 96 -55 168q-73 95 -212 95h-6h-6q-146 0 -258 -97q-114 -99 -142 -251z" />
<glyph unicode="b" horiz-adv-x="1351" d="M111 0l280 1513h273l-93 -497q72 78 175.5 116.5t207.5 38.5q162 0 278 -83.5t163 -221.5q28 -83 29 -175q0 -60 -13 -124q-16 -104 -77.5 -219t-143.5 -194q-92 -90 -212 -140.5t-239 -50.5q-256 0 -350 191l-29 -154h-249zM475 582q-8 -42 -8 -79q0 -99 56 -173 q77 -100 229 -101q143 0 251.5 96.5t134.5 240.5q7 38 8 73q0 96 -54 168q-72 98 -215 98q-139 0 -258 -92t-144 -231z" />
<glyph unicode="c" horiz-adv-x="1310" d="M168 575q45 248 256 422t459 174q190 0 331.5 -115.5t157.5 -297.5h-307q-61 147 -236 147q-145 0 -253.5 -95t-135.5 -239q-7 -38 -7 -73q-1 -56 17 -104q28 -79 99.5 -122t169.5 -43q74 0 148.5 38.5t123.5 101.5h307q-88 -180 -268 -293t-368 -113q-117 0 -220.5 45 t-171.5 125q-114 131 -114 315q0 61 12 127z" />
<glyph unicode="d" horiz-adv-x="1351" d="M166 563q45 244 231 416q94 88 216 140t237 52q100 0 186 -39.5t135 -113.5l93 495h272l-281 -1513h-249l28 154q-78 -92 -190.5 -141.5t-225.5 -49.5q-121 0 -217 51.5t-157 139.5q-89 130 -89 291q0 57 11 118zM440 575q-7 -37 -7 -71q0 -98 57 -174q77 -102 219 -101 q139 0 255.5 99.5t142.5 241.5q6 34 6 66q0 99 -61 172q-81 97 -223 97q-131 0 -247.5 -99t-141.5 -231z" />
<glyph unicode="e" horiz-adv-x="1310" d="M166 559q47 254 254 433t461 179q158 0 277.5 -81.5t170.5 -219.5q33 -89 33 -186q0 -53 -10 -109q-6 -29 -39 -129h-881q12 -98 84 -157.5t176 -59.5q76 0 149.5 27t123.5 72h301q-82 -154 -258.5 -259.5t-354.5 -105.5q-248 0 -391 174q-108 131 -108 304q0 57 12 118z M473 688h625q-14 100 -88 158.5t-181 58.5q-104 0 -205.5 -60.5t-150.5 -156.5z" />
<glyph unicode="f" horiz-adv-x="573" d="M117 0l166 893h-97l45 242h97q35 170 157.5 288.5t288.5 118.5l72 -4l-49 -270q-94 0 -135 -22.5t-62 -110.5h158l-45 -242h-158l-166 -893h-272z" />
<glyph unicode="g" horiz-adv-x="1351" d="M61 -86h310q37 -49 102.5 -79t130.5 -30q154 0 273 95q45 35 75.5 81t44 76.5t35.5 100.5q-193 -195 -401 -195q-106 0 -210 50t-163 128q-68 86 -90 205q-11 56 -11 113q0 62 13 125q41 223 225 395q98 90 219 141t246 51q76 0 139.5 -20.5t111.5 -64.5t73 -107l28 156 h250l-178 -963q-27 -139 -81 -242.5t-161 -195.5q-106 -92 -233 -143.5t-254 -51.5q-182 0 -322.5 103.5t-171.5 271.5zM440 573q-7 -37 -7 -72q0 -100 59 -173q79 -99 227 -99q133 0 244.5 100.5t136.5 233.5q7 37 7 70q0 100 -60 173q-80 99 -224 99q-135 0 -250 -100 q-109 -92 -133 -232z" />
<glyph unicode="h" horiz-adv-x="1228" d="M111 0l280 1513h273l-86 -464q53 59 142 90.5t171 31.5q37 0 72.5 -7t69.5 -20.5t63.5 -30.5t55.5 -41.5t44 -51.5q31 -43 45 -90q13 -44 13 -96v-8q-1 -56 -6 -99t-17 -113l-115 -614h-272l102 555q12 59 16 102q2 22 2 45q0 22 -2 48q-4 50 -22 81t-58 52.5t-102 21.5 q-123 0 -205 -98q-20 -25 -35.5 -55.5t-26.5 -72.5t-15 -61.5t-13 -66.5l-102 -551h-272z" />
<glyph unicode="i" horiz-adv-x="491" d="M111 0l211 1135h272l-211 -1135h-272zM346 1266l45 247h273l-46 -247h-272z" />
<glyph unicode="j" horiz-adv-x="532" d="M-35 -379l49 264q18 0 33.5 4.5t27 7.5t21.5 14t17.5 16t14.5 20.5t10 20.5t7.5 26.5t5.5 26t6 29t5 28.5l196 1057h273l-199 -1065q-39 -213 -168 -332q-59 -55 -140 -87q-76 -30 -150 -30h-9zM383 1266l45 247h272l-45 -247h-272z" />
<glyph unicode="k" horiz-adv-x="1187" d="M111 0l280 1513h273l-170 -913l464 535h322l-514 -555l371 -580h-365l-291 530l-98 -530h-272z" />
<glyph unicode="l" horiz-adv-x="491" d="M111 0l280 1513h273l-281 -1513h-272z" />
<glyph unicode="m" horiz-adv-x="1925" d="M111 0l211 1135h249l-20 -105q27 37 66.5 65.5t83.5 44t89.5 23.5t86.5 8q59 0 111 -16t95 -48t70 -77q8 -10 21 -35q16 23 34 35q72 70 167 105.5t192 35.5q221 0 319 -141q40 -54 54 -122q10 -53 11 -99q0 -13 -1 -27q-4 -58 -19 -145l-119 -637h-272l113 604 q14 76 14 130q0 57 -16 87q-8 20 -24.5 35.5t-37 26t-44 16.5t-48.5 6q-127 0 -207 -98q-8 -10 -16 -23.5t-14.5 -24.5t-13.5 -27.5t-10 -27t-8 -29t-8 -26.5t-7.5 -28.5t-5.5 -26.5t-5 -27.5t-4 -25.5l-100 -541h-273l113 604q8 49 11 75q2 16 2 36q0 13 -1 29 q-2 38 -16 69q-20 43 -64.5 67.5t-97.5 24.5q-39 0 -72.5 -8t-59.5 -26.5t-46.5 -38t-36.5 -50t-26.5 -55.5t-20.5 -62.5t-15.5 -61t-11.5 -62.5l-100 -541h-272z" />
<glyph unicode="n" horiz-adv-x="1228" d="M111 0l211 1135h251l-20 -105q66 68 157 104.5t183 36.5q90 0 169 -37.5t128 -103.5q16 -20 22 -33q31 -57 38 -131q4 -40 4 -75q0 -29 -3 -55q-6 -54 -24 -148l-109 -588h-272l98 535q21 106 21 177q0 64 -17 99q-20 43 -64 68.5t-98 25.5q-57 0 -115.5 -27.5 t-92.5 -72.5q-10 -12 -18.5 -25.5t-14.5 -26t-13.5 -29.5t-11.5 -28.5t-10 -32t-8 -29.5t-7.5 -32.5t-6.5 -29t-5 -31t-4 -27.5l-96 -514h-272z" />
<glyph unicode="o" horiz-adv-x="1310" d="M166 565q47 254 258 430t467 176q164 0 285.5 -81.5t173.5 -221.5q33 -88 34 -185q0 -58 -12 -118q-47 -252 -257 -427t-460 -175q-162 0 -284.5 81t-178.5 220q-36 90 -37 189q0 55 11 112zM438 565q-6 -34 -6 -66q0 -97 57 -171q76 -100 216 -99q143 0 255.5 96.5 t139.5 239.5q7 36 7 69q1 98 -59 172q-80 100 -219 99q-31 0 -65.5 -8t-67 -21.5t-63.5 -33t-58 -41.5q-111 -94 -137 -236z" />
<glyph unicode="p" horiz-adv-x="1351" d="M41 -379l281 1514h249l-28 -148q164 184 403 184q127 0 218 -44t159 -140q93 -119 93 -286q0 -64 -13 -134q-45 -246 -240.5 -425t-439.5 -179q-217 0 -317 160l-93 -502h-272zM471 567q-7 -39 -7 -73q0 -108 68 -179q23 -25 56 -44t70.5 -30.5t74.5 -11.5 q143 0 258 98.5t142 241.5q6 34 6 65q0 97 -57 172q-77 99 -214 99q-141 0 -255.5 -98t-141.5 -240z" />
<glyph unicode="q" horiz-adv-x="1351" d="M168 578q23 115 86 221t156 188q203 184 438 184q250 0 336 -184l28 148h250l-280 -1514h-273l92 502q-160 -160 -374 -160q-164 0 -281 87t-162 226q-27 85 -27 178q0 61 11 124zM440 571q-8 -41 -8 -77q0 -97 55 -168q76 -97 226 -97q135 0 247.5 100.5t137.5 237.5 q6 32 6 63q0 54 -18 103q-27 78 -93.5 125t-154.5 47q-143 0 -257 -95t-141 -239z" />
<glyph unicode="r" horiz-adv-x="655" d="M111 0l211 1135h247l-20 -103q43 49 84 79t88 45t102 15h21l-49 -264q-96 0 -177 -53q-41 -31 -67.5 -73t-35.5 -76.5t-19 -92.5l-113 -612h-272z" />
<glyph unicode="s" horiz-adv-x="901" d="M104 356h279q2 -57 32.5 -92t88.5 -35q51 0 94 29t53 80q2 20 0 36.5t-14 30t-21.5 22.5t-32 19.5t-31.5 14.5t-36 13t-31 11q-53 18 -73.5 25.5t-53 27t-59.5 46.5q-74 72 -74 177q0 29 6 60q29 154 161 252t288 98q144 -1 236 -103q73 -81 72 -186q0 -29 -5 -59h-266 q0 39 -25.5 60.5t-64.5 21.5q-47 0 -82 -25.5t-43 -70.5q0 -14 -1 -23.5t6 -19.5t11 -16.5t16.5 -12.5t18.5 -10t20.5 -9t22.5 -7t20.5 -6.5t18.5 -6.5q80 -27 126 -47t97 -59q50 -40 66 -98q8 -31 9 -67q0 -34 -7 -73q-29 -162 -166 -272q-68 -53 -154 -86t-162 -33 q-176 -1 -271 109q-75 86 -75 212q0 35 6 72z" />
<glyph unicode="t" horiz-adv-x="614" d="M152 0l165 893h-133l45 242h133l70 378h273l-70 -378h164l-45 -242h-164l-166 -893h-272z" />
<glyph unicode="u" horiz-adv-x="1228" d="M181 354q5 52 22 140l119 641h272l-105 -557q-17 -94 -16 -157q0 -46 8 -75q12 -37 37 -63.5t59.5 -40t77.5 -13.5q59 0 107.5 21.5t79 54.5t54.5 81t36 92t22 100l105 557h272l-211 -1135h-250l23 121q-117 -158 -322 -158q-219 0 -329 158q-38 51 -52 115 q-10 47 -10 88q0 16 1 30z" />
<glyph unicode="v" d="M213 1135h303l125 -746l399 746h303l-669 -1135h-213z" />
<glyph unicode="w" horiz-adv-x="1638" d="M231 1135h289l82 -693l316 693h215l59 -693l338 693h289l-623 -1135h-168l-78 735l-352 -735h-168z" />
<glyph unicode="x" d="M2 0l512 586l-250 549h316l141 -312l250 312h317l-452 -549l297 -586h-336l-162 367l-297 -367h-336z" />
<glyph unicode="y" horiz-adv-x="1187" d="M150 -379l299 485l-226 1029h309l125 -727l408 727h309l-932 -1514h-292z" />
<glyph unicode="z" horiz-adv-x="942" d="M41 0l45 242l625 651h-447l45 242h772l-45 -242l-624 -651h538l-45 -242h-864z" />
<glyph unicode="{" horiz-adv-x="696" d="M193 631q63 10 116 47q33 23 53.5 55.5t25.5 54t15 70.5l64 346q10 53 18.5 86t32 78t55.5 74q35 27 77 44t83 21t85 5t81 -1q-94 -25 -142 -81t-65 -152l-67 -365q-25 -125 -73 -191.5t-165 -90.5q102 -25 130 -86t5 -178l-71 -392q-18 -100 6 -153t112 -82h-41.5h-45 t-38 1t-42 5t-36 10t-40 15.5t-35.5 21.5q-45 35 -53.5 96.5t8.5 124.5l73 389q10 43 9.5 82t-23.5 76q-39 53 -112 70z" />
<glyph unicode="|" horiz-adv-x="1228" d="M498 0l280 1513h244l-281 -1513h-243z" />
<glyph unicode="}" horiz-adv-x="696" d="M29 -260q100 29 145 82t64 153l71 392q23 117 72 178t162 86q-74 16 -109 56t-35.5 95t13.5 131l67 365q16 96 -10.5 152.5t-110.5 80.5h108.5t107 -16t81.5 -53q35 -41 35 -111.5t-14 -126.5l-64 -346q-14 -49 -11 -98t38 -82q41 -37 98 -47q-78 -16 -135 -70 q-37 -37 -50 -68.5t-24 -89.5l-73 -389q-14 -82 -40 -134t-87 -87q-20 -12 -41 -21.5t-45.5 -15.5t-39 -10t-44 -5t-39.5 -1h-46h-44z" />
<glyph unicode="~" horiz-adv-x="1228" d="M215 592q82 113 167 183.5t185 70.5q63 0 144.5 -34t151 -67.5t108.5 -33.5q20 0 40.5 7t36 17t34 28.5t29.5 32t28.5 35t25.5 31.5l103 -149q-2 -4 -11 -15q-37 -43 -55 -65.5t-55 -58t-65.5 -54t-69.5 -33t-82 -14.5q-66 0 -180 49l-76 35q-6 4 -32 15.5t-40 17.5 t-35.5 12t-40.5 6q-23 0 -46 -9t-38.5 -18.5t-37 -32t-29.5 -32.5t-30.5 -40t-27.5 -36z" />
<glyph unicode="&#xa1;" horiz-adv-x="573" d="M78 -379l209 1129h272l-209 -1129h-272zM309 874l49 261h273l-49 -261h-273z" />
<glyph unicode="&#xa2;" d="M225 782q14 80 56.5 158t101.5 141.5t137 109.5t158 62l39 207h256l-39 -207q123 -31 200.5 -127t79.5 -221h-286q-18 45 -68.5 70.5t-103.5 25.5q-94 0 -169 -66.5t-93 -160.5q-18 -96 35 -158.5t149 -62.5q88 0 186 80h299q-156 -270 -405 -330l-41 -223h-256l41 223 q-150 27 -228.5 171t-48.5 308z" />
<glyph unicode="&#xa3;" d="M82 0l47 258h285q49 61 63 143q14 70 -5 123.5t-66 110.5h-289l49 256h115q-20 74 -5 160q37 201 209 346t373 145q207 0 326 -162q41 -57 64.5 -133t8.5 -139h-274q2 72 -49 120t-125 48q-94 0 -169 -68.5t-93 -167.5q-16 -86 28 -149h426l-49 -256h-221 q41 -113 17 -250q-12 -68 -46 -127l21 -2q90 0 158.5 57.5t85.5 147.5q4 29 0 98h270q12 -37 0 -104q-18 -96 -79.5 -192.5t-145.5 -153.5q-88 -63 -175 -86t-200 -23h-555z" />
<glyph unicode="&#xa4;" d="M141 465l107 90q-49 135 -27 262q27 143 125 268l-74 89l193 163l74 -90q143 78 278 78q150 0 260 -78l107 90l127 -163l-107 -89q55 -125 29 -266q-29 -154 -127 -264l74 -90l-189 -162l-71 90q-150 -80 -281 -80q-152 0 -258 80l-109 -90zM475.5 819.5 q-18.5 -102.5 40.5 -177.5t164.5 -75t193 75t105.5 177q12 66 -9.5 124t-73.5 93t-122 35q-106 0 -193 -74.5t-105.5 -177z" />
<glyph unicode="&#xa5;" d="M104 381l35 180h391l-75 217h-291l35 180h194l-184 555h307l201 -698l459 698h311l-391 -555h194l-35 -180h-288l-156 -217h389l-35 -180h-389l-69 -381h-281l70 381h-392z" />
<glyph unicode="&#xa6;" horiz-adv-x="1228" d="M498 0l112 606h244l-113 -606h-243zM666 907l112 606h244l-113 -606h-243z" />
<glyph unicode="&#xa7;" d="M145 143h271q-25 -86 26.5 -136t141.5 -46q66 -2 128 31t74 94q6 39 -12 69.5t-38.5 45t-59.5 37.5q-16 10 -25 14l-268 156q-102 59 -144 137t-20 196q35 190 221 299q-43 88 -22 193q20 111 95 189.5t173 114.5t207 36q182 0 276.5 -102.5t71.5 -282.5h-256 q8 70 -37 102.5t-119 32.5q-143 0 -157 -100q-8 -35 14.5 -68t46 -49t60.5 -37l264 -147q92 -55 123 -117q37 -84 20 -180q-16 -82 -73.5 -159t-137.5 -128q43 -55 55.5 -114.5t-2.5 -137.5q-33 -172 -182 -273.5t-325 -101.5q-197 0 -309.5 120t-80.5 312zM459 756 q-4 -23 5 -43.5t29.5 -38t35 -27.5t40.5 -24q7 -3 9 -5l262 -149q94 51 108 133q6 25 -2 45.5t-28.5 37.5t-35 26.5t-40.5 21.5q-8 4 -11 6l-262 150q-39 -25 -70.5 -61.5t-39.5 -71.5z" />
<glyph unicode="&#xa8;" horiz-adv-x="1024" d="M387 1270l51 272h273l-52 -272h-272zM817 1270l51 272h273l-51 -272h-273z" />
<glyph unicode="&#xa9;" horiz-adv-x="1515" d="M115 754q41 215 179 396t340 286.5t419 105.5q213 0 374.5 -105.5t234.5 -286.5t32 -396q-39 -215 -179.5 -397.5t-341 -288t-413.5 -105.5q-217 0 -379 105.5t-233.5 288t-32.5 397.5zM262 754q-25 -131 4 -250t99.5 -205t180 -137t240.5 -51q172 0 336 86t277.5 234.5 t146.5 322.5t-26.5 321.5t-191.5 233.5t-304 86q-266 0 -489.5 -187.5t-272.5 -453.5zM504 760q37 199 177 326.5t339 127.5q145 0 232 -79.5t85 -219.5h-178q0 49 -21.5 84t-59.5 53.5t-87 18.5q-121 0 -202.5 -90t-105.5 -215t28.5 -221t173.5 -96q72 0 136.5 45.5 t80.5 115.5h178q-41 -137 -162 -221t-260 -84q-197 0 -294 130t-60 325z" />
<glyph unicode="&#xaa;" horiz-adv-x="737" d="M184 647l23 129h637l-23 -129h-637zM283 1219q27 135 129 229t237 94q125 0 182 -104l17 86h135l-113 -611h-135l15 84q-45 -49 -107.5 -75.5t-126.5 -26.5q-131 0 -194.5 95t-38.5 229zM428 1212q-14 -76 30 -126t120.5 -50t135 52.5t72.5 130.5t-24.5 130t-116.5 52 q-53 0 -100 -24.5t-77 -67.5t-40 -97z" />
<glyph unicode="&#xab;" horiz-adv-x="942" d="M174 547l39 207l334 266l-45 -252l-160 -117l115 -121l-47 -251zM610 547l39 207l334 266l-45 -252l-160 -117l115 -121l-47 -251z" />
<glyph unicode="&#xac;" horiz-adv-x="1228" d="M240 727l45 242h1032l-111 -596h-241l65 354h-790z" />
<glyph unicode="&#xad;" horiz-adv-x="860" d="M250 530l45 242h567l-45 -242h-567z" />
<glyph unicode="&#xae;" horiz-adv-x="1515" d="M115 754q41 215 179 396t340 286.5t419 105.5q213 0 374.5 -105.5t234.5 -286.5t32 -396q-39 -215 -179.5 -397.5t-341 -288t-413.5 -105.5q-217 0 -379 105.5t-233.5 288t-32.5 397.5zM262 754q-25 -131 4 -250t99.5 -205t180 -137t240.5 -51q264 0 487.5 188t272.5 455 q25 131 -4 249.5t-99.5 203.5t-179 136.5t-239.5 51.5q-266 0 -489.5 -187.5t-272.5 -453.5zM500 324l157 852h412q164 0 225 -41q88 -68 60 -222q-14 -76 -51 -126t-92.5 -73.5t-133.5 -29.5l140 -360h-193l-123 360h-168l-67 -360h-166zM756 811h252q78 -2 123 25.5 t59 101.5q6 33 -4 55.5t-25.5 33.5t-47.5 17.5t-51.5 7.5t-53.5 1h-207z" />
<glyph unicode="&#xaf;" horiz-adv-x="860" d="M387 1270l41 225h567l-41 -225h-567z" />
<glyph unicode="&#xb0;" horiz-adv-x="819" d="M326 1206q23 125 130 216t234 91q125 0 200 -90t50 -217q-23 -127 -130.5 -217t-234.5 -90t-199.5 90t-49.5 217zM445.5 1169.5q0.5 -18.5 4 -35t11.5 -32t17 -27.5t22.5 -22.5t29 -16.5t33 -10t35.5 -4q76 0 140.5 54t78.5 130t-31 130.5t-120 54.5q-76 0 -140.5 -54.5 t-76.5 -130.5q-4 -18 -3.5 -36.5z" />
<glyph unicode="&#xb1;" horiz-adv-x="1228" d="M104 0l43 238h1033l-43 -238h-1033zM225 649l43 238h398l53 280h237l-53 -280h397l-43 -238h-397l-55 -293h-238l56 293h-398z" />
<glyph unicode="&#xb2;" horiz-adv-x="688" d="M143 606l29 156l393 291q33 25 52.5 40t44 39.5t38 51t19.5 55.5q10 57 -21.5 95t-95.5 38q-49 0 -90 -24.5t-64.5 -63.5t-27.5 -84h-176l6 35q23 123 131 210t242 87q139 0 218 -86t54 -215q-18 -100 -113 -195l-145 -121l-217 -153h389l-29 -156h-637z" />
<glyph unicode="&#xb3;" horiz-adv-x="688" d="M170 877h178q-4 -37 13.5 -68t50 -47.5t71.5 -16.5q43 0 83 19.5t66.5 52.5t33.5 70q16 80 -45 127q-45 29 -134 28h-18l29 156h12q141 0 160 94q4 25 -4.5 43.5t-28 27.5t-45.5 9q-37 0 -62.5 -21.5t-31.5 -54.5h-179q16 96 106.5 166t197.5 70q109 0 176 -70.5 t49 -171.5q-20 -109 -117 -162q49 -16 78 -55t35 -86t-2 -100q-25 -131 -139.5 -216t-258.5 -85q-131 0 -210.5 85t-63.5 206z" />
<glyph unicode="&#xb4;" horiz-adv-x="860" d="M420 1444l510 272l69 -213l-512 -248z" />
<glyph unicode="&#xb5;" horiz-adv-x="1179" d="M41 -379l281 1514h272l-105 -557q-29 -162 -8 -232q12 -37 37 -63.5t59.5 -40t77.5 -13.5q59 0 107.5 21.5t79 54.5t54.5 81t36 92t22 100l105 557h272l-211 -1135h-250l23 121h-4q-111 -158 -318 -158q-104 0 -188 39l-70 -381h-272z" />
<glyph unicode="&#xb6;" horiz-adv-x="1228" d="M279 1094q35 193 202 317q61 45 125 68.5t112 27.5t132 4h510l-330 -1773h-211l289 1556h-168l-289 -1556h-205l175 938q-172 -4 -273.5 121t-68.5 297z" />
<glyph unicode="&#xb7;" horiz-adv-x="573" d="M244 514l49 272h272l-49 -272h-272z" />
<glyph unicode="&#xb8;" horiz-adv-x="696" d="M88 -346h102q0 -29 27 -47.5t59 -18.5q39 0 71 31t40 70q8 45 -15.5 73.5t-66.5 28.5q-59 0 -98 -55l-98 26l114 238h109l-64 -117q59 10 70 11q74 0 125 -60q49 -57 33 -147q-10 -55 -46 -101.5t-88.5 -73t-109.5 -26.5q-72 0 -123 49t-41 119z" />
<glyph unicode="&#xb9;" horiz-adv-x="688" d="M428 606l139 752h-123l29 155h301l-168 -907h-178z" />
<glyph unicode="&#xba;" horiz-adv-x="737" d="M184 647l23 129h629l-23 -129h-629zM291 1227q12 63 47 121.5t85 100.5t112.5 67.5t128.5 25.5q131 0 204.5 -91t49.5 -224q-25 -131 -133.5 -222.5t-237.5 -91.5t-205 93.5t-51 220.5zM435.5 1226.5q-13.5 -71.5 25.5 -122.5t110 -51q76 0 134.5 50t73 123.5t-26.5 126 t-115 52.5q-72 0 -130 -53.5t-71.5 -125z" />
<glyph unicode="&#xbb;" horiz-adv-x="942" d="M201 279l47 251l162 121l-117 117l45 252l235 -266l-38 -207zM637 279l47 251l162 121l-117 117l45 252l236 -266l-39 -207z" />
<glyph unicode="&#xbc;" horiz-adv-x="1720" d="M428 606l139 752h-123l29 155h301l-168 -907h-178zM461 0l907 1513h195l-908 -1513h-194zM1032 135l25 133l571 639h148l-115 -616h104l-28 -156h-105l-24 -135h-176l24 135h-424zM1249 291h236l63 340z" />
<glyph unicode="&#xbd;" horiz-adv-x="1720" d="M420 0l907 1513h195l-908 -1513h-194zM428 606l139 752h-123l29 155h301l-168 -907h-178zM1063 0l29 156l393 290q45 33 69.5 54.5t51 57.5t32.5 75q8 37 -4 67.5t-41.5 48t-70.5 17.5q-74 0 -124 -50t-59 -122h-176l6 35q14 80 69.5 148.5t136.5 108.5t167 40 q139 0 218 -86t57 -215q-20 -100 -115 -195l-146 -121l-217 -153h390l-29 -156h-637z" />
<glyph unicode="&#xbe;" horiz-adv-x="1720" d="M170 877h178q-4 -37 13.5 -68t50 -47.5t71.5 -16.5q43 0 83 19.5t66.5 52.5t33.5 70q16 80 -45 127q-45 29 -134 28h-18l29 156h12q141 0 160 94q4 25 -4.5 43.5t-28 27.5t-45.5 9q-37 0 -62.5 -21.5t-31.5 -54.5h-179q16 96 106.5 166t197.5 70q109 0 176 -70.5 t49 -171.5q-20 -109 -117 -162q49 -16 78 -55t35 -86t-2 -100q-25 -131 -139.5 -216t-258.5 -85q-131 0 -210.5 85t-63.5 206zM502 0l907 1513h195l-908 -1513h-194zM1032 135l25 133l571 639h148l-115 -616h104l-28 -156h-105l-24 -135h-176l24 135h-424zM1249 291h236 l63 340z" />
<glyph unicode="&#xbf;" d="M156 74q18 102 87.5 186t184.5 170q82 61 122 113.5t54 136.5l12 70h273l-12 -60q-23 -131 -95 -239q-29 -43 -60.5 -78t-59 -56.5t-78.5 -58.5q-70 -49 -109 -93t-51 -106q-16 -90 26 -142t132 -52q88 0 145 54t82 147h272q-51 -188 -153 -293q-76 -82 -190.5 -131.5 t-219.5 -49.5q-84 0 -159.5 35t-125.5 94q-119 137 -77 353zM639 874l49 261h273l-50 -261h-272z" />
<glyph unicode="&#xc0;" horiz-adv-x="1515" d="M14 0l912 1513h219l356 -1513h-309l-92 391h-537l-239 -391h-310zM717 664h323l-75 458zM829 1890l156 209l403 -276l-143 -189z" />
<glyph unicode="&#xc1;" horiz-adv-x="1515" d="M14 0l912 1513h219l356 -1513h-309l-92 391h-537l-239 -391h-310zM717 664h323l-75 458zM817 1823l510 272l69 -213l-512 -248z" />
<glyph unicode="&#xc2;" horiz-adv-x="1515" d="M14 0l912 1513h219l356 -1513h-309l-92 391h-537l-239 -391h-310zM661 1649l354 282h215l248 -282h-297l-86 131l-137 -131h-297zM717 664h323l-75 458z" />
<glyph unicode="&#xc3;" horiz-adv-x="1515" d="M14 0l912 1513h219l356 -1513h-309l-92 391h-537l-239 -391h-310zM717 664h323l-75 458zM758 1837q92 76 219 76q51 0 120.5 -28.5t98.5 -28.5q76 0 152 57l69 -174q-117 -90 -213 -90q-47 0 -120.5 26.5t-114.5 26.5q-74 0 -144 -45z" />
<glyph unicode="&#xc4;" horiz-adv-x="1515" d="M14 0l912 1513h219l356 -1513h-309l-92 391h-537l-239 -391h-310zM702 1649l51 272h273l-52 -272h-272zM717 664h323l-75 458zM1132 1649l51 272h273l-51 -272h-273z" />
<glyph unicode="&#xc5;" horiz-adv-x="1515" d="M14 0l912 1513h219l356 -1513h-309l-92 391h-537l-239 -391h-310zM717 664h323l-75 458zM885 1860q16 88 89 149.5t161 61.5t138 -61.5t34 -149.5q-10 -57 -48 -105.5t-91.5 -77t-110.5 -28.5q-88 0 -138 61.5t-34 149.5zM1020 1860q-4 -20 3 -38t23 -28t36 -10 q31 0 57.5 21.5t32.5 54.5q4 20 -3.5 37.5t-22.5 27.5t-36 10q-31 0 -57.5 -22.5t-32.5 -52.5z" />
<glyph unicode="&#xc6;" horiz-adv-x="1843" d="M35 0l1280 1513h692l-51 -272h-449l-63 -348h426l-51 -272h-426l-64 -349h449l-52 -272h-729l72 391h-401l-308 -391h-325zM885 664h235l72 389z" />
<glyph unicode="&#xc7;" horiz-adv-x="1597" d="M203 758q39 211 177 392t336.5 286.5t407.5 105.5q231 0 408.5 -126t224.5 -335h-319q-55 86 -152.5 137.5t-210.5 51.5q-207 0 -381 -154.5t-213 -367.5q-25 -133 21.5 -251t149 -189.5t233.5 -71.5q214 0 413 176h326q-80 -135 -210 -237.5t-279.5 -157t-294.5 -54.5 q-213 0 -375 107.5t-232.5 291t-29.5 396.5zM539 -346h102q0 -29 27 -47.5t59 -18.5q39 0 71 31t40 70q8 45 -15.5 73.5t-66.5 28.5q-59 0 -98 -55l-98 26l114 238h109l-64 -117q59 10 70 11q74 0 125 -60q49 -57 33 -147q-10 -55 -46 -101.5t-88.5 -73t-109.5 -26.5 q-72 0 -123 49t-41 119z" />
<glyph unicode="&#xc8;" horiz-adv-x="1064" d="M139 0l281 1513h813l-51 -272h-533l-63 -348h510l-52 -272h-509l-64 -349h533l-52 -272h-813zM604 1890l156 209l403 -276l-143 -189z" />
<glyph unicode="&#xc9;" horiz-adv-x="1064" d="M139 0l281 1513h813l-51 -272h-533l-63 -348h510l-52 -272h-509l-64 -349h533l-52 -272h-813zM592 1823l510 272l69 -213l-512 -248z" />
<glyph unicode="&#xca;" horiz-adv-x="1064" d="M139 0l281 1513h813l-51 -272h-533l-63 -348h510l-52 -272h-509l-64 -349h533l-52 -272h-813zM436 1649l354 282h215l248 -282h-297l-86 131l-137 -131h-297z" />
<glyph unicode="&#xcb;" horiz-adv-x="1064" d="M139 0l281 1513h813l-51 -272h-533l-63 -348h510l-52 -272h-509l-64 -349h533l-52 -272h-813zM477 1649l51 272h273l-52 -272h-272zM907 1649l51 272h273l-51 -272h-273z" />
<glyph unicode="&#xcc;" horiz-adv-x="573" d="M139 0l281 1513h280l-280 -1513h-281zM358 1890l156 209l403 -276l-143 -189z" />
<glyph unicode="&#xcd;" horiz-adv-x="573" d="M139 0l281 1513h280l-280 -1513h-281zM346 1823l510 272l69 -213l-512 -248z" />
<glyph unicode="&#xce;" horiz-adv-x="573" d="M139 0l281 1513h280l-280 -1513h-281zM190 1649l354 282h215l248 -282h-297l-86 131l-137 -131h-297z" />
<glyph unicode="&#xcf;" horiz-adv-x="573" d="M139 0l281 1513h280l-280 -1513h-281zM231 1649l51 272h273l-52 -272h-272zM661 1649l51 272h273l-51 -272h-273z" />
<glyph unicode="&#xd0;" horiz-adv-x="1519" d="M150 655l40 217h197l119 641h317q203 -2 351.5 -37.5t250.5 -138.5q102 -102 142.5 -262t9.5 -325q-31 -160 -129 -317t-238 -259q-145 -106 -299.5 -140t-361.5 -34h-324l121 655h-196zM557 272h35q145 0 248.5 18.5t203.5 84.5q66 45 118 104.5t86 128t48 142.5 q23 121 -10 228t-117 173q-51 41 -126.5 61.5t-134 24.5t-152.5 4h-21l-67 -369h237l-41 -217h-237z" />
<glyph unicode="&#xd1;" horiz-adv-x="1515" d="M139 0l281 1513h315l426 -1105l205 1105h281l-281 -1513h-311l-430 1102l-205 -1102h-281zM758 1837q92 76 219 76q51 0 120.5 -28.5t98.5 -28.5q76 0 152 57l69 -174q-117 -90 -213 -90q-47 0 -120.5 26.5t-114.5 26.5q-74 0 -144 -45z" />
<glyph unicode="&#xd2;" horiz-adv-x="1720" d="M201 750q39 217 178 399t341 287.5t416 105.5t376.5 -105.5t233.5 -287.5t32 -399q-41 -215 -181.5 -396.5t-341 -286t-412.5 -104.5t-374 104.5t-235.5 286t-32.5 396.5zM481 756q-39 -211 83 -365.5t329 -154.5t386 154.5t218 365.5q41 213 -80 363.5t-332 150.5 q-139 0 -269 -68.5t-219 -187.5t-116 -258zM932 1890l156 209l403 -276l-143 -189z" />
<glyph unicode="&#xd3;" horiz-adv-x="1720" d="M201 750q39 217 178 399t341 287.5t416 105.5t376.5 -105.5t233.5 -287.5t32 -399q-41 -215 -181.5 -396.5t-341 -286t-412.5 -104.5t-374 104.5t-235.5 286t-32.5 396.5zM481 756q-39 -211 83 -365.5t329 -154.5t386 154.5t218 365.5q41 213 -80 363.5t-332 150.5 q-139 0 -269 -68.5t-219 -187.5t-116 -258zM920 1823l510 272l69 -213l-512 -248z" />
<glyph unicode="&#xd4;" horiz-adv-x="1720" d="M201 750q39 217 178 399t341 287.5t416 105.5t376.5 -105.5t233.5 -287.5t32 -399q-41 -215 -181.5 -396.5t-341 -286t-412.5 -104.5t-374 104.5t-235.5 286t-32.5 396.5zM481 756q-39 -211 83 -365.5t329 -154.5t386 154.5t218 365.5q41 213 -80 363.5t-332 150.5 q-139 0 -269 -68.5t-219 -187.5t-116 -258zM764 1649l354 282h215l248 -282h-297l-86 131l-137 -131h-297z" />
<glyph unicode="&#xd5;" horiz-adv-x="1720" d="M201 750q39 217 178 399t341 287.5t416 105.5t376.5 -105.5t233.5 -287.5t32 -399q-41 -215 -181.5 -396.5t-341 -286t-412.5 -104.5t-374 104.5t-235.5 286t-32.5 396.5zM481 756q-39 -211 83 -365.5t329 -154.5t386 154.5t218 365.5q41 213 -80 363.5t-332 150.5 q-139 0 -269 -68.5t-219 -187.5t-116 -258zM860 1837q92 76 219 76q51 0 120.5 -28.5t98.5 -28.5q76 0 152 57l69 -174q-117 -90 -213 -90q-47 0 -120.5 26.5t-114.5 26.5q-74 0 -144 -45z" />
<glyph unicode="&#xd6;" horiz-adv-x="1720" d="M201 750q39 217 178 399t341 287.5t416 105.5t376.5 -105.5t233.5 -287.5t32 -399q-41 -215 -181.5 -396.5t-341 -286t-412.5 -104.5t-374 104.5t-235.5 286t-32.5 396.5zM481 756q-39 -211 83 -365.5t329 -154.5t386 154.5t218 365.5q41 213 -80 363.5t-332 150.5 q-139 0 -269 -68.5t-219 -187.5t-116 -258zM805 1649l51 272h273l-52 -272h-272zM1235 1649l51 272h273l-51 -272h-273z" />
<glyph unicode="&#xd7;" horiz-adv-x="1228" d="M160 303l413 348l-284 348l200 168l283 -348l414 348l135 -168l-412 -348l283 -348l-199 -168l-282 348l-414 -348z" />
<glyph unicode="&#xd8;" horiz-adv-x="1720" d="M186 10l156 176q-96 111 -134 255.5t-9 301.5q41 221 181 405.5t344 289t427 104.5q145 0 307 -69l164 192l195 -154l-166 -190q92 -113 126.5 -264.5t4.5 -313.5q-27 -152 -117 -296t-219 -252q-133 -113 -290 -172.5t-312 -59.5q-141 0 -305 70l-156 -176zM481 756 q-30 -166 64 -332l696 805q-80 39 -141 41q-227 0 -408 -162q-172 -152 -211 -352zM745 272q70 -37 138 -36q207 0 393 151q86 70 147.5 165t77.5 191q39 203 -57 336z" />
<glyph unicode="&#xd9;" horiz-adv-x="1310" d="M223 414.5q4 62.5 23 154.5l174 944h280l-174 -944q-2 -6 -6 -25.5t-5 -26.5t-4 -25.5t-3 -27.5t-1 -24.5t0 -27t3 -23.5t6 -24q20 -59 66.5 -94t109.5 -35q57 0 114.5 28.5t96.5 77.5q27 33 44.5 76t22.5 68.5t17 82.5l174 944h281l-174 -944q-27 -133 -66 -230 t-123 -179q-92 -90 -207.5 -143.5t-228.5 -53.5q-106 0 -201.5 51.5t-152.5 132.5q-41 59 -55.5 132t-10.5 135.5zM727 1890l156 209l403 -276l-143 -189z" />
<glyph unicode="&#xda;" horiz-adv-x="1310" d="M223 414.5q4 62.5 23 154.5l174 944h280l-174 -944q-2 -6 -6 -25.5t-5 -26.5t-4 -25.5t-3 -27.5t-1 -24.5t0 -27t3 -23.5t6 -24q20 -59 66.5 -94t109.5 -35q57 0 114.5 28.5t96.5 77.5q27 33 44.5 76t22.5 68.5t17 82.5l174 944h281l-174 -944q-27 -133 -66 -230 t-123 -179q-92 -90 -207.5 -143.5t-228.5 -53.5q-106 0 -201.5 51.5t-152.5 132.5q-41 59 -55.5 132t-10.5 135.5zM715 1823l510 272l69 -213l-512 -248z" />
<glyph unicode="&#xdb;" horiz-adv-x="1310" d="M223 414.5q4 62.5 23 154.5l174 944h280l-174 -944q-2 -6 -6 -25.5t-5 -26.5t-4 -25.5t-3 -27.5t-1 -24.5t0 -27t3 -23.5t6 -24q20 -59 66.5 -94t109.5 -35q57 0 114.5 28.5t96.5 77.5q27 33 44.5 76t22.5 68.5t17 82.5l174 944h281l-174 -944q-27 -133 -66 -230 t-123 -179q-92 -90 -207.5 -143.5t-228.5 -53.5q-106 0 -201.5 51.5t-152.5 132.5q-41 59 -55.5 132t-10.5 135.5zM559 1649l354 282h215l248 -282h-297l-86 131l-137 -131h-297z" />
<glyph unicode="&#xdc;" horiz-adv-x="1310" d="M223 414.5q4 62.5 23 154.5l174 944h280l-174 -944q-2 -6 -6 -25.5t-5 -26.5t-4 -25.5t-3 -27.5t-1 -24.5t0 -27t3 -23.5t6 -24q20 -59 66.5 -94t109.5 -35q57 0 114.5 28.5t96.5 77.5q27 33 44.5 76t22.5 68.5t17 82.5l174 944h281l-174 -944q-27 -133 -66 -230 t-123 -179q-92 -90 -207.5 -143.5t-228.5 -53.5q-106 0 -201.5 51.5t-152.5 132.5q-41 59 -55.5 132t-10.5 135.5zM600 1649l51 272h273l-52 -272h-272zM1030 1649l51 272h273l-51 -272h-273z" />
<glyph unicode="&#xdd;" horiz-adv-x="1269" d="M287 1513h309l201 -696l458 696h308l-674 -954l-105 -559h-280l104 559zM694 1823l510 272l69 -213l-512 -248z" />
<glyph unicode="&#xde;" d="M139 0l281 1513h280l-53 -286h76h27q68 0 103.5 -1t89.5 -8.5t96 -24.5t79 -46q53 -41 88 -102.5t45.5 -131t-4.5 -147.5q-20 -115 -85.5 -216t-166.5 -171q-20 -14 -43.5 -26.5t-43 -21.5t-49.5 -16.5l-46 -11.5t-50 -7t-46 -5t-50 -3t-45.5 -1h-48.5h-45h-55l-53 -287 h-281zM524 559h51q162 0 220 16q66 20 112.5 70.5t59.5 116.5q6 35 1 63.5t-20.5 52t-39 40t-54.5 24.5q-43 12 -207 12h-51z" />
<glyph unicode="&#xdf;" horiz-adv-x="1228" d="M104 0l181 973q23 121 58.5 214t107.5 171q78 86 183 135t212 49q186 0 291.5 -123t70.5 -309q-14 -82 -63 -161t-121 -111q141 -31 212 -138.5t42 -257.5q-39 -211 -199.5 -345t-371.5 -134q-262 0 -318 227l-35 -190h-250zM449 389h174q0 -68 45 -114t114 -46 q53 0 100.5 27t79 72t42.5 98q25 141 -105 197q-14 6 -29.5 10t-35 7t-33 4t-38 2t-34.5 1h-37.5h-34.5h-10l43 242h15q88 0 150.5 58.5t78.5 146.5q14 80 -23 131t-116 51q-57 0 -100.5 -22.5t-69 -65.5t-39 -84t-23.5 -98z" />
<glyph unicode="&#xe0;" horiz-adv-x="1351" d="M166 567q45 242 221 408q207 197 459 196q78 0 143.5 -22.5t116.5 -66.5t84 -107l31 160h249l-210 -1135h-250l28 154q-80 -86 -197.5 -138.5t-226.5 -52.5q-258 0 -383 191q-111 170 -65 413zM436 557q-25 -139 56 -234.5t221 -93.5q145 -2 255.5 95.5t139.5 244.5 q27 145 -48 241.5t-218 94.5q-150 2 -263.5 -97t-142.5 -251zM678 1511l156 209l403 -276l-143 -189z" />
<glyph unicode="&#xe1;" horiz-adv-x="1351" d="M166 567q45 242 221 408q207 197 459 196q78 0 143.5 -22.5t116.5 -66.5t84 -107l31 160h249l-210 -1135h-250l28 154q-80 -86 -197.5 -138.5t-226.5 -52.5q-258 0 -383 191q-111 170 -65 413zM436 557q-25 -139 56 -234.5t221 -93.5q145 -2 255.5 95.5t139.5 244.5 q27 145 -48 241.5t-218 94.5q-150 2 -263.5 -97t-142.5 -251zM666 1444l510 272l69 -213l-512 -248z" />
<glyph unicode="&#xe2;" horiz-adv-x="1351" d="M166 567q45 242 221 408q207 197 459 196q78 0 143.5 -22.5t116.5 -66.5t84 -107l31 160h249l-210 -1135h-250l28 154q-80 -86 -197.5 -138.5t-226.5 -52.5q-258 0 -383 191q-111 170 -65 413zM436 557q-25 -139 56 -234.5t221 -93.5q145 -2 255.5 95.5t139.5 244.5 q27 145 -48 241.5t-218 94.5q-150 2 -263.5 -97t-142.5 -251zM510 1270l354 282h215l248 -282h-297l-86 131l-137 -131h-297z" />
<glyph unicode="&#xe3;" horiz-adv-x="1351" d="M166 567q45 242 221 408q207 197 459 196q78 0 143.5 -22.5t116.5 -66.5t84 -107l31 160h249l-210 -1135h-250l28 154q-80 -86 -197.5 -138.5t-226.5 -52.5q-258 0 -383 191q-111 170 -65 413zM436 557q-25 -139 56 -234.5t221 -93.5q145 -2 255.5 95.5t139.5 244.5 q27 145 -48 241.5t-218 94.5q-150 2 -263.5 -97t-142.5 -251zM606 1458q92 76 219 76q51 0 120.5 -28.5t98.5 -28.5q76 0 152 57l69 -174q-117 -90 -213 -90q-47 0 -120.5 26.5t-114.5 26.5q-74 0 -144 -45z" />
<glyph unicode="&#xe4;" horiz-adv-x="1351" d="M166 567q45 242 221 408q207 197 459 196q78 0 143.5 -22.5t116.5 -66.5t84 -107l31 160h249l-210 -1135h-250l28 154q-80 -86 -197.5 -138.5t-226.5 -52.5q-258 0 -383 191q-111 170 -65 413zM436 557q-25 -139 56 -234.5t221 -93.5q145 -2 255.5 95.5t139.5 244.5 q27 145 -48 241.5t-218 94.5q-150 2 -263.5 -97t-142.5 -251zM551 1270l51 272h273l-52 -272h-272zM981 1270l51 272h273l-51 -272h-273z" />
<glyph unicode="&#xe5;" horiz-adv-x="1351" d="M166 567q45 242 221 408q207 197 459 196q78 0 143.5 -22.5t116.5 -66.5t84 -107l31 160h249l-210 -1135h-250l28 154q-80 -86 -197.5 -138.5t-226.5 -52.5q-258 0 -383 191q-111 170 -65 413zM436 557q-25 -139 56 -234.5t221 -93.5q145 -2 255.5 95.5t139.5 244.5 q27 145 -48 241.5t-218 94.5q-150 2 -263.5 -97t-142.5 -251zM733 1481q16 88 89 149.5t161 61.5t138 -61.5t34 -149.5q-10 -57 -48 -105.5t-91.5 -77t-110.5 -28.5q-88 0 -138 61.5t-34 149.5zM868 1481q-4 -20 3 -38t23 -28t36 -10q31 0 57.5 21.5t32.5 54.5 q4 20 -3.5 37.5t-22.5 27.5t-36 10q-31 0 -57.5 -22.5t-32.5 -52.5z" />
<glyph unicode="&#xe6;" horiz-adv-x="2211" d="M166 563q29 158 132 297t255 225t309 86q100 0 188.5 -35.5t133.5 -107.5l26 143h250l-26 -143q47 47 109.5 80t126 48t124.5 15q158 0 275.5 -81.5t169 -218t20.5 -291.5q-8 -48 -41 -134h-881q4 -39 20.5 -72.5t41 -59t55.5 -45t69 -30t76 -10.5q37 0 76 7.5t75 20.5 t68.5 31.5t59.5 39.5h297q-90 -150 -265 -257.5t-349 -107.5q-63 0 -120 15.5t-106 50t-71 84.5l-27 -150h-250l27 150q-135 -150 -371 -150q-160 0 -280.5 83t-173 221.5t-23.5 295.5zM438 563q-25 -135 51 -234.5t211.5 -99.5t249 99.5t140.5 236.5q25 137 -51 238.5 t-212 101.5q-141 0 -251.5 -100t-137.5 -242zM1382 688h611q-10 66 -46 115t-91.5 75.5t-124.5 26.5q-68 0 -135.5 -26.5t-124 -77t-89.5 -113.5z" />
<glyph unicode="&#xe7;" horiz-adv-x="1310" d="M168 575q45 248 256 422t459 174q190 0 331.5 -115.5t157.5 -297.5h-307q-61 147 -236 147q-145 0 -253.5 -95t-135.5 -239q-18 -98 10.5 -177t99.5 -122t169 -43q74 0 148.5 38.5t123.5 101.5h307q-88 -180 -268 -293t-368 -113q-117 0 -220.5 45t-171.5 125 q-152 174 -102 442zM395 -346h102q0 -29 27 -47.5t59 -18.5q39 0 71 31t40 70q8 45 -15.5 73.5t-66.5 28.5q-59 0 -98 -55l-98 26l114 238h109l-64 -117q59 10 70 11q74 0 125 -60q49 -57 33 -147q-10 -55 -46 -101.5t-88.5 -73t-109.5 -26.5q-72 0 -123 49t-41 119z" />
<glyph unicode="&#xe8;" horiz-adv-x="1310" d="M166 559q47 254 254 433t461 179q158 0 277.5 -81.5t170.5 -219t23 -295.5q-6 -29 -39 -129h-881q12 -98 84 -157.5t176 -59.5q76 0 149.5 27t123.5 72h301q-82 -154 -258.5 -259.5t-354.5 -105.5q-248 0 -391 174t-96 422zM473 688h625q-14 100 -88 158.5t-181 58.5 q-104 0 -205.5 -60.5t-150.5 -156.5zM657 1511l156 209l403 -276l-143 -189z" />
<glyph unicode="&#xe9;" horiz-adv-x="1310" d="M166 559q47 254 254 433t461 179q158 0 277.5 -81.5t170.5 -219t23 -295.5q-6 -29 -39 -129h-881q12 -98 84 -157.5t176 -59.5q76 0 149.5 27t123.5 72h301q-82 -154 -258.5 -259.5t-354.5 -105.5q-248 0 -391 174t-96 422zM473 688h625q-14 100 -88 158.5t-181 58.5 q-104 0 -205.5 -60.5t-150.5 -156.5zM645 1444l510 272l69 -213l-512 -248z" />
<glyph unicode="&#xea;" horiz-adv-x="1310" d="M166 559q47 254 254 433t461 179q158 0 277.5 -81.5t170.5 -219t23 -295.5q-6 -29 -39 -129h-881q12 -98 84 -157.5t176 -59.5q76 0 149.5 27t123.5 72h301q-82 -154 -258.5 -259.5t-354.5 -105.5q-248 0 -391 174t-96 422zM473 688h625q-14 100 -88 158.5t-181 58.5 q-104 0 -205.5 -60.5t-150.5 -156.5zM489 1270l354 282h215l248 -282h-297l-86 131l-137 -131h-297z" />
<glyph unicode="&#xeb;" horiz-adv-x="1310" d="M166 559q47 254 254 433t461 179q158 0 277.5 -81.5t170.5 -219t23 -295.5q-6 -29 -39 -129h-881q12 -98 84 -157.5t176 -59.5q76 0 149.5 27t123.5 72h301q-82 -154 -258.5 -259.5t-354.5 -105.5q-248 0 -391 174t-96 422zM473 688h625q-14 100 -88 158.5t-181 58.5 q-104 0 -205.5 -60.5t-150.5 -156.5zM530 1270l51 272h273l-52 -272h-272zM960 1270l51 272h273l-51 -272h-273z" />
<glyph unicode="&#xec;" horiz-adv-x="491" d="M111 0l211 1135h272l-211 -1135h-272zM248 1511l156 209l403 -276l-143 -189z" />
<glyph unicode="&#xed;" horiz-adv-x="491" d="M111 0l211 1135h272l-211 -1135h-272zM236 1444l510 272l69 -213l-512 -248z" />
<glyph unicode="&#xee;" horiz-adv-x="491" d="M80 1270l354 282h215l248 -282h-297l-86 131l-137 -131h-297zM111 0l211 1135h272l-211 -1135h-272z" />
<glyph unicode="&#xef;" horiz-adv-x="491" d="M111 0l211 1135h272l-211 -1135h-272zM121 1270l51 272h273l-52 -272h-272zM551 1270l51 272h273l-51 -272h-273z" />
<glyph unicode="&#xf0;" horiz-adv-x="1310" d="M166 565q25 125 95.5 239t165.5 193.5t211 126.5t226 47q49 0 106.5 -20.5t86.5 -48.5l4 4q-68 113 -219 205l-213 -101l-148 74l240 113q-72 47 -211 112v4h287l90 -38l221 102l154 -70l-220 -102q221 -186 301 -377.5t29 -462.5q-47 -252 -257 -427t-460 -175 q-162 0 -284.5 81t-179 220t-25.5 301zM438 565q-25 -137 51 -236.5t216 -99.5q143 0 255.5 96.5t139.5 239.5q27 141 -52.5 240.5t-218.5 99.5q-135 0 -250.5 -102.5t-140.5 -237.5z" />
<glyph unicode="&#xf1;" horiz-adv-x="1228" d="M111 0l211 1135h251l-20 -105q66 68 157 104.5t183 36.5q90 0 169 -37.5t128 -103.5q16 -20 22 -33q31 -57 38 -131.5t1 -129t-24 -148.5l-109 -588h-272l98 535q39 201 4 276q-20 43 -64 68.5t-98 25.5q-57 0 -115.5 -27.5t-92.5 -72.5q-10 -12 -18.5 -25.5t-14.5 -26 t-13.5 -29.5t-11.5 -28.5t-10 -32t-8 -29.5t-7.5 -32.5t-6.5 -29t-5 -31t-4 -27.5l-96 -514h-272zM545 1458q92 76 219 76q51 0 120.5 -28.5t98.5 -28.5q76 0 152 57l69 -174q-117 -90 -213 -90q-47 0 -120.5 26.5t-114.5 26.5q-74 0 -144 -45z" />
<glyph unicode="&#xf2;" horiz-adv-x="1310" d="M166 565q47 254 258 430t467 176q164 0 285.5 -81.5t174 -221t21.5 -303.5q-47 -252 -257 -427t-460 -175q-162 0 -284.5 81t-179 220t-25.5 301zM438 565q-25 -137 51 -236.5t216 -99.5q143 0 255.5 96.5t139.5 239.5q27 141 -52.5 240.5t-218.5 99.5q-31 0 -65.5 -8 t-67 -21.5t-63.5 -33t-58 -41.5q-111 -94 -137 -236zM657 1511l156 209l403 -276l-143 -189z" />
<glyph unicode="&#xf3;" horiz-adv-x="1310" d="M166 565q47 254 258 430t467 176q164 0 285.5 -81.5t174 -221t21.5 -303.5q-47 -252 -257 -427t-460 -175q-162 0 -284.5 81t-179 220t-25.5 301zM438 565q-25 -137 51 -236.5t216 -99.5q143 0 255.5 96.5t139.5 239.5q27 141 -52.5 240.5t-218.5 99.5q-31 0 -65.5 -8 t-67 -21.5t-63.5 -33t-58 -41.5q-111 -94 -137 -236zM645 1444l510 272l69 -213l-512 -248z" />
<glyph unicode="&#xf4;" horiz-adv-x="1310" d="M166 565q47 254 258 430t467 176q164 0 285.5 -81.5t174 -221t21.5 -303.5q-47 -252 -257 -427t-460 -175q-162 0 -284.5 81t-179 220t-25.5 301zM438 565q-25 -137 51 -236.5t216 -99.5q143 0 255.5 96.5t139.5 239.5q27 141 -52.5 240.5t-218.5 99.5q-31 0 -65.5 -8 t-67 -21.5t-63.5 -33t-58 -41.5q-111 -94 -137 -236zM489 1270l354 282h215l248 -282h-297l-86 131l-137 -131h-297z" />
<glyph unicode="&#xf5;" horiz-adv-x="1310" d="M166 565q47 254 258 430t467 176q164 0 285.5 -81.5t174 -221t21.5 -303.5q-47 -252 -257 -427t-460 -175q-162 0 -284.5 81t-179 220t-25.5 301zM438 565q-25 -137 51 -236.5t216 -99.5q143 0 255.5 96.5t139.5 239.5q27 141 -52.5 240.5t-218.5 99.5q-31 0 -65.5 -8 t-67 -21.5t-63.5 -33t-58 -41.5q-111 -94 -137 -236zM586 1458q92 76 219 76q51 0 120.5 -28.5t98.5 -28.5q76 0 152 57l69 -174q-117 -90 -213 -90q-47 0 -120.5 26.5t-114.5 26.5q-74 0 -144 -45z" />
<glyph unicode="&#xf6;" horiz-adv-x="1310" d="M166 565q47 254 258 430t467 176q164 0 285.5 -81.5t174 -221t21.5 -303.5q-47 -252 -257 -427t-460 -175q-162 0 -284.5 81t-179 220t-25.5 301zM438 565q-25 -137 51 -236.5t216 -99.5q143 0 255.5 96.5t139.5 239.5q27 141 -52.5 240.5t-218.5 99.5q-31 0 -65.5 -8 t-67 -21.5t-63.5 -33t-58 -41.5q-111 -94 -137 -236zM530 1270l51 272h273l-52 -272h-272zM960 1270l51 272h273l-51 -272h-273z" />
<glyph unicode="&#xf7;" horiz-adv-x="1228" d="M205 539l43 237h1032l-43 -237h-1032zM526 133l45 238h238l-45 -238h-238zM674 930l45 237h237l-45 -237h-237z" />
<glyph unicode="&#xf8;" horiz-adv-x="1351" d="M166 565q31 164 137.5 303.5t261 221t318.5 81.5q106 0 233 -47l98 117l179 -139l-103 -119q61 -82 84 -191.5t0 -224.5q-45 -242 -254 -423t-448 -181q-100 0 -228 45l-98 -110l-176 139l94 110q-68 80 -93.5 191t-4.5 227zM436 557q-16 -92 27 -184l457 524 q-45 10 -86 10q-47 0 -96.5 -14t-94.5 -41t-82 -64q-98 -96 -125 -231zM639 233q33 -12 68 -12q147 0 257.5 97.5t137.5 246.5q19 99 -12 185z" />
<glyph unicode="&#xf9;" horiz-adv-x="1228" d="M181 353.5q5 52.5 22 140.5l119 641h272l-105 -557q-29 -162 -8 -232q12 -37 37 -63.5t59.5 -40t77.5 -13.5q59 0 107.5 21.5t79 54.5t54.5 81t36 92t22 100l105 557h272l-211 -1135h-250l23 121q-117 -158 -322 -158q-219 0 -329 158q-39 51 -52.5 115.5t-8.5 117z M616 1511l156 209l403 -276l-143 -189z" />
<glyph unicode="&#xfa;" horiz-adv-x="1228" d="M181 353.5q5 52.5 22 140.5l119 641h272l-105 -557q-29 -162 -8 -232q12 -37 37 -63.5t59.5 -40t77.5 -13.5q59 0 107.5 21.5t79 54.5t54.5 81t36 92t22 100l105 557h272l-211 -1135h-250l23 121q-117 -158 -322 -158q-219 0 -329 158q-39 51 -52.5 115.5t-8.5 117z M604 1444l510 272l69 -213l-512 -248z" />
<glyph unicode="&#xfb;" horiz-adv-x="1228" d="M181 353.5q5 52.5 22 140.5l119 641h272l-105 -557q-29 -162 -8 -232q12 -37 37 -63.5t59.5 -40t77.5 -13.5q59 0 107.5 21.5t79 54.5t54.5 81t36 92t22 100l105 557h272l-211 -1135h-250l23 121q-117 -158 -322 -158q-219 0 -329 158q-39 51 -52.5 115.5t-8.5 117z M448 1270l354 282h215l248 -282h-297l-86 131l-137 -131h-297z" />
<glyph unicode="&#xfc;" horiz-adv-x="1228" d="M181 353.5q5 52.5 22 140.5l119 641h272l-105 -557q-29 -162 -8 -232q12 -37 37 -63.5t59.5 -40t77.5 -13.5q59 0 107.5 21.5t79 54.5t54.5 81t36 92t22 100l105 557h272l-211 -1135h-250l23 121q-117 -158 -322 -158q-219 0 -329 158q-39 51 -52.5 115.5t-8.5 117z M489 1270l51 272h273l-52 -272h-272zM919 1270l51 272h273l-51 -272h-273z" />
<glyph unicode="&#xfd;" horiz-adv-x="1187" d="M150 -379l299 485l-226 1029h309l125 -727l408 727h309l-932 -1514h-292zM584 1444l510 272l69 -213l-512 -248z" />
<glyph unicode="&#xfe;" horiz-adv-x="1351" d="M41 -379l350 1892h250l-98 -526q164 184 403 184q127 0 218 -44t159 -140q129 -164 80 -420q-45 -246 -240.5 -425t-439.5 -179q-217 0 -317 160l-93 -502h-272zM471 567q-29 -158 61 -252q23 -25 56 -44t70.5 -30.5t74.5 -11.5q143 0 258 98.5t142 241.5 q25 137 -51.5 236.5t-213.5 99.5q-141 0 -255.5 -98t-141.5 -240z" />
<glyph unicode="&#xff;" horiz-adv-x="1187" d="M150 -379l299 485l-226 1029h309l125 -727l408 727h309l-932 -1514h-292zM469 1270l51 272h273l-52 -272h-272zM899 1270l51 272h273l-51 -272h-273z" />
<glyph unicode="&#x152;" horiz-adv-x="2170" d="M217 756q41 213 174 393t330 286.5t409 106.5q131 0 261.5 -53t185.5 -148l33 172h727l-51 -272h-449l-63 -348h426l-52 -272h-426l-63 -349h448l-51 -272h-727l31 168q-90 -92 -241.5 -144.5t-282.5 -52.5q-209 0 -366 107.5t-224.5 288t-28.5 389.5zM498 748 q-39 -207 77.5 -352.5t323.5 -145.5q203 0 372 147.5t208 352.5q39 209 -74 361.5t-322 152.5q-217 0 -381.5 -149.5t-203.5 -366.5z" />
<glyph unicode="&#x153;" horiz-adv-x="2211" d="M166 563q47 252 253 430t458 178q135 0 243.5 -60t163.5 -171q219 231 479 231q252 0 394.5 -172t95.5 -424q-6 -37 -35 -118l-4 -11h-877q12 -96 87 -156.5t178 -60.5q63 0 141 30t133 69h291q-84 -154 -262.5 -259.5t-356.5 -105.5q-133 0 -243.5 63.5t-157.5 172.5 q-88 -113 -222 -174.5t-272 -61.5q-250 0 -392 175t-95 425zM440 578q-27 -150 43 -244q37 -47 94.5 -76t120.5 -29q139 0 254 97.5t142 238.5q27 139 -50.5 239.5t-214.5 100.5q-135 0 -248.5 -95t-140.5 -232zM1374 688h606q-4 98 -76.5 157.5t-177.5 59.5 q-115 0 -206 -55.5t-146 -161.5z" />
<glyph unicode="&#x178;" horiz-adv-x="1269" d="M287 1513h309l201 -696l458 696h308l-674 -954l-105 -559h-280l104 559zM580 1649l51 272h273l-52 -272h-272zM1010 1649l51 272h273l-51 -272h-273z" />
<glyph unicode="&#x2c6;" horiz-adv-x="1105" d="M387 1270l354 282h215l248 -282h-297l-86 131l-137 -131h-297z" />
<glyph unicode="&#x2dc;" horiz-adv-x="983" d="M422 1458q92 76 219 76q51 0 120.5 -28.5t98.5 -28.5q76 0 152 57l69 -174q-117 -90 -213 -90q-47 0 -120.5 26.5t-114.5 26.5q-74 0 -144 -45z" />
<glyph unicode="&#x2000;" horiz-adv-x="1049" />
<glyph unicode="&#x2001;" horiz-adv-x="2099" />
<glyph unicode="&#x2002;" horiz-adv-x="1049" />
<glyph unicode="&#x2003;" horiz-adv-x="2099" />
<glyph unicode="&#x2004;" horiz-adv-x="699" />
<glyph unicode="&#x2005;" horiz-adv-x="524" />
<glyph unicode="&#x2006;" horiz-adv-x="349" />
<glyph unicode="&#x2007;" horiz-adv-x="349" />
<glyph unicode="&#x2008;" horiz-adv-x="262" />
<glyph unicode="&#x2009;" horiz-adv-x="419" />
<glyph unicode="&#x200a;" horiz-adv-x="116" />
<glyph unicode="&#x2010;" horiz-adv-x="860" d="M250 530l45 242h567l-45 -242h-567z" />
<glyph unicode="&#x2011;" horiz-adv-x="860" d="M250 530l45 242h567l-45 -242h-567z" />
<glyph unicode="&#x2012;" horiz-adv-x="860" d="M250 530l45 242h567l-45 -242h-567z" />
<glyph unicode="&#x2013;" horiz-adv-x="1024" d="M98 530l45 242h1024l-45 -242h-1024z" />
<glyph unicode="&#x2014;" horiz-adv-x="2048" d="M98 530l45 242h2048l-45 -242h-2048z" />
<glyph unicode="&#x2018;" horiz-adv-x="573" d="M330 983l49 262q14 84 35.5 131t79.5 92q94 80 208 74l-26 -137q-121 -18 -137 -115l-7 -35h121l-51 -272h-272z" />
<glyph unicode="&#x2019;" horiz-adv-x="573" d="M326 954l26 138q121 18 140 114l6 35h-121l51 272h272l-49 -264q-14 -80 -36.5 -128t-77.5 -95q-96 -78 -211 -72z" />
<glyph unicode="&#x201a;" horiz-adv-x="573" d="M94 -287l25 137q121 18 139 115l6 35h-121l52 272h272l-49 -262q-16 -84 -37 -131t-78 -92q-96 -80 -209 -74z" />
<glyph unicode="&#x201c;" horiz-adv-x="983" d="M326 983l49 262q14 82 35.5 129t78.5 94q94 80 211 74l-26 -137q-121 -18 -139 -115l-7 -35h121l-51 -272h-272zM750 983l49 262q14 84 35.5 131t78.5 92q94 80 209 74l-26 -137q-119 -18 -138 -115l-6 -35h121l-51 -272h-272z" />
<glyph unicode="&#x201d;" horiz-adv-x="983" d="M322 954l26 138q121 18 139 114l7 35h-121l51 272h272l-49 -264q-14 -82 -35.5 -129t-79.5 -94q-96 -78 -210 -72zM745 954l27 138q121 18 139 114l7 35h-121l51 272h272l-49 -264q-14 -80 -36.5 -128t-78.5 -95q-96 -78 -211 -72z" />
<glyph unicode="&#x201e;" horiz-adv-x="983" d="M92 -287l25 137q123 18 141 115l6 35h-121l52 272h272l-49 -262q-16 -84 -37 -131t-78 -92q-96 -80 -211 -74zM516 -287l25 137q123 18 141 115l6 35h-121l51 272h273l-49 -262q-14 -82 -37 -129t-78 -94q-96 -80 -211 -74z" />
<glyph unicode="&#x2022;" horiz-adv-x="1228" d="M395.5 651.5q26.5 143.5 145 243.5t262.5 100q94 0 164.5 -46t102.5 -125t14.5 -173t-78 -174t-149.5 -126t-181 -46q-143 0 -225 101.5t-55.5 245z" />
<glyph unicode="&#x2026;" horiz-adv-x="2048" d="M205 0l51 272h272l-51 -272h-272zM887 0l51 272h272l-51 -272h-272zM1569 0l51 272h272l-51 -272h-272z" />
<glyph unicode="&#x202f;" horiz-adv-x="419" />
<glyph unicode="&#x2039;" horiz-adv-x="491" d="M174 547l39 207l334 266l-45 -252l-160 -117l115 -121l-47 -251z" />
<glyph unicode="&#x203a;" horiz-adv-x="491" d="M201 279l47 251l162 121l-117 117l45 252l235 -266l-38 -207z" />
<glyph unicode="&#x205f;" horiz-adv-x="524" />
<glyph unicode="&#x2122;" horiz-adv-x="2048" d="M397 1354l29 159h702l-28 -159h-252l-125 -668h-199l125 668h-252zM1075 686l154 827h291l96 -489l276 489h291l-153 -827h-181l125 668l-368 -668h-107l-119 668l-125 -668h-180z" />
<glyph unicode="&#x25fc;" horiz-adv-x="1136" d="M0 0v1137h1137v-1137h-1137z" />
<glyph unicode="&#xfb01;" horiz-adv-x="1064" d="M113 0l166 893h-97l45 242h97q35 170 157.5 288.5t288.5 118.5l74 -4l-49 -264q-94 0 -136.5 -24.5t-62.5 -114.5h160l-45 -242h-160l-166 -893h-272zM672 0l211 1135h272l-211 -1135h-272zM907 1268l45 245h273l-45 -245h-273z" />
<glyph unicode="&#xfb02;" horiz-adv-x="1064" d="M113 0l166 893h-97l45 242h97q16 82 56 154.5t97.5 129t134 90t160.5 33.5l72 -4l-49 -264q-94 0 -135.5 -24.5t-63.5 -114.5h160l-45 -242h-160l-166 -893h-272zM672 0l280 1513h273l-281 -1513h-272z" />
</font>
</defs>
</svg>
